<svg id="Layer_1" data-name="Layer 1" xmlns="http://www.w3.org/2000/svg" xmlns:xlink="http://www.w3.org/1999/xlink" viewBox="0 0 960 854.92"><defs><style>.cls-1{fill:#1a1a1a;}.cls-2{fill:url(#linear-gradient);}.cls-3{fill:url(#linear-gradient-2);}.cls-4{fill:url(#linear-gradient-3);}.cls-5{fill:url(#linear-gradient-4);}.cls-6{fill:url(#linear-gradient-5);}.cls-7{fill:url(#linear-gradient-6);}.cls-8{fill:url(#linear-gradient-7);}.cls-9{fill:url(#linear-gradient-8);}.cls-10{fill:url(#linear-gradient-9);}.cls-11{fill:url(#linear-gradient-10);}.cls-12{fill:url(#linear-gradient-11);}.cls-13{fill:url(#linear-gradient-12);}.cls-14{fill:url(#linear-gradient-13);}.cls-15{fill:url(#linear-gradient-14);}.cls-16{fill:url(#linear-gradient-15);}.cls-17{fill:url(#linear-gradient-16);}.cls-18{fill:url(#linear-gradient-17);}</style><linearGradient id="linear-gradient" x1="652.36" y1="752.07" x2="1266.54" y2="752.07" gradientUnits="userSpaceOnUse"><stop offset="0" stop-color="#ed213a"/><stop offset="1" stop-color="#93291e"/></linearGradient><linearGradient id="linear-gradient-2" x1="838.97" y1="455.08" x2="999.56" y2="455.08" xlink:href="#linear-gradient"/><linearGradient id="linear-gradient-3" x1="1009.49" y1="610.74" x2="1197.89" y2="610.74" xlink:href="#linear-gradient"/><linearGradient id="linear-gradient-4" x1="1108.8" y1="461.36" x2="1202.81" y2="461.36" xlink:href="#linear-gradient"/><linearGradient id="linear-gradient-5" x1="1143.63" y1="570.25" x2="1267.84" y2="570.25" xlink:href="#linear-gradient"/><linearGradient id="linear-gradient-6" x1="940.52" y1="598.5" x2="1045.13" y2="598.5" xlink:href="#linear-gradient"/><linearGradient id="linear-gradient-7" x1="965.69" y1="538.59" x2="1059.9" y2="538.59" xlink:href="#linear-gradient"/><linearGradient id="linear-gradient-8" x1="1147.01" y1="508.71" x2="1240.78" y2="508.71" xlink:href="#linear-gradient"/><linearGradient id="linear-gradient-9" x1="1078.65" y1="503.76" x2="1166.62" y2="503.76" xlink:href="#linear-gradient"/><linearGradient id="linear-gradient-10" x1="1022.28" y1="486.71" x2="1080.53" y2="486.71" xlink:href="#linear-gradient"/><linearGradient id="linear-gradient-11" x1="995.9" y1="435.61" x2="1081.35" y2="435.61" xlink:href="#linear-gradient"/><linearGradient id="linear-gradient-12" x1="1069.11" y1="459.09" x2="1122.63" y2="459.09" xlink:href="#linear-gradient"/><linearGradient id="linear-gradient-13" x1="1092.23" y1="548.11" x2="1157.14" y2="548.11" xlink:href="#linear-gradient"/><linearGradient id="linear-gradient-14" x1="1040.15" y1="558.69" x2="1073.37" y2="558.69" xlink:href="#linear-gradient"/><linearGradient id="linear-gradient-15" x1="925.04" y1="505.35" x2="960.23" y2="505.35" xlink:href="#linear-gradient"/><linearGradient id="linear-gradient-16" x1="1071.45" y1="510.9" x2="1098.85" y2="510.9" xlink:href="#linear-gradient"/><linearGradient id="linear-gradient-17" x1="675.64" y1="441.69" x2="769.31" y2="441.69" xlink:href="#linear-gradient"/></defs><path class="cls-1" d="M660.07,663.34c-3.89,1.51-7.26,4.19-9.81,3.56-10-2.45-17,4.32-25.43,6.61-12.44,3.39-25.51,4.5-38.3,6.64a71.87,71.87,0,0,0-8.74,1.87c-21.66,6.43-43.16,4-64.6-1.14-1.78-.42-3.39-1.58-8.14-3.89,6.66-3.08,10.81-5.17,15.1-7,6.22-2.59,12.89-4.51,13.19-13.14a7.44,7.44,0,0,1,2.14-4.44c13.57-13.68,21.9-30.71,30.71-47.47,1.32-2.52,3.64-4.63,5.81-6.57,3.24-2.89,7.25-5,10.07-8.26,7.8-8.94,5.34-16.8-6.44-18.17-16.4-1.91-29.32-10.93-43.11-18.41a19,19,0,0,0-5.43-2.26c-18.07-3.27-31-15.36-44.64-26.11-1.52-1.2-1.85-3.91-2.73-5.93,2-.76,4.09-2.34,6-2.17,22.93,2.12,43.26-5.49,62.86-16.2,2.54-1.39,5.86-1.41,8.33-2.88,6.09-3.61,11.75-8,17.87-11.53,5.31-3.08,11-5.55,16.55-8.15,2.38-1.11,6.75-1.42,7.11-2.86,3.75-15.17,15.7-9.1,24.32-8.88s12.5-2.09,13.39-10.49c1.06-10,3.08-19.86,3.63-29.84.25-4.42-.67-10.49-3.53-13.22-12.62-12.05-9.94-28.42-13.21-43-.68-3.05,1.59-8,4.13-10.27,6.2-5.54,13.21-10.23,20.16-14.88a47.6,47.6,0,0,0,20.15-27.74c13-46.15,40.58-84.44,68.07-122.43,7.93-11,20.79-19.05,32.72-26.27,22-13.3,44.31-26.42,67.74-36.79,13.67-6.05,29.65-7.64,44.8-9.42,32.23-3.81,64.56-7,96.94-9.23,10.44-.71,21.46,1.17,31.67,3.92,48.85,13.14,94.92,33.88,138.63,58.52,23.42,13.22,43.91,33,62.66,52.77,19.11,20.12,25,46.81,24.24,74.57,0,1.6.21,3.21.41,5.91,15.05-5.3,29.41-10.28,43.7-15.45,2.13-.77,4.73-1.93,5.8-3.7,9-14.83,28.84-13.41,37.85-28l2.81,1.39c.84,6.36,2.84,12.82,2.31,19.06-1.33,15.44,1.15,31.65-8,45.82-1.09,1.69-.85,4.4-.81,6.63,0,1.94,1.49,4.24.85,5.75-5.18,12.17-9.73,24.36-11.77,37.65-1.21,7.84-5.52,15.26-8.77,22.72-2.21,5.06-5,9.86-7.46,14.63,4.91-.78,12.74-4.4,15.59-2,9.81,8.17,22.18,4.2,33.16,9.38,13.38,6.32,31.07,3.59,46.91,4.58,6.55.41,13.13.42,19.7.47,9.93.07,19.86,0,32.49,0-12.51,16.7-24.86,32.13-36,48.38-12.44,18.09-31.84,27.17-48.35,40.06-15.93,12.44-34,19.89-52.72,26.33-2.63.9-5,2.55-8.23,4.23l48,32.36-1.2,4.52-57.47-6c-.27,1.12-.55,2.24-.82,3.35,7.73,3.37,15.79,6.13,23.13,10.2,22.16,12.33,44.44,24.54,65.89,38,12.67,8,24.07,18.07,35.58,27.76,3,2.52,4.22,7.11,4,11.44l-119.39-51.35q-1.45,2.25-2.89,4.5c57.61,34.18,98.21,85.39,140.8,134.62l-1.77,2.88c-3.32-1.27-7.22-1.8-9.87-3.91-25.67-20.44-50.7-41.7-76.79-61.57-19.69-15-40.66-28.3-61.09-42.31-.94-.64-2.22-.78-5.08-1.72l57.88,76.44-2.79,3.44c-5-2.47-10.25-4.61-15-7.5-11.69-7.1-23.2-14.49-34.71-21.87-4.61-3-8-2.35-10.8,2.51-6.37,11.31-13,22.46-19.22,33.85-3.77,6.92-7,14.17-10.57,21.61,18,16.81,16.93,16.6,12.08,42.74-8.82,47.57-52.68,74.42-92.2,80.43-35.86,5.46-70.81,2.7-103.53-15.05-2.14-1.16-6.72-.45-8.7,1.18-11.89,9.73-22.54,21.16-35.15,29.76-15.85,10.8-33,19.75-49.93,28.88-12.75,6.88-25.43,15.34-39.2,18.56-22.41,5.24-39.49,24.14-63.77,23.38a50.13,50.13,0,0,1-5-.75c3.89-6.67,7.58-12.72,11-18.91q10.27-18.45,20.32-37c2.65-4.91,0-7.38-4.59-6.47-6.16,1.21-12,4-18.13,5.47a194.5,194.5,0,0,1-66.15,4.43c-7.53-.77-15.08-1.28-22.59-2.14-3.45-.4-6.84-1.38-10.25-2.09,0-.94,0-1.88,0-2.81,3.86-2.39,7.94-4.48,11.52-7.23,7.31-5.62,15.57-9.65,18.2-20.57,1.41-5.86,9-10.24,13.47-15,.22-4,.45-8.16.7-12.58-30.18,4.48-61.08,1.5-91.38-5.62-26.94-6.33-51.22-18.56-70.6-39.26-13-13.84-14-26-2.37-41.11,11.23-14.58,24.15-28.13,33.5-43.82,12.88-21.58,8.51-20.86-4.78-32.71C664.82,682.59,659.38,674.63,660.07,663.34Zm-58.27,7.37c4.38-1.23,8.79-2.34,13.11-3.74,2.3-.74,6.08-1.63,6.4-3.07,4-18,7.41-36.17,11-54.29L630,607.29c-4.94,4.13-12.53,7.34-14.32,12.55-5.74,16.63-9.32,34-13.77,51-.53-3.62-2.15-7.5-1.38-10.82,2.91-12.55,6.6-24.93,10.14-37.92-19,4-28.68,19.65-30.9,48.58Zm251.42-37.15c-5.27,8.35-11.18,16.6-5.29,27h26.23c-1.72-5.54-2.11-11-4.89-14.73-3.9-5.19-9.57-9.06-14.49-13.49,3.81-9.77,6.9-19.9,11.63-29.2,4.17-8.2,10-15.62,15.51-23,1-1.32,4.61-2,6.28-1.27,9.18,4,9.62-2.22,11.12-8.42-24,2.67-63.57,34.88-59.1,53.7-9-15.82-11.27,3.18-19.25-2.49,4.78-5.63,9.47-11,13.92-16.45,2.7-3.34,5.83-6.65,7.4-10.52,6.77-16.68,21.34-24.45,36.3-30.71,10.61-4.43,22.46-6,33.86-8.38,11.69-2.41,23.44-4.86,35.28-6,6.49-.6,10.11-1.93,12.66-8.55,1.55-4,6.5-7.69,10.77-9.45,5.4-2.22,5.74-5.24,3.7-9.28a111.14,111.14,0,0,0-6.75-10.7c-29.55,13.72-57,19-86.74-.94,1.73,7.89,2.69,12.26,4.21,19.22-5.85-5.41-11.39-8.22-13.14-12.56-6.61-16.32-18.14-28.62-29.85-41.13-9.52-10.18-15.59-21.75-8.78-36.4,1.26-2.72,1-6.69.16-9.76-2.79-10.57-3.18-21.58-12.92-30.11-5.08-4.47-5.44-14.33-8.67-23.95-.46,7.69-.8,13.31-1.14,18.92l-1.07-.12c-2.1-7.28-4.2-14.56-6.38-22.14C811,375,814,371.46,816,363.46c1.36-5.52,7.24-9.8,10.51-15,3.68-5.88,10.78-13.47,9.33-18.08-7.8-24.68,7-40.05,20.07-56.63-9.67,19.69-24,38.33-12.82,60.15,7.32-6.29,14.73-14.59,23.85-20,11.28-6.71,23.3-11.93,31-23.81-.43,4.87-1.24,9.75-4,12.81-7.33,8-16.77,14.38-23,23.08-8.05,11.17-17.17,20.29-29.55,26.2-19.55,9.32-22.59,19.14-11,43.49,26.48-1.8,53.64.66,77.74-13.45,8.9,8,19.47,9.9,30.46,10.45,22.36,1.12,45.26.47,61.92,19.56a18.91,18.91,0,0,1,1.57,2.6l-9.2,3.22c5,3.07,8.15,6.56,11.11,6.38,2.5-.15,5.7-4.15,6.92-7.13,2.26-5.55,3.31-11.6,4.86-17.43,2.19-8.2,6.6-13,16-11.15s18.71,3.4,29.26,5.29c-5.59-14.81-8.5-28.53-.65-42,1.48-2.52,4.33-4.23,6.49-6.37,2.88-2.84,5.7-5.74,8.55-8.61.15-1.77,2.82-1.1,3.66-2,7.82-8.9,15.77-17.75,22.79-27.27,6.8-9.22,10.83-12.63,17-11.95-8.87,14.83-26.6,25.54-22.93,47.66l15.26-11.71,2.5,2.28c-14,12.5-19.33,28.26-18.83,45.94-10.68,1.66-11.15,10.62-13.31,16.52,7.4,3.27,14,6.19,20.53,9.1,5.18-11,13.2-14.07,24.12-12.29,9.38,1.53,19.1-5.73,18.78-14.74-.29-8.26,3.34-12.92,9.39-17.17a32.2,32.2,0,0,0,7.67-7.56c13.44-19,33.28-27.31,54.51-33.77,3.37-1,8.4-5.11,8.3-7.6-.53-12.58-.11-26-4.41-37.48-15.37-41.14-45.94-68.77-84.21-88.67-26.73-13.9-53-28.68-80.21-41.63-21.39-10.19-43.35-18.95-68.33-17.16-26.63,1.91-53.49.79-80.11,2.82-19.8,1.51-40.23,3.45-58.85,9.72-21.35,7.19-41.49,18.52-61.22,29.71a127.39,127.39,0,0,0-31.11,24.7c-18.19,20-33.5,42.35-44.78,67.18C705,276,698.37,290.45,691.62,305.23l8.91-1.63,1.55,2.16c-3.1,4-5.75,8.44-9.39,11.86q-24.5,23-49.49,45.43c-8.74,7.88-10,23.2-3,32.39a37.23,37.23,0,0,1,6.86,14c3.64,16.42,7,33-1.77,49.1a10.94,10.94,0,0,0-1.1,5.89c1.14,12.43-1,23.93-9,33.88-4.14,5.14-1.93,9.17,2,13,5,4.84,10.16,9.5,14.8,14.64,9.7,10.75,19.28,21.63,28.57,32.73,7.45,8.91,15.75,17.51,21.16,27.6,4.34,8.11,5.78,18.13,6.93,27.5,1.49,12.17.91,24.59,2.2,36.8.77,7.28,5.11,13,14.53,18.35-1.88-17.48-3.44-32.07-4.77-44.4l14.9,1.46c-2.21,7.18-4.58,13.89-6.26,20.76-.77,3.16-.15,6.66-.27,10-.38,10.24,8.44,22.72,18.27,25.25,1,.24,2.47-1.76,3.73-2.72h0c4.66-4.15,8.54-9,16.43-5.87,5.69,2.28,7.66-1.84,6.84-7.3-1-6.94-2.49-13.89-2.68-20.86-.08-3,2.41-8.52,4-8.63,4.91-.34,12.76-7.59,14.53,3.63-17.73,7.34-6,22.62-12,33.71,7.81,0,13.12-.1,18.43,0,7.8.18,11.29-3.32,9.66-11.14-1.9-9.09-4-18.15-5.7-25.92L818.28,635l3.07,5c-12.67,8-9.37,19.42-8.28,32.31,9.83-3.95,23.65-5.44,26.17-11.58,2.89-7-4.24-18.19-6.91-27.17Zm-158.6,80c-13.81,19-27,36.17-38.94,54.13-2.89,4.34-4.52,12.71-2.27,16.69,6.86,12.11,14.55,24.39,24.51,33.87,7.82,7.45,19.05,12.24,29.59,15.65,12.67,4.1,26.33,5,39.36,8.14,23,5.5,46.09,3.73,68.78,0,28.32-4.63,56.52-10.62,84.27-17.93,33.55-8.83,66.49-20,99.9-29.38,7.95-2.24,17-.52,25-2.53,14.56-3.62,28.92-8.21,43.08-13.22,35.74-12.67,71.8-21.36,110.24-15,32,5.32,48.77,34.91,34.34,63.29-5.8,11.41-15.15,20.19-26.15,27a20.85,20.85,0,0,1,3.31-8.41c7.25-10.59,13.7-21.44,17.45-34,2.45-8.14,1.46-15-3-21.77-10.42-15.58-26-18.32-43.21-17.77-6.36.2-9.52,2.58-10.11,8.46-1.24,12.16-2.21,24.35-3.45,38.34-4,1.24-9.95,3.41-16,4.83-6.37,1.48-12.91,2.24-19.37,3.32-.12,1.62-.23,3.25-.34,4.88l41.11,15c-.22,1-.45,2-.68,2.93-16.11-1.85-32.21-3.88-48.36-5.37-2.44-.23-5.11,2.05-7.67,3.17,1.37,2.51,2.44,5.28,4.24,7.43,1.12,1.34,3.35,1.76,5.07,2.6l-1,2.48c-7.08-3.27-17.41-4.73-20.5-10.25-4.94-8.81,4.6-15.5,10.57-21.62a22.61,22.61,0,0,1,8.36-5.35c8.51-3,17.27-5.26,25.77-8.27,2.36-.84,5.5-3,6-5,2.67-11.47,4.62-23.1,7.14-36.4-21.14,5.37-41.49,10.4-61.77,15.74-10.5,2.77-11.08,4.38-7.42,14.63l15-5.67a44.63,44.63,0,0,1-9,16.78c-3.85,4.5-8.57,8.25-12.74,12.5-11.72,11.93-8.87,29.84,6.26,36.73,6.61,3,13.85,4.85,21,6.56,29.23,7,57.88,4,86.07-5.56,18.28-6.21,36.86-13.09,46.27-31.21,8.38-16.14,14.09-33.69,20.5-50.8.81-2.15-.42-6.37-2.2-7.94-5.89-5.21-11.94-10.73-18.89-14.19-18.06-9-36.91-15.91-57.37-17.32-1.73-.12-3.38-1.46-5.07-2.23,23.11-2.66,45,1.64,65,9.89,10.84-16.88,20.16-33.19,31.3-48.14,8.19-11,10.12-21,5.85-34.13-5.84-17.93-20.36-26.66-33.89-36.87-9.17-6.92-17.27.74-25.81,1.89-6.13.83-13.27.68-18,3.86-13.33,8.9-26.61,12.27-41.26,4.48-7.38-3.91-12.63-1.87-19,3-8.49,6.44-18.19,9.68-29.79,9.53-17.06-.22-35-3.07-50.63,8-2,1.4-5.68,1.13-8.36.58-7.37-1.52-14.59-3.77-21.94-5.42-8.69-1.94-17.42-3.67-26.18-5.25-5.86-1-12-3.14-17.66-2.23-24.46,3.92-48.78,8.7-73.12,13.37-2.48.47-5.84,1.63-6.85,3.51-2.52,4.7-2.91,10.4-11.17,7.09-4.23-1.69-11.26,1.69-14.3-.69-6.54-5.12-11.35-2.5-17.46-.29-24.77,9-50,15.84-76.68,10.32-5.91-1.22-9.47-.26-14.07,4-3.63,3.41-14.07,6.12-15,4.79-5.69-8.53-15.62-9.92-22.55-15.57-10.83-8.85-20.17-19.53-31.08-30.38-17.45,6.13-22.36,26.19-5.36,38.65,16.58,12.14,35.15,21.71,53.4,31.36,6.41,3.4,14.46,3.68,21.74,5.45.56.13,1,.82,1.93,1.66-.41,2.22-.88,4.75-1.52,8.19l-22.14-9.54,4.24,9.24L709,712.59c7.54,15.63,20.15,28.52,17.74,47.62C713.31,746.2,700.37,732.45,694.62,713.54ZM1319.83,282l-4.12-2c-9.48,5.71-18.67,12-28.51,17-19.43,9.85-40.68,15.64-59.14,27.89-8.25,5.47-18.41,8.33-28,11.42-12,3.88-22.47,10.25-29.58,20.39-4,5.7-3.82,14.61-14.25,13.35-.83-.1-2.8,2.41-2.81,3.71,0,4.09-.32,11.21,1.25,11.72,4.94,1.6,10.71,1.07,16.11.71,5.72-.39,11.45-2.46,17.06-2.06,4.47.32,8.76,3.25,15.71,6.06,1.69-6.61,3.67-14.39,5.71-22.39l3.15,14.35c10-14.47,31.81-13.77,31.3-34.88.39,2.77.79,5.53,1.67,11.62l66.85-57c-2.67,5.12-4.12,10.11-7.24,13.57-20.11,22.3-40.77,44.09-60.87,66.39-11.07,12.28-21.62,25.06-31.95,38-3.31,4.13,1.88,22,6.17,24.11,10.41,5.06,19.7,12.13,31.45,14.81,7.63,1.73,11.74.28,14.81-6.73,2-4.46,5.24-8.32,7.47-12.68,1.86-3.62,3-7.61,4.54-11.4,2.54-6.2,4.9-12.5,7.81-18.52,1.52-3.15,4.68-5.53,6-8.71,3.07-7.2,5.5-14.68,8.17-22.06,1.2-3.33,2.47-6.64,3.5-10,2.38-7.78,4.78-15.56,6.86-23.43a47.39,47.39,0,0,0,1.06-9.48c.15-2.9-.54-5.92,0-8.7C1313.17,312,1316.55,297,1319.83,282ZM908.22,837.52c8.27,6.26,6.7,12.66.5,19.38-1.11,1.2-1,4.21-.48,6.13,2.81,10.6,3,20.55-5.33,29.1-1.57,1.6-3.51,3.51-3.85,5.53a112.75,112.75,0,0,1-26,55.28c-.89,1-1.08,2.65-2,5.15,3.51-.8,5.74-1.19,7.91-1.8,15.56-4.44,25.89-20.38,43.69-19.92,6.51-9.81,18.25-8.49,27.29-12.91,5.7-2.78,11-6.45,16.62-9.32,9.88-5,22.59-4.82,29.07-16.25.91-1.62,4.16-1.76,6-3.07a43.13,43.13,0,0,0,7.09-6.26c5.7-6.43,6-19.92,20.18-15.1.37.12,1.2-.55,1.57-1,4.6-6.09,10.34-11.67,13.45-18.45,5.12-11.13,8.81-23,12.58-34.66,2.34-7.26,3.71-14.84,5.9-23.87-14.64,4.24-26.44,7.38-38.06,11.11-8,2.56-9.66,10.05-5.22,17.64,2.57,4.39,4,9.45,5.91,14.21l-1.74.73L1013,819.78c-4.62,4.45-9,8.44-13.17,12.74-17.46,18.2-34.37,37-52.47,54.52-6.91,6.69-15.82,11-13.31,22.78.1.47-1,1.18-2.05,2.4-.47-3.24-.82-5.65-1.22-8.46l-10.43,4.32c-1.47-4.05-2.62-7.24-3.82-10.53,8.13-6.41,20-9.75,18.11-23.6-.1-.7,1.85-1.72,2.91-2.52,5-3.76,10-7.49,16.46-12.35L942.93,854c6-2.25,14.2-2.82,17.94-7.18,9-10.54,16-22.85,25-36.16C959.38,821.23,931,819.59,908.22,837.52ZM860.8,430.2l13.83-8.13c-7.67,13.21-13.82,23.8-20,34.39l3.81,2.28,11.95-22.17,1.87,13.4c-15.33-1.82,2.14,12.57-7.14,14.08.21.95.12,2.35.71,2.74.83.56,2.16.32,3.26.5,1.45.24,2.89.56,4.9.95l-6.17,5.83,1.27,1.69,7.17-2.37c2.34,14.36,12.08,22.24,24.37,28.75l-13.9-1.82-.48,2.16,32.74,11c-1.42-3.42-2.59-6.24-4.06-9.8l10.87-2.42-10.66-1.21c0-.93.05-1.87.07-2.8a72.63,72.63,0,0,0,8.48-.07A85,85,0,0,0,935.57,495c4.09-1.08,8-2.69,12-4.06,6.65-2.91,13-8.44,20.36-10.35,7.58-2,16.07-.44,26.57-.44-13-19.73-5.6-34.94,5-47.46-6.53-6-12.78-10.67-17.76-16.48-6-7-12.42-9.95-21.85-9.11-17.18,1.52-34.14.29-49.45-9.3-2-1.22-5.14-1.38-7.53-.9-21.09,4.21-42.14,8.68-64,13.24,1.91,4.79,4.15,10.46,6.86,17.29l10.69-8.24-9.91-2.79c.21-1.25.42-2.5.64-3.74a87.07,87.07,0,0,0,10.27,1c3,0,6-.89,9.94-1.53,7.57,12.08-11.74,6.87-11.85,14.43Zm413.28,28L1382.21,450c-11.11,9.95-25.52,10.58-38.65,14.49-13.32,4-27,6.73-42,10.39l14.13,9.65c-21.1-15-41.46-8.36-62.25.68L1278.25,501c-2.35,12.52-4.69,25-7.22,38.56,6.94,1.92,15,5.15,23.14-2.56,3.48-3.28,8.68-4.89,13.28-6.8,11.73-4.87,24.4-8.09,35.12-14.57s19.76-16.21,29.52-24.5c2-1.72,3.83-3.94,6.16-5,20.59-9.72,29.62-28.79,40.48-49.05-14.94-.65-28.46-.92-41.93-1.91-13.78-1-27.52-2.68-41.26-4.21-1.21-.13-2.22-1.61-3.46-1.9-10.12-2.35-21.23-.45-30.34-7.19-.32-.23-1.28.27-1.87.57-13.73,6.92-21.69,18.66-27.07,32.52C1272.63,455.39,1273.23,456.12,1274.08,458.18Zm-76.19,116.87c-17.13,0-31.59-.47-46,.15-11.28.49-22.48,2.82-33.76,3.42-12.38.67-13,1-9.53,12.84.11.36-.67,1-1.3,1.83-1.74-.64-3.55-1.86-5.39-1.91-10.67-.28-22.28-3-31.79.25-14.67,5.06-28,14.16-41.69,21.85-5.9,3.3-11.38,7.35-19,12.3,12,3.88,21,6.84,30.07,9.75,14.3,4.58,27.35,14.05,43.78,10.16a78.3,78.3,0,0,1,19.94-2.1c15.17.41,25.87-6.8,33-19.18,5.88-10.27,14-14.95,25.49-17.12C1178.18,604.17,1188.81,593.05,1197.89,575.05Zm-568.6-102.2c-5.35.4-13.16-.3-13.62,1.23-3,9.88-10.4,9.86-18.22,10.42-1.92.14-3.7,2.32-5.53,3.58-5.79,4-11.5,8.07-17.41,11.87-2.37,1.53-5.23,2.3-7.76,3.61-5.84,3-11.29,7.23-17.46,9.1-16,4.85-31.21,13.45-48.81,11.87-.32,0-.73.92-1.52,2,11.52,8.53,22.56,17.62,38,18,1.85.06,5.14.94,5.27,1.8,1.31,8.94,8.68,6.53,14,7.95,2.41.64,6.15,1,6.87,2.52,4.76,10.39,13.38,7.3,21.31,6.79,2.2-.14,5.35-1.52,6.41-.54,7.41,6.82,15.11,2.39,22.58.86,1.92-.39,3.36-3.23,5-5,3.26-3.52,5.91-8.14,9.9-10.31,5.54-3,12.07-4.19,18.19-6.15l.15-2.73c-6.93-3.44-13.6-8.93-20.86-9.88-14.07-1.83-28.46-1.17-42.73-1.41-8.55-.14-17.11,0-26.61,0,3.62-6.08,19.25-12,24.13-10.44,8.72,2.81,19.38-1.8,19.52-8.68,3,1.55,6,4.23,8.93,4.25,3.39,0,9-1.53,9.82-3.77C622.78,498.5,625.5,486.74,629.29,472.85ZM1168.76,527c6.34-6.39,12.3-11.36,17-17.34,10-12.75,10.64-28.68,13-43.82,2.75-18,9.33-36.45-3.9-53.52-1.63-2.11-1.65-5.77-1.73-8.73-.19-6.89-3-7.71-9.69-7-9.68,1.05-19.6-.22-29.42-.47-2.26-.06-5.29-.94-6.66.17-8.87,7.18-18.88,9.12-30,8.89-2.79-.06-7.58,3.66-8.14,6.34-1.69,8,2.57,14.62,9.59,17.95,2.74,1.3,7.52-1,11.1-2.32,6.2-2.35,12.82-8.19,18.06-7.05,4.6,1,7.77,9.43,11.15,14.84,2.2,3.53,3.48,7.62,5.47,11.29,1.83,3.37,5.18,6.3,5.89,9.82,1.83,9.1,2.06,18.52,3.87,27.64,2.12,10.74-2.6,18-10.17,24.49a43.54,43.54,0,0,0-3.62,3.86Zm-25.13,99.12,1,4.67c12.59,3,24.38,9.08,38.24,0,9.22-6.06,20.89-8.31,31.21-12.83,3.86-1.69,8-4.34,10.29-7.72,6.6-9.9,12.07-20.55,18.49-30.58,3.75-5.86,10.38-10.49,12.39-16.74,5.19-16.09,8.66-32.75,12.43-49.27a8.45,8.45,0,0,0-2.28-6.92c-5.82-5-23.59,1.48-26.18,8.66s-5.12,14.59-9.47,20.6c-7.29,10.06-16,19.08-24.11,28.54l4.21,1.55c-.37,4.62.76,10.17-1.42,13.64-4,6.3-9.54,11.76-15.09,16.87-9.5,8.75-15.41,22.05-31.22,23C1155.88,619.94,1149.8,623.82,1143.63,626.11Zm-118.31-20.3.15-2.46c-4.47-2.06-9-4.06-13.4-6.18-11.55-5.53-20.93-12-21.74-27.1-.38-7.06-5.21-14.15-9-20.66-1.71-2.95-6-6.48-8.72-6.22-3,.27-6.23,4.27-8.15,7.38-7.13,11.58-13.32,23.75-20.76,35.11-3.75,5.71-4.74,11.12,0,15.31,8.35,7.42,17.69,13.73,26.65,20.45,6,4.53,15.46,7.82,17.47,13.69,3.8,11.08,10.61,12.68,19.83,12.06,9.49-.64,18.52-.86,26.6,5.84,2,1.63,6.43.24,9.74.24l1.14-3.57c-3.94-2.05-7.72-4.56-11.86-6.07-9.72-3.54-20.16-5.56-29.19-10.32-4.42-2.32-6.35-9.37-9.4-14.29,3.2-1.82,6.72-3.27,9.5-5.6,2.13-1.78,3.32-4.68,4.27-6.1Zm-59.63-114,.21,3.22c4.47,5.59,10.31,10.58,13.13,16.9,6.73,15.09,14,30.4,17.44,46.38,4.26,19.6,14.16,31.52,33.42,36.06,3.75.88,8.11,3.86,11,2.75,6.34-2.45,11.9-6.89,19-11.29-7-6-12.41-13.31-19.59-16.09-8.11-3.14-12.56-8.16-16.29-15-2.56-4.69-5-9.45-7.9-14-6-9.33-5.45-12.42,2.14-17.93l7.93,20.23,8.27-13.06c-8.27-15.38-31.94-25-18.73-50.23C999.8,490,984.39,497.08,965.69,491.82ZM1147,564.29c14.68-6.2,26.46-4.84,38.49,0,6.14,2.49,12.36.67,16.64-5.71,9.43-14.06,19.41-27.75,28.69-41.91,2.07-3.16,2.43-7.56,3.12-11.47,1.49-8.51,2.56-17.09,4.07-25.6.72-4.05,2-8,2.76-10.75-6-3.31-10.69-5.66-15.14-8.36s-8.5-5.65-12.73-8.49c-1.69,4.93-3.55,9.81-5,14.81-.64,2.21-.32,4.68-.69,7-1.35,8.49-2.81,17-4.25,25.6h10.51c-9.91,13.06-17.9,24.17-32.27,30.05C1166.41,535.54,1152.8,544.32,1147,564.29Zm-476.2,2.29c-11.28-16.41-25.47-19-38.48-8.22-10.91,9.08-23.07,16.74-33.41,26.38-8.49,7.92-15.77,17.38-22.4,27-6.91,10-11.59,21.54-18.72,31.33-8.27,11.38-18.15,21.6-28.72,33.94,14.77,1.68,27.79,3,40.63-2,1.76-.69,4-2,4.57-3.56,3.83-10.89,7.26-21.91,11.11-33.77l-17.45,6.23-2.31-4.71,33.91-26.51-9.19-3.73c4.69-1.94,9.46-1.12,13.11-2.77,5.5-2.47,10.22-6.66,15.27-10.12-4.8-6,2.5-5.85,4.3-6.67,6.07-2.75,12.64-4.36,19-6.41,0-1.15.07-2.3.11-3.44l-6-3.26.23-2.89C651.28,583.46,659.28,569.08,670.81,566.58Zm467.74-84,1.89,0c-1.35,3.31-1.82,7.61-4.22,9.78-12.35,11.19-25.23,21.8-37.87,32.69-11,9.48-20.45,20-19.65,35.83.27,5.42,2.14,10.77,3.28,16.15l3-.37c.38-1.44,1.13-2.89,1.08-4.31-.44-11.58,3-20.13,15.47-23.72,2.55-.73,4.83-5.93,5.39-9.37,1.29-7.93,4.58-13.52,12.29-16.7,8.66-3.57,16.9-8.18,25.56-11.77,28.61-11.87,24.21-39.65,14.24-57.27a96.92,96.92,0,0,1-7.6-15.73c-2-5.84-5.22-8.85-11.15-6.37-10,4.2-13,18.27-6,26.6l5.69-3.11,2.4,1.54c-6,12.33-12.08,24.67-19.11,39ZM1065.78,499l1.77-1.95c-1.31-2.09-2.59-4.2-3.94-6.26-5.18-7.9-6.32-15.57-1.41-24.5,2.4-4.36,8.79-10.54.79-15.58-6.48-4.08-13.64-7.08-20.55-10.45-7.3-3.56-11.45-1.45-12.17,6.64-.36,3.94.8,8,.76,12-.06,4.88,1.18,11.27-1.36,14.37-11.6,14.18-8.94,26,3.73,37.31.46.41.48,1.31.93,1.76,9.47,9.79,16.39,23.81,33.69,20.82,4.37-.76,11.18,5.7,12.48-2.17.52-3.18-5.69-8.23-9.78-11.1-2-1.4-6.15.23-9,.47L1040.58,484l2.71-1.79Zm-406.2,99.72c-17.46,2.6-21.49,5.67-25,19.7-3.65,14.63-6.74,29.41-10,43.9,8.31-1.53,14.76-2.38,21-4,3-.78,5.45-3.23,8.26-4.71,3.46-1.83,6.92-4.53,10.58-4.91,9.12-1,14.56-5.63,15.35-13.82,1.29-13.32,3.06-26.59,4.81-41.4-6,.9-12.52.34-17.18,3-4.28,2.46-6.53,8.43-9.68,12.85l-1.27-.69Zm421.77-190.32c-6.34,0-11.72,1-16.55-.22-8.69-2.17-17.12-5.49-25.54-8.62-9.48-3.54-14.84-2.27-15.55,5-1.57,16.09-10.51,27.72-21.38,38.5-6,6-8.27,19-4.79,26.27,3.92,8.12,10.74,2.24,16,2.76,8.47.85,10.76-3.14,7.85-13.3-3.15-11,0-19.93,7.55-27.52,2-2,6.23-3.87,8.53-3.1,7.79,2.6,15.12,6.55,22.76,9.65,1.53.62,3.64-.19,5.48-.34-.46-2.09-.44-4.49-1.52-6.19-.9-1.42-3.08-2-4.7-3,.45-.56.9-1.11,1.36-1.66h11.26l.06-1.42-22.37-4.39c.14-1.25.27-2.51.41-3.76,4.53,0,9.81-1.53,13.45.27C1076,423.38,1075.76,423.83,1081.35,408.35ZM1100,502.24c1.58-4.37,4.15-8.43,4.24-12.55a22,22,0,0,0-3.8-12.47c-2.47-3.46-7.17-5.24-10.5-8.19-5.77-5.11-5.48-11.8-1.74-17.31,1.84-2.7,7.07-3.09,11.33-4.74-.53-.85-1.63-2.64-2.73-4.43l2.88-2c1.67,2.77,4.06,5.34,4.89,8.35,3,10.68-2.24,22.72,5.91,32.85,1.61,2-.29,7-.93,10.62-.54,3-1.59,5.93-2.41,8.89l2.74.93c4.33-11.83,9.44-23.46,12.54-35.6,1.06-4.16-2.54-9.78-4.7-14.42-2.35-5.07-5.5-9.77-8.31-14.63-3.44-5.93-6.21-12.41-10.5-17.64-5.43-6.63-11.59-4.57-14,3.66q-6.83,22.88-14.05,45.62c-3.55,11.19-2,14.39,8.36,20C1086.15,492.87,1092.6,497.53,1100,502.24Zm254.15,186.82c-34.66-33.7-70.59-65.48-115.21-87.91l-7.67,13.76ZM1130.06,566.78c8.89-12.4,14.81-22.74,22.81-31.08,5.52-5.75,5.12-10.22,2-15.83-4-7.15-8-1.17-11.62.46-7.33,3.26-14.92,6.3-21.5,10.77-3.87,2.63-8.31,7.77-8.42,11.88-.22,8.77-4.49,12.31-11.66,15.11-9.85,3.85-11.82,9.49-6.77,21.7,2.3-4.57,3.55-8,5.64-10.88,1.4-1.9,4-4.22,6-4.15C1115.62,565.12,1124.65,566.26,1130.06,566.78Zm236.71,70.76c-1.66-1.93-2.83-4-4.59-5.2a450.21,450.21,0,0,0-93.29-48.53c-13.58-5.18-15.69-3.4-20.66,9.36ZM787.33,905.37q18.75,0,37.51,0c.64,0,1.27-.54,1.91-.56,3.93-.11,7.91.2,11.78-.31,5-.66,13.26-.64,14.27-3.22,4.41-11.17,6.69-23.18,10.08-36.19l-48.46,30.12C809.06,887.82,795.63,891.37,787.33,905.37Zm252.82-346.52c5,3.52,9.19,6.15,13,9.24,4.34,3.53,8.1,7.82,12.63,11,1.53,1.1,4.87.58,7-.26s-1.12-31.3-3.23-32.16c-7.64-3.1-15.38-6-23.47-9.11C1043.8,545.64,1041.94,552.36,1040.15,558.85Zm-237,330.22,63.16-45.2a194.1,194.1,0,0,0-37.25,9c-3.14,1.1-6.84,5.9-7,9.14-.31,6.83-3.87,9.68-9.34,11.2C804.83,875.41,802.67,880.79,803.2,889.07Zm83.18-29.92c-13.16,1.22-20.69,5.73-22.21,17.82-.61,4.84-3.51,9.36-4.57,14.2-.6,2.77.39,5.9.66,8.86,3-.35,6.57.2,9-1.22C884.25,889.9,881.88,873.72,886.38,859.15ZM1015.8,805.5l-4.93-4.9c-28,14-35.71,46.45-56.88,66.7l2,1.86Zm250.4-252.91c-6.91,15.13-5,18.12,10.35,17.78,9-.19,17.93.59,26.89,1.1,3.43.2,6.84.85,10.26,1.3l.63-2.52C1299.68,560.78,1284.37,553,1266.2,552.59Zm-60.76-141.51,57.83-57.21c-17.07,10.35-33.32,21.44-49.32,32.9C1201.82,395.45,1200.19,401.57,1205.44,411.08Zm-296,234.23,4.74,2.85,19.25-10.62c-3-5-5-11.2-9.28-14.56-2.44-1.93-11.76-.3-12.36,1.54C909.66,631,910,638.32,909.4,645.31Zm361.24,9.39-2.47,1.43c3.27,6.73,8.54,13.22,9.42,20.25,2.35,18.65,17.92,22.1,30.85,29Zm-331-15.26c2.32,0,4,.32,5.51-.06,6.15-1.54,12.24-3.29,18.36-5-4.75-5-9.3-10.14-14.3-14.83-6-5.63-12.9-8.34-21.85-4.62C939.66,615.8,939.66,615.8,939.65,639.44Zm-51.38-12.65c-4.45,7.41-8,11.94-10,17.06-1.61,4.1-2.51,10.47,4.87,9.69s14.41-3.64,24.56-6.4Zm-261.69-29,1.41,2.69,57.82-20.28c-5.55-3.31-10.08-7.82-12-6.89C657.77,580.94,642.25,589.54,626.58,597.83Zm71.18,30.94c-.25-25.35-1.39-30-9-35.41-2.48,13.33-4.92,26.45-7.46,40.08Zm204,223.85L899.92,850c-2.73,2-6.88,3.49-7.93,6.17-2.76,7-4.35,14.53-6.06,21.93-1.18,5.12-1.79,10.39-2.66,15.59l4,1.55c3.53-7,11.6-15.86,9.65-20.59C892.86,864.75,899.73,859.71,901.74,852.62Zm-39.52,4.07c14.06-4.2,30-4.94,37.25-22C881.57,833.94,873.07,847.49,862.22,856.69Zm89.47-300.93-47.8,12.73c2.14,2.77,4.41,4,6.46,3.68,9.41-1.38,18.81-4.75,28.11-4.45C949.59,568.09,951.2,562.4,951.69,555.76Zm8.54-52.1c-2.62-2.31-5.08-6.11-8.29-6.91-5.55-1.38-19.7,9.28-22.2,15.6-1.21-1.38-2.34-2.69-3.48-4-.41.95-.82,1.9-1.22,2.85,2.83,1,6.1,3.45,8.41,2.75C941.88,511.35,950,507.7,960.23,503.66Zm115.26-2.94-4,1.36c1.31,2.88,1.92,6.57,4.09,8.46,4.41,3.83,9.66,6.68,15.48,10.54l7.83-7c-4.75-5.66-8.82-11.77-16.38-5.46Zm229.18-34.28-.45-2.5c-13.49.82-28.12-4.63-39.89,5.61l.6,3.19ZM919.34,592.07l1.72,1.27,13.87-13.69-2.55-3.54-17.81,5.63c.23.73.45,1.46.68,2.19l13-3.4C924.57,585.26,922,588.67,919.34,592.07Zm340.21-97.32.27-3c-4.83-.87-9.65-1.88-14.52-2.31-.33,0-1,4.24-1.92,8Z" transform="translate(-479.72 -112.88)"/><path class="cls-2" d="M694.62,713.54c5.75,18.91,18.69,32.66,32.08,46.67,2.41-19.1-10.2-32-17.74-47.62l32.88,19.32-4.24-9.24,22.14,9.54c.64-3.44,1.11-6,1.52-8.19-1-.84-1.37-1.53-1.93-1.66-7.28-1.77-15.33-2.05-21.74-5.45-18.25-9.65-36.82-19.22-53.4-31.36-17-12.46-12.09-32.52,5.36-38.65,10.91,10.85,20.25,21.53,31.08,30.38,6.93,5.65,16.86,7,22.55,15.57.89,1.33,11.33-1.38,15-4.79,4.6-4.31,8.16-5.27,14.07-4,26.68,5.52,51.91-1.33,76.68-10.32,6.11-2.21,10.92-4.83,17.46.29,3,2.38,10.07-1,14.3.69,8.26,3.31,8.65-2.39,11.17-7.09,1-1.88,4.37-3,6.85-3.51,24.34-4.67,48.66-9.45,73.12-13.37,5.63-.91,11.8,1.18,17.66,2.23,8.76,1.58,17.49,3.31,26.18,5.25,7.35,1.65,14.57,3.9,21.94,5.42,2.68.55,6.39.82,8.36-.58,15.61-11,33.57-8.19,50.63-8,11.6.15,21.3-3.09,29.79-9.53,6.37-4.83,11.62-6.87,19-3,14.65,7.79,27.93,4.42,41.26-4.48,4.76-3.18,11.9-3,18-3.86,8.54-1.15,16.64-8.81,25.81-1.89,13.53,10.21,28,18.94,33.89,36.87,4.27,13.14,2.34,23.16-5.85,34.13-11.14,14.95-20.46,31.26-31.3,48.14-20-8.25-41.88-12.55-65-9.89,1.69.77,3.34,2.11,5.07,2.23,20.46,1.41,39.31,8.35,57.37,17.32,6.95,3.46,13,9,18.89,14.19,1.78,1.57,3,5.79,2.2,7.94-6.41,17.11-12.12,34.66-20.5,50.8-9.41,18.12-28,25-46.27,31.21-28.19,9.58-56.84,12.56-86.07,5.56-7.11-1.71-14.35-3.55-21-6.56-15.13-6.89-18-24.8-6.26-36.73,4.17-4.25,8.89-8,12.74-12.5a44.63,44.63,0,0,0,9-16.78l-15,5.67c-3.66-10.25-3.08-11.86,7.42-14.63,20.28-5.34,40.63-10.37,61.77-15.74-2.52,13.3-4.47,24.93-7.14,36.4-.48,2.07-3.62,4.19-6,5-8.5,3-17.26,5.27-25.77,8.27a22.61,22.61,0,0,0-8.36,5.35c-6,6.12-15.51,12.81-10.57,21.62,3.09,5.52,13.42,7,20.5,10.25l1-2.48c-1.72-.84-4-1.26-5.07-2.6-1.8-2.15-2.87-4.92-4.24-7.43,2.56-1.12,5.23-3.4,7.67-3.17,16.15,1.49,32.25,3.52,48.36,5.37.23-1,.46-1.95.68-2.93l-41.11-15c.11-1.63.22-3.26.34-4.88,6.46-1.08,13-1.84,19.37-3.32,6.1-1.42,12-3.59,16-4.83,1.24-14,2.21-26.18,3.45-38.34.59-5.88,3.75-8.26,10.11-8.46,17.24-.55,32.79,2.19,43.21,17.77,4.5,6.73,5.49,13.63,3,21.77-3.75,12.52-10.2,23.37-17.45,34a20.85,20.85,0,0,0-3.31,8.41c11-6.85,20.35-15.63,26.15-27,14.43-28.38-2.35-58-34.34-63.29-38.44-6.4-74.5,2.29-110.24,15-14.16,5-28.52,9.6-43.08,13.22-8.06,2-17.1.29-25,2.53-33.41,9.41-66.35,20.55-99.9,29.38-27.75,7.31-55.95,13.3-84.27,17.93-22.69,3.7-45.8,5.47-68.78,0-13-3.11-26.69-4-39.36-8.14-10.54-3.41-21.77-8.2-29.59-15.65-10-9.48-17.65-21.76-24.51-33.87-2.25-4-.62-12.35,2.27-16.69C667.66,749.71,680.81,732.52,694.62,713.54Zm543.46-18.12-23.74-3.62C1221.18,697.84,1228.07,703.52,1238.08,695.42Z" transform="translate(-479.72 -112.88)"/><path class="cls-3" d="M860.8,430.2l-5.19-3.6c.11-7.56,19.42-2.35,11.85-14.43-3.93.64-6.93,1.49-9.94,1.53a87.07,87.07,0,0,1-10.27-1c-.22,1.24-.43,2.49-.64,3.74l9.91,2.79-10.69,8.24c-2.71-6.83-5-12.5-6.86-17.29,21.86-4.56,42.91-9,64-13.24,2.39-.48,5.57-.32,7.53.9,15.31,9.59,32.27,10.82,49.45,9.3,9.43-.84,15.87,2.14,21.85,9.11,5,5.81,11.23,10.52,17.76,16.48-10.62,12.52-18.06,27.73-5,47.46-10.5,0-19-1.54-26.57.44-7.32,1.91-13.71,7.44-20.36,10.35-4,1.37-8,3-12,4.06a85,85,0,0,1-11.86,2.15,72.63,72.63,0,0,1-8.48.07c0,.93-.05,1.87-.07,2.8l10.66,1.21L915,503.68c1.47,3.56,2.64,6.38,4.06,9.8l-32.74-11,.48-2.16,13.9,1.82c-12.29-6.51-22-14.39-24.37-28.75l-7.17,2.37-1.27-1.69,6.17-5.83c-2-.39-3.45-.71-4.9-.95-1.1-.18-2.43.06-3.26-.5-.59-.39-.5-1.79-.71-2.74,9.28-1.51-8.19-15.9,7.14-14.08l-1.87-13.4-11.95,22.17-3.81-2.28c6.16-10.59,12.31-21.18,20-34.39Z" transform="translate(-479.72 -112.88)"/><path class="cls-4" d="M1197.89,575.05c-9.08,18-19.71,29.12-36.16,32.24-11.48,2.17-19.61,6.85-25.49,17.12-7.09,12.38-17.79,19.59-33,19.18a78.3,78.3,0,0,0-19.94,2.1c-16.43,3.89-29.48-5.58-43.78-10.16-9.06-2.91-18.1-5.87-30.07-9.75,7.57-4.95,13-9,19-12.3,13.72-7.69,27-16.79,41.69-21.85,9.51-3.28,21.12-.53,31.79-.25,1.84,0,3.65,1.27,5.39,1.91.63-.85,1.41-1.47,1.3-1.83-3.47-11.82-2.85-12.17,9.53-12.84,11.28-.6,22.48-2.93,33.76-3.42C1166.3,574.58,1180.76,575.05,1197.89,575.05Z" transform="translate(-479.72 -112.88)"/><path class="cls-5" d="M1168.76,527l-8.25-15a43.54,43.54,0,0,1,3.62-3.86c7.57-6.45,12.29-13.75,10.17-24.49-1.81-9.12-2-18.54-3.87-27.64-.71-3.52-4.06-6.45-5.89-9.82-2-3.67-3.27-7.76-5.47-11.29-3.38-5.41-6.55-13.84-11.15-14.84-5.24-1.14-11.86,4.7-18.06,7.05-3.58,1.35-8.36,3.62-11.1,2.32-7-3.33-11.28-9.93-9.59-17.95.56-2.68,5.35-6.4,8.14-6.34,11.13.23,21.14-1.71,30-8.89,1.37-1.11,4.4-.23,6.66-.17,9.82.25,19.74,1.52,29.42.47,6.65-.71,9.5.11,9.69,7,.08,3,.1,6.62,1.73,8.73,13.23,17.07,6.65,35.5,3.9,53.52-2.32,15.14-2.92,31.07-13,43.82C1181.06,515.63,1175.1,520.6,1168.76,527Z" transform="translate(-479.72 -112.88)"/><path class="cls-6" d="M1143.63,626.11c6.17-2.29,12.25-6.17,18.54-6.55,15.81-.95,21.72-14.25,31.22-23,5.55-5.11,11.12-10.57,15.09-16.87,2.18-3.47,1-9,1.42-13.64l-4.21-1.55C1213.8,555,1222.51,546,1229.8,536c4.35-6,6.91-13.49,9.47-20.6s20.36-13.66,26.18-8.66a8.45,8.45,0,0,1,2.28,6.92c-3.77,16.52-7.24,33.18-12.43,49.27-2,6.25-8.64,10.88-12.39,16.74-6.42,10-11.89,20.68-18.49,30.58-2.26,3.38-6.43,6-10.29,7.72-10.32,4.52-22,6.77-31.21,12.83-13.86,9.1-25.65,3-38.24,0Z" transform="translate(-479.72 -112.88)"/><path class="cls-7" d="M1025.32,605.81l-16.87,1.51c-1,1.42-2.14,4.32-4.27,6.1-2.78,2.33-6.3,3.78-9.5,5.6,3.05,4.92,5,12,9.4,14.29,9,4.76,19.47,6.78,29.19,10.32,4.14,1.51,7.92,4,11.86,6.07l-1.14,3.57c-3.31,0-7.78,1.39-9.74-.24-8.08-6.7-17.11-6.48-26.6-5.84-9.22.62-16-1-19.83-12.06-2-5.87-11.44-9.16-17.47-13.69-9-6.72-18.3-13-26.65-20.45-4.72-4.19-3.73-9.6,0-15.31,7.44-11.36,13.63-23.53,20.76-35.11,1.92-3.11,5.19-7.11,8.15-7.38,2.77-.26,7,3.27,8.72,6.22,3.77,6.51,8.6,13.6,9,20.66.81,15.07,10.19,21.57,21.74,27.1,4.44,2.12,8.93,4.12,13.4,6.18Z" transform="translate(-479.72 -112.88)"/><path class="cls-8" d="M965.69,491.82c18.7,5.26,34.11-1.87,50-12-13.21,25.21,10.46,34.85,18.73,50.23l-8.27,13.06-7.93-20.23c-7.59,5.51-8.1,8.6-2.14,17.93,2.88,4.5,5.34,9.26,7.9,14,3.73,6.86,8.18,11.88,16.29,15,7.18,2.78,12.6,10.09,19.59,16.09-7.13,4.4-12.69,8.84-19,11.29-2.87,1.11-7.23-1.87-11-2.75-19.26-4.54-29.16-16.46-33.42-36.06C993,542.34,985.76,527,979,511.94c-2.82-6.32-8.66-11.31-13.13-16.9Z" transform="translate(-479.72 -112.88)"/><path class="cls-9" d="M1147,564.29c5.79-20,19.4-28.75,34.2-34.8,14.37-5.88,22.36-17,32.27-30.05H1203c1.44-8.63,2.9-17.11,4.25-25.6.37-2.32,0-4.79.69-7,1.45-5,3.31-9.88,5-14.81,4.23,2.84,8.37,5.84,12.73,8.49s9.11,5.05,15.14,8.36c-.72,2.75-2,6.7-2.76,10.75-1.51,8.51-2.58,17.09-4.07,25.6-.69,3.91-1,8.31-3.12,11.47-9.28,14.16-19.26,27.85-28.69,41.91-4.28,6.38-10.5,8.2-16.64,5.71C1173.47,559.45,1161.69,558.09,1147,564.29Z" transform="translate(-479.72 -112.88)"/><path class="cls-10" d="M1138.55,482.59l-15.29,12.84c7-14.34,13.07-26.68,19.11-39l-2.4-1.54-5.7,3.09c-7-8.31-4-22.38,6-26.58,5.93-2.48,9.12.53,11.15,6.37a96.92,96.92,0,0,0,7.6,15.73c10,17.62,14.37,45.4-14.24,57.27-8.66,3.59-16.9,8.2-25.56,11.77-7.71,3.18-11,8.77-12.29,16.7-.56,3.44-2.84,8.64-5.39,9.37-12.46,3.59-15.91,12.14-15.47,23.72.05,1.42-.7,2.87-1.08,4.31l-3,.37c-1.14-5.38-3-10.73-3.28-16.15-.8-15.8,8.65-26.35,19.65-35.83,12.64-10.89,25.52-21.5,37.87-32.69,2.4-2.17,2.87-6.47,4.22-9.78Z" transform="translate(-479.72 -112.88)"/><path class="cls-11" d="M1065.78,499l-22.49-16.76-2.71,1.79,21.15,36.32c2.84-.24,7-1.87,9-.47,4.09,2.87,10.3,7.92,9.78,11.1-1.3,7.87-8.11,1.41-12.48,2.17-17.3,3-24.22-11-33.69-20.82-.45-.45-.47-1.35-.93-1.76-12.67-11.3-15.33-23.13-3.73-37.31,2.54-3.1,1.3-9.49,1.36-14.37,0-4-1.12-8-.76-12,.72-8.09,4.87-10.2,12.17-6.64,6.91,3.37,14.07,6.37,20.55,10.45,8,5,1.61,11.22-.79,15.58-4.91,8.93-3.77,16.6,1.41,24.5,1.35,2.06,2.63,4.17,3.94,6.26Z" transform="translate(-479.72 -112.88)"/><path class="cls-12" d="M1081.35,408.35c-5.59,15.48-5.36,15-17.69,8.93-3.64-1.8-8.92-.27-13.45-.27-.14,1.25-.27,2.51-.41,3.76l22.37,4.39-.06,1.42h-11.26c-.46.55-.91,1.1-1.36,1.66,1.62,1,3.8,1.58,4.7,3,1.08,1.7,1.06,4.1,1.52,6.19-1.84.15-4,1-5.48.34-7.64-3.1-15-7-22.76-9.65-2.3-.77-6.53,1.1-8.53,3.1-7.58,7.59-10.7,16.53-7.55,27.52,2.91,10.16.62,14.15-7.85,13.3-5.26-.52-12.08,5.36-16-2.76-3.48-7.23-1.21-20.31,4.79-26.27,10.87-10.78,19.81-22.41,21.38-38.5.71-7.27,6.07-8.54,15.55-5,8.42,3.13,16.85,6.45,25.54,8.62C1069.63,409.33,1075,408.35,1081.35,408.35Z" transform="translate(-479.72 -112.88)"/><path class="cls-13" d="M1100,502.24c-7.42-4.71-13.87-9.37-20.82-13.1-10.41-5.59-11.91-8.79-8.36-20q7.22-22.76,14.05-45.62c2.45-8.23,8.61-10.29,14-3.66,4.29,5.23,7.06,11.71,10.5,17.64,2.81,4.86,6,9.56,8.31,14.63,2.16,4.64,5.76,10.26,4.7,14.42-3.1,12.14-8.21,23.77-12.54,35.6l-2.74-.93c.82-3,1.87-5.88,2.41-8.89.64-3.58,2.54-8.61.93-10.62-8.15-10.13-2.94-22.17-5.91-32.85-.83-3-3.22-5.58-4.89-8.35l-2.88,2c1.1,1.79,2.2,3.58,2.73,4.43-4.26,1.65-9.49,2-11.33,4.74-3.74,5.51-4,12.2,1.74,17.31,3.33,3,8,4.73,10.5,8.19a22,22,0,0,1,3.8,12.47C1104.17,493.81,1101.6,497.87,1100,502.24Z" transform="translate(-479.72 -112.88)"/><path class="cls-14" d="M1130.06,566.78c-5.41-.52-14.44-1.66-23.49-2-2-.07-4.61,2.25-6,4.15-2.09,2.85-3.34,6.31-5.64,10.88-5.05-12.21-3.08-17.85,6.77-21.7,7.17-2.8,11.44-6.34,11.66-15.11.11-4.11,4.55-9.25,8.42-11.88,6.58-4.47,14.17-7.51,21.5-10.77,3.66-1.63,7.66-7.61,11.62-.46,3.1,5.61,3.5,10.08-2,15.83C1144.87,544,1139,554.38,1130.06,566.78Z" transform="translate(-479.72 -112.88)"/><path class="cls-15" d="M1040.15,558.85c1.79-6.49,3.65-13.21,5.88-21.24,8.09,3.12,15.83,6,23.47,9.11,2.11.86,5.23,31.35,3.23,32.16s-5.42,1.36-7,.26c-4.53-3.23-8.29-7.52-12.63-11C1049.34,565,1045.15,562.37,1040.15,558.85Z" transform="translate(-479.72 -112.88)"/><path class="cls-16" d="M960.23,503.66c-10.24,4-18.35,7.69-26.78,10.29-2.31.7-5.58-1.75-8.41-2.75.4-.95.81-1.9,1.22-2.85,1.14,1.31,2.27,2.62,3.48,4,2.5-6.32,16.65-17,22.2-15.6C955.15,497.55,957.61,501.35,960.23,503.66Z" transform="translate(-479.72 -112.88)"/><path class="cls-17" d="M1075.49,500.72l7,7.91c7.56-6.31,11.63-.2,16.38,5.46l-7.83,7c-5.82-3.86-11.07-6.71-15.48-10.54-2.17-1.89-2.78-5.58-4.09-8.46Z" transform="translate(-479.72 -112.88)"/><path class="cls-1" d="M774.66,462.18c1.92,9.34,4.72,18.6,5.5,28,.67,8.15,5.81,11.87,10.86,16.77,12.48,12.1,25.67,25,23.6,44-1.2,11-7.6,21.51-12.07,33.32l-10.4-9.45c3.15-2.79,6.26-5.55,9.38-8.3l-.54-1.94-19.42,2.9c0-5.37,7.24-12.42,13.21-12.28,9.11.21,11-2.15,8.68-11-3.49-13.28-12.2-22.73-22.9-31.49-8.74,7.37-17.35,14.24-14.67,27.4a5.67,5.67,0,0,1-.18,2c-1.48,8.28-20,21.23-29.67,19.68,3.81,8.93,7.39,17.32,11,25.71l-2.88,1c-15.94-20.66-25.7-42.86-16.53-69.9,2.23-6.57,5.65-13.26,5.71-19.91s-3.48-13.14-6.21-20a199.34,199.34,0,0,1-23.06,65.4l-4.94-1.32c1.41-8.39,2.82-16.79,4.51-26.8L678,522.53l-1.27-2.48,18.47-11.92c-7.61-6.41-16.51-12.75-23.84-20.57-3.65-3.89-7.57-11.79-6-15.6,6-14.34.94-28.09.7-42.06A94.15,94.15,0,0,1,668.06,408c1.62-7.22,5.21-12.78,13.83-15.36,7-2.09,13.29-7.56,19-12.53,12.11-10.51,23.29-9.53,38.22-1.31,7.72,4.24,14.4,10.32,21.81,15.18,2.38,1.56,5.59,1.86,10.15,3.28-1.79-7.46-3.22-13.66-4.79-19.82-2.61-10.24.36-18.79,6.38-27.3,2.82-4,2.64-10,4.07-15.07,1.59-5.61,3.46-11.15,5.21-16.72l4,1.27c-3.61,15.47-7.56,30.87-10.6,46.45-.86,4.42-.72,10.67,1.8,13.8,6,7.38,6.32,14.95,2.61,22.37-9.07,18.13-16.95,37.33-36.46,47.65-9.63,5.1-14.66,13.27-14.36,23.85l17.88-17.71c1,2,1.57,4.72,3.2,5.8,4.31,2.86,9.09,5,14.39,7.8ZM693.86,496c8,5.64,17.87,2.45,19.7-6.15,2-9.38,3.13-19.07,6.35-28,1.93-5.32,6.19-11.22,11-13.84,17.49-9.46,29-23.78,38.37-40.71-13.2-6.79-25.59-13.13-37.95-19.51-6.52-3.36-12.78-4.84-19.7-.33-9.6,6.25-19.8,11.59-29.34,17.93-2.23,1.49-3.94,5.42-4,8.25a228.87,228.87,0,0,0,1.33,28.92c.72,6.09,3.23,12,5,18.1l-9,12.63,18.23,5,.62,2.39-11.81,2.47c3.39,3.1,7.74,5.71,11.37,4.94,7.65-1.62,9.29.86,9.64,5.56L701.25,496c-1-1.9-2-3.8-3.3-6.29Zm74.91-15.07-30-2.06c3.37,3.68,7.53,10.08,9,9.51,8.38-3.23,7.54,2.47,8.28,7.07,1.38,8.65,2.76,17.31,4.49,28.14,5-6.75,11.24-11.4,11.72-16.58C773,498.41,770.1,489.5,768.77,480.9ZM751.31,519l1.67-.2c-.32-6.88-.16-13.84-1.21-20.61-.44-2.81-3.5-5.22-5.37-7.81-1.08,3.38-3.69,7.18-2.92,10.07C745.19,506.87,748.6,512.84,751.31,519Z" transform="translate(-479.72 -112.88)"/><path class="cls-1" d="M787,426.07c.91-2.83,1.15-6.17,2.85-8.39A27.1,27.1,0,0,0,794.81,394c-.92-3.92-4.19-7.24-5.67-11.11-1.67-4.38-4.36-9.51-3.4-13.55,3.35-14.17,6.42-28.26,16.93-40.1,4.85-5.47,4.77-15.56,6.27-23.68,1.06-5.72,1-11.64,2.71-17.3,1.91,19.37,4.84,38.29-9.93,55.57-6.33,7.42-7.2,19.51-10.43,29.52a3,3,0,0,0,.74,2.71c14.23,7.32,8.32,20.81,8.32,31.44,0,6.69-6.15,13.38-9.54,20.08Z" transform="translate(-479.72 -112.88)"/><path class="cls-1" d="M812.07,481.23c-13.17-19.87-12-30.08,1.5-45,4.53-5,8.1-10.84,12.11-16.3l2.64.89c-3.8,10.13-8.35,20.06-11.18,30.47C814.5,461,813.69,471.23,812.07,481.23Z" transform="translate(-479.72 -112.88)"/><path class="cls-1" d="M751,679.32c-1.35-12.34-3.78-24.69-3.67-37,.07-9,4.21-10.85,15-10-.93,2.21-1.26,5.42-2.68,6-11.21,4.69-7.27,14.2-7.65,22.37-.29,6.22-.7,12.44-1.06,18.66Z" transform="translate(-479.72 -112.88)"/><path class="cls-1" d="M1101.14,372.72c-.15-11.84,9.69-28.26,16.25-28.43,3,10.53-15.15,11.74-11.26,24.71Z" transform="translate(-479.72 -112.88)"/><path class="cls-1" d="M665.44,373.21c-3.06,10.58-5.55,19.24-8.05,27.9l-1.13.73c-.29-5.6-1.9-11.56-.48-16.67C657,380.9,661.7,377.61,665.44,373.21Z" transform="translate(-479.72 -112.88)"/><path class="cls-1" d="M678.81,371.94l32.39-15.66c.35.78.71,1.55,1.07,2.33l-32.15,15.6Z" transform="translate(-479.72 -112.88)"/><path class="cls-1" d="M774.47,462.46l-9-6.28c15.84.8,21.35,3.86,22.6,11.9Z" transform="translate(-479.72 -112.88)"/><path class="cls-1" d="M987.31,375.08l23.48,16.21-1.77,2.64L985.4,377.5Z" transform="translate(-479.72 -112.88)"/><path class="cls-1" d="M1238.08,695.42c-10,8.1-16.9,2.42-23.74-3.62Z" transform="translate(-479.72 -112.88)"/><path class="cls-18" d="M693.86,496l4.09-6.28c1.31,2.49,2.31,4.39,3.3,6.29l2.44-2.36c-.35-4.7-2-7.18-9.64-5.56-3.63.77-8-1.84-11.37-4.94l11.81-2.47-.62-2.39-18.23-5,9-12.63c-1.75-6.12-4.26-12-5-18.1a228.87,228.87,0,0,1-1.33-28.92c0-2.83,1.74-6.76,4-8.25,9.54-6.34,19.74-11.68,29.34-17.93,6.92-4.51,13.18-3,19.7.33,12.36,6.38,24.75,12.72,37.95,19.51C760,424.19,748.43,438.51,730.94,448c-4.84,2.62-9.1,8.52-11,13.84-3.22,8.94-4.36,18.63-6.35,28C711.73,498.42,701.86,501.61,693.86,496Z" transform="translate(-479.72 -112.88)"/><path class="cls-1" d="M1009,649c.7,2.4-2.53,5-9.68,8.82A210.48,210.48,0,0,1,972,669.54,299.5,299.5,0,0,1,929.79,681c-7.87,8.56-14.6,19.86-20.19,33s-11,30.42-16.31,49-9.37,28.44-12.24,33.55a46.6,46.6,0,0,1-13,14.26c-15.35,11.07-32.57,13.92-51.67,16-10.19.92-18.92,1-26.19-1.8a19.34,19.34,0,0,1-12.79-15.48c-.64-3.63-.16-6.71,1.44-8.9s3.81-2.87,6.64-2.26c4.6,1,7.34,3.69,8.23,7.91a5.4,5.4,0,0,1-1,4.89,5.58,5.58,0,0,1-4.76,1.83c-3.32-.16-5.28-1.79-5.88-5q-.46-2.54-1.32-2.67c-1.2-.18-1.48,1.55-.85,5.07,1,5.84,4.9,10.53,11.53,13.19s14.27,2.91,22.91,2.2c19-1.92,34.41-5.62,46.34-19.09,5.6-6.41,12.31-17.47,20.11-38.24,12.78-34.15,28.24-68.63,46.4-86.84-3.94.83-9.89,1.84-17.84,2.78-18.69,2.31-32.81,4.26-42.36,7.18-1,.29-3.94,1.41-8.84,3.15a71.94,71.94,0,0,1,8.91,26c2.85,18.79-.37,36.4-9.68,51.59-9.31,15-20.69,21-34.13,20.35a22.57,22.57,0,0,1-14.67-6.51,27.33,27.33,0,0,1-7.89-15.08c-1.48-8.21-.06-16.56,4.26-25.87s10.68-18.08,19.06-27.38A138.58,138.58,0,0,1,853.18,693c-7-9.06-15.63-12.65-25.95-11-8.7,1.28-17,5.55-25,11.14s-14.48,11.54-19.59,18.55c-.75,1.1-1.3,1.55-1.65,1.39a2,2,0,0,1-1-1.13c-.22-1.42,2-3.78,6.77-8.54C798.21,692,811.5,682,826.71,679.62c11.8-1.94,21.54,1.87,29.22,11.74a112.78,112.78,0,0,1,28.82-14.22,93.77,93.77,0,0,1,15.9-4c5.17-.74,17.93-1.91,38.27-4.44C954,655,969,648.5,984.08,646.25,999.57,644.05,1007.88,645.41,1009,649ZM861.94,715.51a52.29,52.29,0,0,0-6.81-19.43c-15.37,7.63-28.62,20.78-39.76,35.45-11.14,14.46-15.48,26.1-13,39.79a25,25,0,0,0,7.08,13.43A19.62,19.62,0,0,0,822,790.81c12,.71,22.31-5.44,31.07-21.39C861.81,753.23,864.77,734.71,861.94,715.51Zm145.4-66.08c-.38-1.3-2.7-2.09-7-2.48a61.45,61.45,0,0,0-15.51.81,80.54,80.54,0,0,0-42.29,20.63q2.73-.48,14.58-2.28a255,255,0,0,0,30.75-6.41,74.64,74.64,0,0,0,14.31-5.36C1006,652.38,1007.74,650.83,1007.34,649.43Z" transform="translate(-479.72 -112.88)"/><path class="cls-1" d="M941.83,769.27a14.3,14.3,0,0,1-.75,2.06c-1.14,2.65-2.28,5.25-3.42,7.82-9.92,22.68-18.39,31.87-25.4,33.71a14.46,14.46,0,0,1-9-.32,7.48,7.48,0,0,1-5-5.12c-.75-2.83.55-7.77,3.9-16.06,3.79-9.34,7.59-19.8,11.39-31a29.85,29.85,0,0,0,5.34-1.9,79.23,79.23,0,0,0,7.93-4.83C921.24,770,915.63,785.19,910,798.07c-2.41,5.58-3.34,9.16-2.76,11.35s2.54,2.9,5.87,2c6.3-1.76,15.33-12.61,27.08-40.91a2.26,2.26,0,0,1,.87-1.49C941.5,768.8,941.75,768.88,941.83,769.27Zm-9.6-39.86c.46,2.41-.16,5.2-1.85,8.39a15.44,15.44,0,0,1-6.25,6.72q-4.78,2.51-5.66-2.09-.65-3.39,2.06-8.29a16.05,16.05,0,0,1,6.3-6.79C929.87,725.75,931.68,726.45,932.23,729.41Z" transform="translate(-479.72 -112.88)"/><path class="cls-1" d="M1027.06,726.24c.27,1.57-3.6,10.48-11.62,28.79-6.59,15.1-12.28,24-17.1,26a8.61,8.61,0,0,1-8.71-.72c-2.61-1.79-4.25-4.56-4.91-8.37a25.12,25.12,0,0,1,.33-10.2c.81-3.45,3.24-10.75,7.28-21.62,4.17-11.38,6-17.87,5.61-20.06q-.8-4.06-5.36-1.72c-10.33,4.59-22.73,33.42-37.2,79.51-3.52,1.08-5.64,1.74-6.34,2q-3.72,1.41-6.93,3c3.91-9.64,7.83-20.14,11.74-31.06,6.66-18.83,9.64-30.5,9-33.92q-.59-3-3.25-1.47c-3.61,1.93-9.34,13.4-17.18,32.75a5.34,5.34,0,0,1-1.21,2.09c-.36.18-.61.1-.76-.24a2.06,2.06,0,0,1,.27-1l1.53-3.44c8.18-18.9,14.14-30.12,17.9-32.14a6.75,6.75,0,0,1,6.77-.39c2.11,1.09,3.44,3.06,4,5.93.84,4.26-.66,11.77-4.49,22.34,6.23-15.53,11.21-26.66,14.92-33s7.48-10.56,11.3-12.53q4.68-2.38,8.56-.43c2.59,1.32,4.23,3.76,4.92,7.37.87,4.57-1.06,13.27-5.77,26.72-4.82,13.77-7,22.36-6.47,25.41.53,3.23,2.25,4.26,5.16,3,6.3-2.33,15.12-21.47,26.44-51.4.22-.87.51-1.38.87-1.52S1027,725.8,1027.06,726.24Z" transform="translate(-479.72 -112.88)"/><path class="cls-1" d="M1061.7,691.68c-.18.52-.37,1-.56,1.55-4.63.76-9.26,1.76-13.9,3-5.41,14-10.83,30.53-16.24,48.87-2,6.66-2.75,11.83-2.21,15.31.58,3.84,2.54,5.19,5.87,4,6.45-1.9,15.26-21.31,26.44-48,.37-.83.73-1.27,1.08-1.34a.59.59,0,0,1,.76.55,14.72,14.72,0,0,1-.75,2q-1.71,3.72-3.42,7.62c-9.92,23.33-18.25,39.49-25,41.64a9,9,0,0,1-9-1.3c-2.68-2-4.34-5.14-5-9.29-.78-4.87.12-11.64,2.71-20,4.11-13.14,8.22-25.34,12.33-36.26q-5.41,1.82-10.82,4c.25-.62.51-1.23.76-1.84,3.54-1.37,7.08-2.65,10.62-3.81q4.32-11.18,8.64-20.43a37.88,37.88,0,0,0,6.2-.7,37,37,0,0,0,6-1.78q-4.21,8.67-8.42,19.28Q1054.75,692.8,1061.7,691.68Z" transform="translate(-479.72 -112.88)"/><path class="cls-1" d="M1137.55,728c.27,1.85-3.63,6.13-11.73,15.65-6.51,8-12.17,12.81-17,12a13.59,13.59,0,0,1-8.64-5.37,23.22,23.22,0,0,1-4.77-11.16,30.65,30.65,0,0,1,1.12-13.84c-5.26,10.24-9.45,18.53-12.56,23s-6.44,7.11-10,7.64c-3.75.58-7.19-.87-10.33-4.32s-5.16-8-6.05-13.71c-2.5-15.48,4.88-31,22.14-41.49,7.56-4.54,13.92-6,19.09-5.34,4.39.61,7,3.06,7.75,7.2a16.14,16.14,0,0,1,0,4.55c1.17-3.05,2.35-6,3.52-8.89a46.71,46.71,0,0,0,5.76,2.2c1.91.55,4.34,1.06,7.3,1.62-4.36,8.43-8.72,17.05-13.08,26.88-4.51,10.37-6.45,18.61-5.81,22.69s2.3,6.13,5.06,6.58,6.77-2.59,11.82-7.93a132.43,132.43,0,0,0,14.62-18.51c.3-.56.62-.75,1-.55A1.46,1.46,0,0,1,1137.55,728Zm-32.46-29.63c-.64-3.38-2.55-5.32-5.74-5.78-6.51-.79-13.88,3.94-22.12,17.38-8.24,13.65-11.64,26.9-10.2,36.35.85,5.61,3.32,8.13,7.42,7.51,4.89-.54,11.86-12.43,20.91-29.32C1102.75,710.93,1106,703.37,1105.09,698.39Z" transform="translate(-479.72 -112.88)"/></svg>