<svg xmlns="http://www.w3.org/2000/svg" xmlns:xlink="http://www.w3.org/1999/xlink" viewBox="0 0 494 336.68"><defs><style>.cls-1{fill:#1a1a1a;}.cls-2{fill:url(#linear-gradient);}.cls-3{fill:url(#linear-gradient-2);}.cls-4{fill:url(#linear-gradient-3);}.cls-5{fill:url(#linear-gradient-4);}.cls-6{fill:url(#linear-gradient-5);}.cls-7{fill:url(#linear-gradient-6);}.cls-8{fill:url(#linear-gradient-7);}.cls-9{fill:url(#linear-gradient-8);}.cls-10{fill:url(#linear-gradient-9);}.cls-11{fill:url(#linear-gradient-10);}.cls-12{fill:url(#linear-gradient-11);}.cls-13{fill:url(#linear-gradient-12);}.cls-14{fill:url(#linear-gradient-13);}.cls-15{fill:url(#linear-gradient-14);}.cls-16{fill:url(#linear-gradient-15);}.cls-17{fill:url(#linear-gradient-16);}.cls-18{fill:url(#linear-gradient-17);}.cls-19{fill:url(#linear-gradient-18);}.cls-20{fill:url(#linear-gradient-19);}.cls-21{fill:url(#linear-gradient-20);}.cls-22{fill:url(#linear-gradient-21);}.cls-23{fill:url(#linear-gradient-22);}.cls-24{fill:url(#linear-gradient-23);}.cls-25{fill:url(#linear-gradient-24);}.cls-26{fill:url(#linear-gradient-25);}.cls-27{fill:url(#linear-gradient-26);}.cls-28{fill:url(#linear-gradient-27);}.cls-29{fill:url(#linear-gradient-28);}.cls-30{fill:url(#linear-gradient-29);}.cls-31{fill:url(#linear-gradient-30);}.cls-32{fill:url(#linear-gradient-31);}.cls-33{fill:url(#linear-gradient-32);}.cls-34{fill:url(#linear-gradient-33);}.cls-35{fill:url(#linear-gradient-34);}.cls-36{fill:url(#linear-gradient-35);}.cls-37{fill:url(#linear-gradient-36);}.cls-38{fill:url(#linear-gradient-37);}.cls-39{fill:url(#linear-gradient-38);}.cls-40{fill:url(#linear-gradient-39);}.cls-41{fill:url(#linear-gradient-40);}.cls-42{fill:url(#linear-gradient-41);}.cls-43{fill:url(#linear-gradient-42);}.cls-44{fill:url(#linear-gradient-43);}.cls-45{fill:url(#linear-gradient-44);}.cls-46{fill:url(#linear-gradient-45);}.cls-47{fill:url(#linear-gradient-46);}.cls-48{fill:url(#linear-gradient-47);}.cls-49{fill:url(#linear-gradient-48);}.cls-50{fill:url(#linear-gradient-49);}.cls-51{fill:url(#linear-gradient-50);}.cls-52{fill:url(#linear-gradient-51);}.cls-53{fill:url(#linear-gradient-52);}</style><linearGradient id="linear-gradient" x1="3304.37" y1="281.44" x2="3504.14" y2="281.44" gradientTransform="matrix(-1, 0, 0, 1, 3594.27, 0)" gradientUnits="userSpaceOnUse"><stop offset="0" stop-color="#ed213a"/><stop offset="1" stop-color="#93291e"/></linearGradient><linearGradient id="linear-gradient-2" x1="3453.48" y1="199.55" x2="3518.61" y2="199.55" xlink:href="#linear-gradient"/><linearGradient id="linear-gradient-3" x1="3316.48" y1="188.47" x2="3399.22" y2="188.47" xlink:href="#linear-gradient"/><linearGradient id="linear-gradient-4" x1="3164.41" y1="208.82" x2="3285.04" y2="208.82" xlink:href="#linear-gradient"/><linearGradient id="linear-gradient-5" x1="3282.17" y1="232.95" x2="3367.9" y2="232.95" xlink:href="#linear-gradient"/><linearGradient id="linear-gradient-6" x1="3247.15" y1="152.53" x2="3294.08" y2="152.53" xlink:href="#linear-gradient"/><linearGradient id="linear-gradient-7" x1="3302.58" y1="221.89" x2="3442.89" y2="221.89" xlink:href="#linear-gradient"/><linearGradient id="linear-gradient-8" x1="3369.72" y1="240.07" x2="3469.11" y2="240.07" xlink:href="#linear-gradient"/><linearGradient id="linear-gradient-9" x1="3312.24" y1="138.5" x2="3416.91" y2="138.5" xlink:href="#linear-gradient"/><linearGradient id="linear-gradient-10" x1="3433.43" y1="175.47" x2="3474.2" y2="175.47" xlink:href="#linear-gradient"/><linearGradient id="linear-gradient-11" x1="3157.43" y1="126.46" x2="3236.56" y2="126.46" xlink:href="#linear-gradient"/><linearGradient id="linear-gradient-12" x1="3395.57" y1="132.82" x2="3471.49" y2="132.82" xlink:href="#linear-gradient"/><linearGradient id="linear-gradient-13" x1="3221.35" y1="169.11" x2="3272.01" y2="169.11" xlink:href="#linear-gradient"/><linearGradient id="linear-gradient-14" x1="3257.68" y1="108.29" x2="3311.01" y2="108.29" xlink:href="#linear-gradient"/><linearGradient id="linear-gradient-15" x1="3193.53" y1="85.03" x2="3259.83" y2="85.03" xlink:href="#linear-gradient"/><linearGradient id="linear-gradient-16" x1="3322.91" y1="267.7" x2="3433.92" y2="267.7" xlink:href="#linear-gradient"/><linearGradient id="linear-gradient-17" x1="3166.69" y1="160.69" x2="3216.55" y2="160.69" xlink:href="#linear-gradient"/><linearGradient id="linear-gradient-18" x1="3192.82" y1="149.22" x2="3235.7" y2="149.22" xlink:href="#linear-gradient"/><linearGradient id="linear-gradient-19" x1="3161.13" y1="63.54" x2="3207.23" y2="63.54" xlink:href="#linear-gradient"/><linearGradient id="linear-gradient-20" x1="3403.98" y1="208.72" x2="3432.87" y2="208.72" xlink:href="#linear-gradient"/><linearGradient id="linear-gradient-21" x1="3364.41" y1="216.16" x2="3413.02" y2="216.16" xlink:href="#linear-gradient"/><linearGradient id="linear-gradient-22" x1="3372.19" y1="178.99" x2="3423.14" y2="178.99" xlink:href="#linear-gradient"/><linearGradient id="linear-gradient-23" x1="3199.48" y1="53.84" x2="3223.65" y2="53.84" xlink:href="#linear-gradient"/><linearGradient id="linear-gradient-24" x1="3404.77" y1="185.88" x2="3446.16" y2="185.88" xlink:href="#linear-gradient"/><linearGradient id="linear-gradient-25" x1="3188.92" y1="127.38" x2="3239.99" y2="127.38" xlink:href="#linear-gradient"/><linearGradient id="linear-gradient-26" x1="3154.19" y1="22.62" x2="3212.72" y2="22.62" xlink:href="#linear-gradient"/><linearGradient id="linear-gradient-27" x1="3189.96" y1="198.38" x2="3266.41" y2="198.38" xlink:href="#linear-gradient"/><linearGradient id="linear-gradient-28" x1="3350.23" y1="229.68" x2="3386.82" y2="229.68" xlink:href="#linear-gradient"/><linearGradient id="linear-gradient-29" x1="3360.24" y1="176.05" x2="3420.86" y2="176.05" xlink:href="#linear-gradient"/><linearGradient id="linear-gradient-30" x1="3167.24" y1="27.67" x2="3215.51" y2="27.67" xlink:href="#linear-gradient"/><linearGradient id="linear-gradient-31" x1="3286.5" y1="156.69" x2="3308.95" y2="156.69" xlink:href="#linear-gradient"/><linearGradient id="linear-gradient-32" x1="3217.69" y1="162.55" x2="3244.97" y2="162.55" xlink:href="#linear-gradient"/><linearGradient id="linear-gradient-33" x1="3363.49" y1="201.22" x2="3393.67" y2="201.22" xlink:href="#linear-gradient"/><linearGradient id="linear-gradient-34" x1="3230.64" y1="122.45" x2="3262.45" y2="122.45" xlink:href="#linear-gradient"/><linearGradient id="linear-gradient-35" x1="3412.87" y1="272.25" x2="3450.01" y2="272.25" xlink:href="#linear-gradient"/><linearGradient id="linear-gradient-36" x1="3210.16" y1="142.28" x2="3234.09" y2="142.28" xlink:href="#linear-gradient"/><linearGradient id="linear-gradient-37" x1="3147.61" y1="72.78" x2="3177.96" y2="72.78" xlink:href="#linear-gradient"/><linearGradient id="linear-gradient-38" x1="3249.47" y1="208.54" x2="3281.83" y2="208.54" xlink:href="#linear-gradient"/><linearGradient id="linear-gradient-39" x1="3146.82" y1="49.29" x2="3163.02" y2="49.29" xlink:href="#linear-gradient"/><linearGradient id="linear-gradient-40" x1="3162.11" y1="177.12" x2="3183.55" y2="177.12" xlink:href="#linear-gradient"/><linearGradient id="linear-gradient-41" x1="3347.94" y1="198.4" x2="3363.03" y2="198.4" xlink:href="#linear-gradient"/><linearGradient id="linear-gradient-42" x1="3398.37" y1="189.14" x2="3410.49" y2="189.14" xlink:href="#linear-gradient"/><linearGradient id="linear-gradient-43" x1="3238.43" y1="145.26" x2="3251.97" y2="145.26" xlink:href="#linear-gradient"/><linearGradient id="linear-gradient-44" x1="3216.2" y1="175.51" x2="3246.92" y2="175.51" xlink:href="#linear-gradient"/><linearGradient id="linear-gradient-45" x1="3162" y1="46.31" x2="3188.57" y2="46.31" xlink:href="#linear-gradient"/><linearGradient id="linear-gradient-46" x1="3194.25" y1="33.74" x2="3203.18" y2="33.74" xlink:href="#linear-gradient"/><linearGradient id="linear-gradient-47" x1="3449.21" y1="208.62" x2="3460.52" y2="208.62" xlink:href="#linear-gradient"/><linearGradient id="linear-gradient-48" x1="3170.58" y1="80.54" x2="3188.59" y2="80.54" xlink:href="#linear-gradient"/><linearGradient id="linear-gradient-49" x1="3423.5" y1="171.92" x2="3431.21" y2="171.92" xlink:href="#linear-gradient"/><linearGradient id="linear-gradient-50" x1="3243.56" y1="132.59" x2="3255.72" y2="132.59" xlink:href="#linear-gradient"/><linearGradient id="linear-gradient-51" x1="3216.22" y1="19.07" x2="3223.28" y2="19.07" xlink:href="#linear-gradient"/><linearGradient id="linear-gradient-52" x1="3222.08" y1="150.4" x2="3233.78" y2="150.4" xlink:href="#linear-gradient"/></defs><g id="Layer_2" data-name="Layer 2"><g id="Layer_1-2" data-name="Layer 1"><path class="cls-1" d="M88.43,155.93c1.88-21.41,12.86-30.5,33.91-27.61a8.18,8.18,0,0,0,6-1.7c10.25-9.75,22.38-12.59,36.24-12.25,7.73.18,16.35-.91,23.09-4.33,9-4.57,17.11-8,27.53-1.84-1-5.58-1-9.84-2.55-13.5-2.74-6.66-2.4-11.36,5.68-12.79-.39-4.42-.74-8.34-1.13-12.82h7.35c.81-6.88,1.57-13.26,2.56-21.62,5.33,4.52,8.62,7.73,12.33,10.34,6.51,4.58,13.39,8.65,19.88,13.26,2.22,1.58,3.74,4.15,6.05,6.81,6.29-7.26,9.11-3,11.55,2.51C279.28,85.7,281.66,91,284.8,98l44.42-23.61C320.61,66,320.65,66,320,55.18c-.06-.9-1.41-1.75-1.41-2.62a57.71,57.71,0,0,1,.74-7.05c.3-2.3,1.15-4.64.9-6.88-.27-2.5-1.74-4.85-2.25-7.35a40.79,40.79,0,0,1-.34-6.56c2.4.27,5.09-.07,7.14.92,5.32,2.57,10.36,5.73,15.51,8.65l.14-1.84,12.75,1.46c4.38-13.32,9.09,1.6,13.93,2.23,0-5.62,0-10.77,0-15.92,0-8.81,2.73-11.86,11.65-13.26a11.53,11.53,0,0,0,4-2.06c10.74-6.88,37.65-6.43,47.84.83a6.89,6.89,0,0,1,1.78,1.46c4.48,6.43,8.9,12.9,13.54,19.65l6.65-2.2c-.72,11-1.4,21.36-2.07,31.73l2.19-1.24c2.72,1.57,5.39,3.2,8.16,4.66,1,.51,2.47,1.16,3.18.77,6.62-3.72,8,.17,7.84,5.44l21.31,4.18.88,2.57c-4.3,4.16-8.66,8.26-12.86,12.52a15.81,15.81,0,0,0-2.94,4.51c-1,2.11-1.17,4.66-2.44,6.49s-3.44,3-5.15,4.34c1.21,2.17,2.26,4,4.42,7.88l-35.32,11.56c5.83,10.78-.56,23.61.44,36.14.09,1.19-2,2.42-2.43,3.83-1.69,5.57-3.68,11.13-4.54,16.86-1.29,8.53-1.54,17.21-2.58,25.79-.51,4.31-3.1,8.73-2.46,12.73,1.27,7.93-2.41,11.58-9,13.65a117.89,117.89,0,0,1-11.94,2.87c-9.49,1.94-19,3.78-28.73,5.71,5.21,13.42,5.21,13.42-1.23,17.6,7.8,15.56,7.69,16-5.3,17.91,1.17,4.79,2.35,9.58,3.8,15.53l-9.46-1.36a227.64,227.64,0,0,1,.36,42.54l-2.62.78L335.3,296.11l-4.44,7.52-15.37-17.94c-1.43,4.59-2.54,8.16-4.32,13.9l-16.69-16.3c-2.07,3.37-4,6.35-5.75,9.39-2.42,4.16-5.76,8.12-6.88,12.62-2.15,8.65-7.2,13.91-15.63,14.88-14.54,1.67-29.17,2.51-43.78,3.59-16.67,1.24-33.43,1.67-50,3.75-10.37,1.3-18.59,0-25.57-8.33-7.35-8.78-17.49-13-28.24-15.91l-13,27.54c-9.48-14-17.81-4.15-26.36.1l-4.82-8.18-23,13.94v-34.2l-8.7,1c1.56-21.49.11-42.24.9-63.33H31.17l3.25-9.84L0,211c10.91-8.21,20.14-15,29.18-22.07,1.74-1.36,4.32-4.24,3.88-5.41-3.09-8,2.11-9.22,7.75-10.51,3.94-.91,7.81-2.09,11.72-3.14-2.54-8.31-1.38-10.41,6.39-8.68s15.25,5.5,25.52,9.37C85.66,166.22,88,161.16,88.43,155.93ZM280.84,276.11c-14.55,13.18-31.86,17.47-50.9,15.27-7.31-.85-14.41-3.38-21.7-4.55-18.93-3-38.63-1.45-56.69-9.59-5.16-2.33-10.42-4.48-15.37-7.19s-9.06-5.9-9.66-12.74-6.77-10.08-12.8-12c-6.58-2.13-13.36-3.62-20-5.38-5.83,8.89-4.19,27,3,34.34a46,46,0,0,1,6.26,7.75c6.66,10.92,16.58,16.75,28.53,20.74a43.64,43.64,0,0,1,17,11.21c6.59,6.94,13.08,9.7,23.06,8.89,24.85-2,49.85-2.33,74.78-3.45,4.1-.19,8.15-1.34,12.25-1.58,11.43-.67,19-5.4,20.6-17.66.33-2.56,2.28-5.32,4.25-7.17,6.87-6.4,7.19-14.28,6.13-24.24C285.85,271.8,283.29,273.89,280.84,276.11ZM138.36,258.44c-7.18-7.66-10.67-16.65-12.44-26.89-1.52-8.79-4.44-17.35-7.15-27.57l11,3.49c1.47-9.7-1.82-18.09-7.13-25.67s-8.78-14.41-5.41-24.24c2.7-7.86,2.7-16.64,3.91-25.11C108.6,128.82,97,135.08,93.85,148c-1,4.22-.83,8.75-1.91,13-.92,3.57-2.19,7.46-4.5,10.2-10.4,12.38-14,26.75-10.42,42,3.14,13.11,13.7,20.74,26,25.47,3.58,1.37,7.54,1.73,11.24,2.84,8.7,2.61,14.93,7.3,16.62,17.21.56,3.3,4.39,6,6.73,9l3.18-1.59C140,263.49,140,260.2,138.36,258.44Zm104.89-80.6c2.06-.53,4.5-1.17,6.29-.48.87.34.93,3.59.81,5.49-.68,11.29-1.32,22.58-2.36,33.84-.81,8.73-2.17,17.41-3.38,26.91,2.52-1,6.84-1.61,9.65-4,19.26-16.45,25.64-38.32,22.93-62.48-2.4-21.43-17.3-34.05-36.27-41.36-6.87-2.64-15.11-1.72-22.73-2.4a2.46,2.46,0,0,0-1.51.25c-6.59,4.71-13.15,9.46-21.63,15.59,23.4-.2,40.82,5.71,43.68,31.31C240.76,179.27,241.91,178.18,243.25,177.84Zm165.31,15.21c-2.47,1.07-4.46,3.31-6.57,5.14-14.08,12.23-29.44,20.72-49.07,17.26a5,5,0,0,0-4,1.18c-5.72,6.57-12.32,4.31-19.28,2.78-6.46-1.42-13.19-1.66-19.8-2.42-.19.88-.39,1.76-.58,2.64,1.18.79,2.65,1.36,3.51,2.42,11.17,13.85,25,10.66,38.7,5.62,7.62-2.79,13.77-1.83,20.14,3.14,2.31,1.81,6.49,2.28,9.58,1.81,9.15-1.39,18.12-3.9,27.26-5.33,11.64-1.83,13.66-3.75,15.35-15.41.66-4.54,2.51-8.9,3.53-13.41,1.09-4.85,1.84-9.78,2.55-13.62C422.39,187.68,415.36,190.1,408.56,193.05Zm-143,88.7C284.32,271,298.17,256,300,232.65c.46-5.9,3.75-11.61,5.87-17.35,1.87-5,4.74-9.83,5.74-15,2.66-13.65-5.91-22.76-21.16-22.74,5.59,12.81,5.95,25.74,2.87,39.18-2.56,11.12-9.5,19.21-16.22,27.68-1.48,1.86-3.08,4.31-3.13,6.52-.26,12.82-7.07,21.9-20,25.57-9.17,2.6-18.41,4.95-27.61,7.42l.62,3.23C240.39,289.63,253.91,288.48,265.6,281.75Zm69.15-81.84c-1.91-1.25-4.75-1.88-5.72-3.61-5.49-9.84-12.3-19.31-10.53-31.65a26.37,26.37,0,0,0-.24-7.57c-1.31-8.7-1-16.78,5.67-23.73,2.16-2.24,2.62-6,4.35-8.81a68.45,68.45,0,0,1,7.48-10.15c3.51-3.85,7.49-7.27,11.35-11-8-6.84-19.53-7-26.15-1.68-4,3.22-8.58,5.69-12.71,8.74-7.27,5.37-10,12-6.59,20.26s2.64,16.09-.18,24c-1.6,4.48,0,7.23,2.63,11,5.64,8.17,10.21,17.12,14.82,26,5.36,10.27,13.24,15.48,26.4,15.31C340.87,204,337.84,201.92,334.75,199.91Zm-43.13-1.08c-.44-8.8-2.2-17.19-10.13-25,0,4.16.32,6.8-.06,9.35-1.53,10.36-3.23,20.7-5,31-.9,5.39-2.22,10.72-2.93,16.13-1,7.58-5.18,12.52-12.37,14.1-18.26,4-36.33,5.55-54.69-1.19-15.16-5.56-31-9.26-46.61-13.62-2.4-.67-5.05-.45-7.58-.64-.31.68-.61,1.37-.92,2.05,5,2.46,9.72,5.58,14.93,7.25,11,3.53,22.33,6.23,33.47,9.42,4.2,1.21,8.32,2.72,12.38,4.34,8,3.19,14.64,7.77,15.27,17.93C261.79,259.24,293.25,231.82,291.62,198.83Zm-81,57c-12.59-4.4-25.43-8.23-38.38-11.43-12.71-3.14-23.3-9-31.77-19.11a56.33,56.33,0,0,0-15.35-12.8c2.69,10.36,4.94,20.86,8.19,31,3.55,11.08,8.95,12.61,20.13,13.72,12.84,1.28,25.28,6.16,38.08,8.41,9.17,1.61,18.65,1.48,28,2,.66,0,1.36-.57,5-2.23C219,261.47,215.24,257.41,210.65,255.8Zm61.42-117.18c-10.44-9.14-21.42-16.6-35.35-19.59-8.43-1.82-16.62-5.06-24.66-8.3-6.71-2.7-12.56-3.06-19,1.11-4.78,3.11-10.52,4.72-15.72,6.94,6.89,6,14.08,12.14,21.15,18.43,4.06,3.6,8.28,1.5,9.88-1.57,3.51-6.75,9.46-6.86,15.17-6.81,24.2.19,41.26,12.39,53.14,32.76,1.25,2.16,2.25,4.47,3.37,6.71l2-.75C281.33,157.09,281.29,146.69,272.07,138.62ZM120.23,163.08c-.73,4,1.11,9.27,3.42,12.91,3.55,5.58,9,9.95,12.78,15.41s6.49,11.44,9.67,17.21l2.31-.05c.79-9.25,2.32-18.52,2.17-27.75-.19-11.89,0-23.27,10.25-32.2C142.62,136.07,123.88,143.07,120.23,163.08Zm263.51-59.59c4.38,1.48,7.76,6,11.5,9.3,5.05,4.41,10,9,15,13.39,3.56,3.13,8.08,5.56,10.67,9.33,4.6,6.75,8.07,14.28,12.18,21.77.48-.29,1.25-.47,1.53-.95,4-6.67,2.05-29.77-1.79-36.29-8.86-15-22.15-19.74-38.74-19.57-7.32.07-14.63-2.57-22-3.65-4.76-.7-9.6-.81-14.4-1.19l0,2.22C366.44,99.63,375.39,100.67,383.74,103.49Zm-223.2,40.05c2.08,1.2,5.08,1,7.67,1.08,6.53.11,13.08.11,19.61-.09,3.05-.1,6.09-.77,10.87-1.42-13.41-14.54-26.3-24.26-44.58-24.57-12.93-.22-28.05,12.67-31.33,28.56C135.85,135.84,145.93,135.14,160.54,143.54ZM322.4,151c-.42,5.81.25,11.68,0,17.5-.29,6,2.65,10,7.68,12.19,8,3.43,14.16,8.59,19.63,15.49,7.53,9.48,17.9,6.13,23.23-6.78q-6.76-2.37-13.52-4.74c-9.92-3.53-15.81-11-20-20.25-2.14-4.75-4.61-9.35-6.78-14.09-2-4.38-3.83-8.86-5.73-13.29l-2-.35C324.06,141.41,322.74,146.15,322.4,151Zm-28.12-25.31c2.5-9.1,6.64-16.35,15.08-21.28,7-4.12,14.05-8.65,20-14.14,3.68-3.38,5.4-8.91,7.2-14.82-7.08,3.79-14.09,7.73-21.27,11.32C306.4,91.19,297.13,95,288.5,99.91c-2.64,1.51-5.77,6.52-5.06,8.78a39.86,39.86,0,0,1,0,24.14c-.64,2.19.4,4.87.66,7.32l3,1C289.59,136,292.79,131.07,294.28,125.65ZM357,93c9.2-2.53,20.12,1.14,30.3,2.16,3.72.37,7.44.87,13.47,1.59-7.67-7.3-10.62-16-21.13-16.6-4.57-.27-8.79-4.24-13.45-5.48-15.25-4.05-23,.44-31.72,18.1C342.34,95.25,348.85,95.24,357,93ZM211.81,282.71c7.12-.31,14.12-3.37,21.17-5.21,3.69-1,7.3-2.43,11-2.9,9-1.13,17.13-4.07,22.69-11.6,2-2.65,2.81-6.14,4.64-10.36l-43.06,23.18c-4.07-2.07-6.59-4.51-8.34-4.05-13.31,3.54-25.47-.6-37.74-4.67-7-2.32-14.06-4.47-21.09-6.7l-.77,2.18C176.83,271,191.84,283.58,211.81,282.71ZM411.06,174.6c4.08-4.2,9-7.6,13.25-11.6,1.48-1.38,3.68-4.19,3.19-5.11-4.38-8.37-9.23-16.5-14.11-24.6-.53-.89-2.06-1.19-2.56-1.46-2,12.13-3.74,23.9-5.87,35.61a8.45,8.45,0,0,1-3.55,4.94c-5.68,3.52-11.8,6.34-17.37,10-2.56,1.68-4.24,4.69-6.33,7.1C392.21,190.28,402.2,183.75,411.06,174.6Zm-12-6.06c2.65-2.72,3.09-13.63,1.19-17-2.79-4.89-5.28-10-7.62-15.1-5.63-12.34-22-17.79-34.09-10.19,2.23.18,3.47.36,4.7.37a25.28,25.28,0,0,1,23.47,16.41c1.92,5.31,2.05,10.25-2.4,15-4.14,4.42-7.34,9.74-11.25,15.06C383.71,177.56,391.69,176.16,399.09,168.54Zm-6.84-118c5.89,9.81,10.17,19.71,4.33,31.29-.79,1.57,1.05,4.48,1.37,5.64,8.88-6.27,17.32-11.34,24.63-17.72,4.57-4,7.42-9.95,10.56-16.56-18.78,6.92-32.83.72-44.41-13.62l-1.7,2C388.77,44.58,390.47,47.59,392.25,50.56ZM164.54,220.66c.39,2.7,4.28,5.78,7.26,7,5.14,2.14,10.82,3,18.49,4.9-.73-5-.16-9.85-2.12-13.16-7-11.78-14.87-23.06-22.41-34.53L161.39,186C162.34,197.57,162.86,209.2,164.54,220.66Zm16.71-24.18a70.86,70.86,0,0,0,3.17,8c4.54,8.48,11.46,15.92,10.08,26.86-.15,1.23,6.61,5.21,7.78,4.41,10.24-7,24.18-10.17,27.58-25.86C209.85,217.3,194.92,210.94,181.25,196.48ZM213.37,166c-12.56-6.57-29.67-2.89-38.45,8.28-5.68,7.22-5.12,13.5,2.64,21,.94-4.64,1.68-8.73,2.6-12.78,1.67-7.33,7.38-10.49,14.5-8.29a13.27,13.27,0,0,0,5.64.78c12.63-1.91,16.69,2.21,14.22,14.63-.24,1.21-.32,2.45-.63,5C225.32,185.8,224.43,171.76,213.37,166ZM374.27,64.11c.71,4.25,3,9.52,6.31,11.69s8.79,1,13.32,1.38c.26-3.94,1.39-8.07.61-11.79-2.2-10.54-12.65-25.64-23.89-34.89C371.87,42.81,372.49,53.56,374.27,64.11ZM327.71,243.6c2.67-6.35-2.68-7-7.57-9.79-5.06,10.07-10,19.79-14.83,29.55-1,2.06-1.84,4.24-2.75,6.36-5.09,11.85-5.09,11.85,5.66,19.72C314.72,274.17,321.26,258.91,327.71,243.6ZM159.34,168c.06-5.07,2.58-8.52,8.16-9.71a118.82,118.82,0,0,0,22-6.95c-6.51-6-13.2-5.61-20.14-2.67-7.94,3.36-13.48,8.92-14.17,17.75-.83,10.5-.68,21.08-1.45,31.59a36.46,36.46,0,0,1-3.12,11.87c-5,11.15-2.83,14.95,8.65,15.3C159.26,205.74,159.14,186.87,159.34,168ZM387.59,110.8c-5.38-7.88-15.48-4-23.63-1.15-5.82,2.06-9.59,5.74-9.68,12.49,27-11.93,40.21,3,49.19,26.48C410.74,129.92,395.07,121.76,387.59,110.8Zm28.85-98.48c16.74,2.23,12.6,19.44,17.86,30.26,7.71-10.35,7.77-13.88-.19-25-2.7-3.77-6-9.55-9.44-9.93-11.9-1.26-23.53-9.11-36-2.1-5,2.81-7.58,6.45-7.05,13.54C391.14,3.52,404.78,10.76,416.44,12.32Zm-39.3,183.15c-1.54.41-2.88,2-4.08,3.22-9.17,9.55-20.37,8.72-28.86-1.54-3.91-4.71-9-8.43-13.57-12.6L327.85,187c1.95,2.47,3.57,5.34,5.93,7.33,5.4,4.57,11.57,8.29,16.67,13.15,3.91,3.74,7.67,5.33,13,4.58a61.7,61.7,0,0,0,40.83-23.13C395.2,191.06,386.13,193.12,377.14,195.47Zm-169.7,42.79c8.74,5.57,18.75,8.21,27.1,4.44,11.92-5.38,9.36-17.92,9.05-27.81Zm11.29-81.93c-17-6.43-38.11-1.74-45.32,13.21,9.61-8.35,19.07-11.35,30-10.29,13.63,1.32,20.81,8,23,21.55,1,6,3.28,11.87,5,17.79C237.66,181.23,232.48,161.52,218.73,156.33ZM74,222.68c1-4.2-1.72-9.23-2.73-13.87-2.55.63-6.3.42-7.46,2A252.81,252.81,0,0,0,48.67,234.9c-1.53,2.75-1.14,6.55-1.87,11.54C61.27,242.18,71,235.63,74,222.68Zm257.59,23.83c-4.87,10.95-11,20.7-13.08,31.24-.95,4.81,6.12,11.2,9.55,16.88l2.33-.78C331.46,278.61,343.71,264.13,331.58,246.51ZM76.17,255.33c-1-1.25-2.89-1.84-4.4-2.68a44.68,44.68,0,0,1-8.83-5.83c-12,1.77-15.23,5.67-15.77,18.19l38.35,2.34C83,264.07,79.73,259.58,76.17,255.33ZM427,28.2c-.1-6.22-6.43-11.94-12.65-12.73-5.81-.75-11.59-1.77-17.42-2.22-1.76-.14-3.85.89-5.39,2-2.52,1.74-4.62,4.08-7.06,5.94-7.57,5.74-7.71,9.22-.1,15.84,1.1-3,2.1-5.87,3.24-8.69,2.58-6.4,6.81-9.41,13.95-7a15.6,15.6,0,0,0,6,.52c10-.71,13.06,2.78,11.11,12.82-.43,2.2-.83,4.4-1.4,7.46C424.7,39.51,427.12,34.29,427,28.2ZM287.28,145.76a15.58,15.58,0,0,0-2,8.34c.18,9.66-1.93,21,13.69,20.82,2.24,0,4.5,1.93,8.75,3.88-2.63-4.25-3.65-7.38-5.8-9.07-7-5.48-6.41-11.78-4.07-19.31,1.54-5,1.13-10.52,1.6-15.81l-2.9,0C293.44,138.28,289.9,141.72,287.28,145.76Zm48.39,96c13.83,2.72,27.72,5.12,41.87,7.66-3.6-13-15.59-19.81-27.46-16.46-5.59,1.58-11.33,2.61-17.81,4.08C333.74,239.14,334.49,241.51,335.67,241.74Zm40.51,25.58c-.54-13.52-15.2-21.16-37.28-19.15C341.69,257.91,362.66,268.38,376.18,267.32ZM230.9,102.65c6.63.67,13.27,1.29,20.12,1.95C246.8,93.88,227.58,85,216.55,88.32,218.09,101.35,218.08,101.36,230.9,102.65ZM69,240.6c-.95,2,.59,7.34.69,7.33,8.91-.7,9.82,8.2,15,12.26,1.46-7.68,4.43-15.39,3.75-22.76-.4-4.35-6.6-8.15-9.92-11.9C74.81,231.23,71.38,235.66,69,240.6ZM229.28,113.25c15.84,3.56,31.23,7.88,44.2,21.72-7.65-21-21.55-28.1-53-26.58C223.41,110.06,226.15,112.55,229.28,113.25Zm113.16,184c5.34,5.38,9.33,12.1,13.93,18.21l2.22-1.13C353.29,299.69,348,285.08,342,268.4,337.9,279.71,333.55,288.28,342.44,297.23ZM316,231.1l-9.62-7.8c-1.13,4.21-1.78,7.11-2.68,9.92-2.87,9-6,17.83-8.64,26.87-1.11,3.87-1.09,8.07-1.58,12.12l2.48.2C302.57,258.83,309.16,245.25,316,231.1ZM91,278.32c-7.22,3.41-8.15,7.24-5.53,13.12,2.81,6.32,4.13,13.3,6.86,19.66,1.63,3.78,4.73,6.93,7.17,10.37l3.78-2.06C99.18,305.82,95.11,292.22,91,278.32Zm-35.07,2.23c-1.76-.24-4.92,1.64-5.61,3.3-1.71,4.14-2.37,8.71-2.77,13.82,9-5.53,22.48.73,29-12.9C69.24,283.2,62.62,281.47,55.89,280.55ZM360,154.49c-3.34-.55-7.13,1.59-10.72,2.52,1.3,2.88,1.83,6.69,4,8.48,10.7,8.75,20,6.19,23.25-5.46C371,158.09,365.67,155.44,360,154.49ZM68.45,204.17l3-2.12c-3.87-8.73-7-18-12.1-25.89-1.45-2.27-8.69-.81-13.27-1.06-.3,1-.61,2.05-.92,3.07ZM87.88,311.33c-2.93-6.74-5.09-13.81-8.61-20.57C72,302.35,79.15,313,80.43,324.45,88.09,322.12,91.07,318.67,87.88,311.33ZM450.14,112.89c-6.09-5.1-11-11.06-17.38-14-6-2.8-13.52-2.44-20.36-3.46L411.62,98C425.34,100.18,432.72,117.27,450.14,112.89ZM230.77,203.11l-5.84-9.79-24.34,11.41C208.56,211,221.74,210.59,230.77,203.11ZM254.44,98.37c10.19-18.74,9.61-18-3.79-28.44C244.93,81.45,245.84,88.24,254.44,98.37Zm109.18,5.18-.55-2.09c-4.18,1.38-9.7,1.54-12.29,4.37-9.63,10.51-25.36,18.79-16.21,37.62C336,124.08,350.8,114.56,363.62,103.55ZM263,110.37c11-12,13.56-21.87,8-30.33C261.5,85.85,256.91,103.33,263,110.37ZM77.75,280c2.49.33,5.44-2.81,10.24-5.51-15.1-4.47-27.72-7.54-40.89-.32C57.3,276.23,67.46,278.65,77.75,280Zm79.62-14.6a17.32,17.32,0,0,0-8.05-2.11,6.75,6.75,0,0,0-5,3.31c-.45.94,1.52,4.21,3,4.67,11.15,3.54,22.43,6.65,33.67,9.9l.44-2.27C173.4,274.41,165.48,269.75,157.37,265.43ZM278.16,129.91l2.43-.46-1.68-33.54-1.53-.57L266.77,115.6ZM435.3,95.29c7.1,5.17,13.06,10.52,20,14,2.7,1.37,7.5-1.4,11.34-2.28l0-2.69C456.3,102.27,450.21,88.24,435.3,95.29Zm-58.23,57.92c6.78-1.1,8.7-3.77,5.59-8.8a47.79,47.79,0,0,0-10-11.5c-4.63-3.82-10.19-.36-12.49,7.78C370,139.25,375.11,144.41,377.07,153.21ZM61.39,203.39c-7.81-8.74-15.08-16.89-23-25.71C36.76,193,47.83,205.55,61.39,203.39ZM416.3,87.67c18.12-1.88,31.6-14.63,30.26-26.79l-3.43-3Zm-71.5,127-29-14.29L312.44,214C324.21,208.41,334.25,221.6,344.8,214.64ZM73.59,188.87c6.73-15.71,2.48-22.07-14.48-22.88,4.34,7.95,8.87,16.27,13.46,24.69A16.62,16.62,0,0,0,73.59,188.87ZM447.45,31.69c-10.48,8.74-9.13,22.64-16.2,35.19C448.42,58.87,445.07,44.09,447.45,31.69ZM432.15,166c-12.11,2.47-22.47,14-21.35,22.29C424.29,186.55,424.76,174.44,432.15,166ZM106.59,315.26c8.62-7.2,8.81-13.42.94-21.21-3.08-3-5.8-6.45-9.4-10.5C101.12,294.76,103.85,305,106.59,315.26ZM231.24,217c9.7-5.07,11.52-9.63,15.08-37.2C234.57,191.12,240.46,206.94,231.24,217ZM184.1,182.43c-1.79,5.32,4,15,11.8,18.67-1.09-7.78-2.07-14.84-3.26-23.36C189,176.24,185.67,177.76,184.1,182.43Zm171.74-35.62V134.13c-10,4-15.2,12.62-13.07,22.25Zm-8.5,21.38c3.45,10.95,20.3,18.84,30.72,12.22Zm-2.17,95.08c3.26,11.76,15.05,12.62,24,19.34C367,267.23,353.79,268.18,345.17,263.27ZM442.36,86.94c9.5-1.33,17.37-18.67,11.81-27.46C449.88,69.45,446.27,77.86,442.36,86.94Zm25.42-8.81c3.52-1.51,7.06-3,11.41-4.83l-16.4-6.16c-1.7,3.69-4.07,8.87-7.52,16.41C460.88,81.12,464.32,79.61,467.78,78.13Zm-106.15,231c3.8-15.85-.26-27.83-10.78-30.71C354.49,288.8,358,298.84,361.63,309.14ZM33.78,191.48l-9,5.94c5.4,6.72,11,11,20.71,6.94ZM58,209.35c-11,4.79-12.31,17.49-19.35,25.5C50.12,230.33,53.57,219.49,58,209.35ZM322.9,60l0,2.8c10.23,4.79,20.6,1,30.93-.41l.27-2.39ZM432.26,47.48c-1.13-2.83-2.15-5.36-2.63-6.56L405.7,49.23C415.22,53.4,423.52,52,432.26,47.48ZM55.41,322.91c4.53-9,8.22-16.28,12.38-24.54C55.48,299.24,53.79,302.58,55.41,322.91ZM223.12,74.47c-.19,9.15,3.57,11.6,19.25,12.74C239.42,77.2,230.81,76.8,223.12,74.47ZM58,326c17-6.26,18-8.07,12.71-21.83ZM31.14,221.88c8,4.75,10.54,3,15.55-11.27C36.4,208.12,34.09,215.38,31.14,221.88ZM391.4,29.59c-1.48,6.72,2.52,11.27,8.62,15.22-.45-7.24-.84-13.61-1.37-22.15C395.64,25.41,391.93,27.15,391.4,29.59ZM145.06,221.78l-8.65-26.32-2.16.59C133.06,211.24,133.06,211.24,145.06,221.78ZM472,93c-10.24-6.48-11.36-6.66-19.47-2.62C463.64,99.79,464,99.83,472,93ZM359,35c-5.72,10.45-6.14,17.92-.67,22.1C358.62,49.6,366,43.14,359,35Zm46.72,50.64,1.56,2.19c8.76-.46,13.46-6.37,16.45-14.63Q414.68,79.45,405.67,85.66ZM367.56,45.1c-7.22,13.9-7,15.26,2.84,21.19C369.42,59,368.56,52.56,367.56,45.1ZM167.84,180.83c1.06-6.47,1.95-11.84,2.93-17.81C161.59,163.46,160.59,168.8,167.84,180.83ZM26.22,221l5-9.48-15.61,1-.48,1.86ZM350.7,126.47l-3.6-2.12-8.56,14.71,3.41,1.78Zm13-57.39c-4-3.24-17.94-2.47-28.61,2.13ZM378,10.81c-8.39,1.73-9.38,7.56-2.53,16.53C376.44,21.27,377.22,16.19,378,10.81ZM325,35.77c1.14,10.69,1.59,11.15,10.31,10.77Zm-2.86,13.9c7.18,8,15.11,4,22,5.62l.31-2.38Zm-86.61,11.7c2.2,4.7,4.39,9.41,7,15C248.56,66.91,239.28,65.44,235.49,61.37Zm135.26,93.14,1.43-2.2c-1.66-4.72-4-8.47-11.7-4.05ZM348.34,37.77c-5,4.91-5.87,8.94-.23,11.78l2.9-.83Zm132.46,40-16.07,6.47C473.92,89.1,476.4,81,480.8,77.75Z"/><path class="cls-2" d="M289.44,268.73c-3.59,3.07-6.15,5.16-8.6,7.38-14.55,13.18-31.86,17.47-50.9,15.27-7.31-.85-14.41-3.38-21.7-4.55-18.93-3-38.63-1.45-56.69-9.59-5.16-2.33-10.42-4.48-15.37-7.19s-9.06-5.9-9.66-12.74-6.77-10.08-12.8-12c-6.58-2.13-13.36-3.62-20-5.38-5.83,8.89-4.19,27,3,34.34a46,46,0,0,1,6.26,7.75c6.66,10.92,16.58,16.75,28.53,20.74a43.64,43.64,0,0,1,17,11.21c6.59,6.94,13.08,9.7,23.06,8.89,24.85-2,49.85-2.33,74.78-3.45,4.1-.19,8.15-1.34,12.25-1.58,11.43-.67,19-5.4,20.6-17.66.33-2.56,2.28-5.32,4.25-7.17C290.18,286.57,290.5,278.69,289.44,268.73Z"/><path class="cls-3" d="M140.78,266.08c-.76-2.59-.77-5.88-2.42-7.64-7.18-7.66-10.67-16.65-12.44-26.89-1.52-8.79-4.44-17.35-7.15-27.57l11,3.49c1.47-9.7-1.82-18.09-7.13-25.67s-8.78-14.41-5.41-24.24c2.7-7.86,2.7-16.64,3.91-25.11C108.6,128.82,97,135.08,93.85,148c-1,4.22-.83,8.75-1.91,13-.92,3.57-2.19,7.46-4.5,10.2-10.4,12.38-14,26.75-10.42,42,3.14,13.11,13.7,20.74,26,25.47,3.58,1.37,7.54,1.73,11.24,2.84,8.7,2.61,14.93,7.3,16.62,17.21.56,3.3,4.39,6,6.73,9Z"/><path class="cls-4" d="M238.73,180.51c2-1.24,3.18-2.33,4.52-2.67,2.06-.53,4.5-1.17,6.29-.48.87.34.93,3.59.81,5.49-.68,11.29-1.32,22.58-2.36,33.84-.81,8.73-2.17,17.41-3.38,26.91,2.52-1,6.84-1.61,9.65-4,19.26-16.45,25.64-38.32,22.93-62.48-2.4-21.43-17.3-34.05-36.27-41.36-6.87-2.64-15.11-1.72-22.73-2.4a2.46,2.46,0,0,0-1.51.25c-6.59,4.71-13.15,9.46-21.63,15.59C218.45,149,235.87,154.91,238.73,180.51Z"/><path class="cls-5" d="M429.85,184.85c-7.46,2.83-14.49,5.25-21.29,8.2-2.47,1.07-4.46,3.31-6.57,5.14-14.08,12.23-29.44,20.72-49.07,17.26a5,5,0,0,0-4,1.18c-5.72,6.57-12.32,4.31-19.28,2.78-6.46-1.42-13.19-1.66-19.8-2.42-.19.88-.39,1.76-.58,2.64,1.18.79,2.65,1.36,3.51,2.42,11.17,13.85,25,10.66,38.7,5.62,7.62-2.79,13.77-1.83,20.14,3.14,2.31,1.81,6.49,2.28,9.58,1.81,9.15-1.39,18.12-3.9,27.26-5.33,11.64-1.83,13.66-3.75,15.35-15.41.66-4.54,2.51-8.9,3.53-13.41C428.39,193.62,429.14,188.69,429.85,184.85Z"/><path class="cls-6" d="M227,287.15c13.4,2.48,26.92,1.33,38.61-5.4C284.32,271,298.17,256,300,232.65c.46-5.9,3.75-11.61,5.87-17.35,1.87-5,4.74-9.83,5.74-15,2.66-13.65-5.91-22.76-21.16-22.74,5.59,12.81,5.95,25.74,2.87,39.18-2.56,11.12-9.5,19.21-16.22,27.68-1.48,1.86-3.08,4.31-3.13,6.52-.26,12.82-7.07,21.9-20,25.57-9.17,2.6-18.41,4.95-27.61,7.42Z"/><path class="cls-7" d="M345.33,207c-4.46-3-7.49-5.12-10.58-7.13-1.91-1.25-4.75-1.88-5.72-3.61-5.49-9.84-12.3-19.31-10.53-31.65a26.37,26.37,0,0,0-.24-7.57c-1.31-8.7-1-16.78,5.67-23.73,2.16-2.24,2.62-6,4.35-8.81a68.45,68.45,0,0,1,7.48-10.15c3.51-3.85,7.49-7.27,11.35-11-8-6.84-19.53-7-26.15-1.68-4,3.22-8.58,5.69-12.71,8.74-7.27,5.37-10,12-6.59,20.26s2.64,16.09-.18,24c-1.6,4.48,0,7.23,2.63,11,5.64,8.17,10.21,17.12,14.82,26C324.29,202,332.17,207.21,345.33,207Z"/><path class="cls-8" d="M227.42,270c34.37-10.72,65.83-38.14,64.2-71.13-.44-8.8-2.2-17.19-10.13-25,0,4.16.32,6.8-.06,9.35-1.53,10.36-3.23,20.7-5,31-.9,5.39-2.22,10.72-2.93,16.13-1,7.58-5.18,12.52-12.37,14.1-18.26,4-36.33,5.55-54.69-1.19-15.16-5.56-31-9.26-46.61-13.62-2.4-.67-5.05-.45-7.58-.64-.31.68-.61,1.37-.92,2.05,5,2.46,9.72,5.58,14.93,7.25,11,3.53,22.33,6.23,33.47,9.42,4.2,1.21,8.32,2.72,12.38,4.34C220.14,255.22,226.79,259.8,227.42,270Z"/><path class="cls-9" d="M224.55,265.44c-5.57-4-9.31-8-13.9-9.64-12.59-4.4-25.43-8.23-38.38-11.43-12.71-3.14-23.3-9-31.77-19.11a56.33,56.33,0,0,0-15.35-12.8c2.69,10.36,4.94,20.86,8.19,31,3.55,11.08,8.95,12.61,20.13,13.72,12.84,1.28,25.28,6.16,38.08,8.41,9.17,1.61,18.65,1.48,28,2C220.21,267.71,220.91,267.1,224.55,265.44Z"/><path class="cls-10" d="M282,167.55c-.7-10.46-.74-20.86-10-28.93-10.44-9.14-21.42-16.6-35.35-19.59-8.43-1.82-16.62-5.06-24.66-8.3-6.71-2.7-12.56-3.06-19,1.11-4.78,3.11-10.52,4.72-15.72,6.94,6.89,6,14.08,12.14,21.15,18.43,4.06,3.6,8.28,1.5,9.88-1.57,3.51-6.75,9.46-6.86,15.17-6.81,24.2.19,41.26,12.39,53.14,32.76,1.25,2.16,2.25,4.47,3.37,6.71Z"/><path class="cls-11" d="M160.83,148.61c-18.21-12.54-37-5.54-40.6,14.47-.73,4,1.11,9.27,3.42,12.91,3.55,5.58,9,9.95,12.78,15.41s6.49,11.44,9.67,17.21l2.31-.05c.79-9.25,2.32-18.52,2.17-27.75C150.39,168.92,150.6,157.54,160.83,148.61Z"/><path class="cls-12" d="M357.74,97.85c8.7,1.78,17.65,2.82,26,5.64,4.38,1.48,7.76,6,11.5,9.3,5.05,4.41,10,9,15,13.39,3.56,3.13,8.08,5.56,10.67,9.33,4.6,6.75,8.07,14.28,12.18,21.77.48-.29,1.25-.47,1.53-.95,4-6.67,2.05-29.77-1.79-36.29-8.86-15-22.15-19.74-38.74-19.57-7.32.07-14.63-2.57-22-3.65-4.76-.7-9.6-.81-14.4-1.19Z"/><path class="cls-13" d="M122.78,147.1c13.07-11.26,23.15-12,37.76-3.56,2.08,1.2,5.08,1,7.67,1.08,6.53.11,13.08.11,19.61-.09,3.05-.1,6.09-.77,10.87-1.42-13.41-14.54-26.3-24.26-44.58-24.57C141.18,118.32,126.06,131.21,122.78,147.1Z"/><path class="cls-14" d="M324.94,136.64c-.88,4.77-2.2,9.51-2.54,14.32-.42,5.81.25,11.68,0,17.5-.29,6,2.65,10,7.68,12.19,8,3.43,14.16,8.59,19.63,15.49,7.53,9.48,17.9,6.13,23.23-6.78q-6.76-2.37-13.52-4.74c-9.92-3.53-15.81-11-20-20.25-2.14-4.75-4.61-9.35-6.78-14.09-2-4.38-3.83-8.86-5.73-13.29Z"/><path class="cls-15" d="M287.16,141.17c2.43-5.15,5.63-10.1,7.12-15.52,2.5-9.1,6.64-16.35,15.08-21.28,7-4.12,14.05-8.65,20-14.14,3.68-3.38,5.4-8.91,7.2-14.82-7.08,3.79-14.09,7.73-21.27,11.32C306.4,91.19,297.13,95,288.5,99.91c-2.64,1.51-5.77,6.52-5.06,8.78a39.86,39.86,0,0,1,0,24.14c-.64,2.19.4,4.87.66,7.32Z"/><path class="cls-16" d="M334.44,92.78c7.9,2.47,14.41,2.46,22.53.23,9.2-2.53,20.12,1.14,30.3,2.16,3.72.37,7.44.87,13.47,1.59-7.67-7.3-10.62-16-21.13-16.6-4.57-.27-8.79-4.24-13.45-5.48C350.91,70.63,343.19,75.12,334.44,92.78Z"/><path class="cls-17" d="M160.35,262.58c16.48,8.45,31.49,21,51.46,20.13,7.12-.31,14.12-3.37,21.17-5.21,3.69-1,7.3-2.43,11-2.9,9-1.13,17.13-4.07,22.69-11.6,2-2.65,2.81-6.14,4.64-10.36l-43.06,23.18c-4.07-2.07-6.59-4.51-8.34-4.05-13.31,3.54-25.47-.6-37.74-4.67-7-2.32-14.06-4.47-21.09-6.7Z"/><path class="cls-18" d="M377.71,189.48c14.5.8,24.49-5.73,33.35-14.88,4.08-4.2,9-7.6,13.25-11.6,1.48-1.38,3.68-4.19,3.19-5.11-4.38-8.37-9.23-16.5-14.11-24.6-.53-.89-2.06-1.19-2.56-1.46-2,12.13-3.74,23.9-5.87,35.61a8.45,8.45,0,0,1-3.55,4.94c-5.68,3.52-11.8,6.34-17.37,10C381.48,184.06,379.8,187.07,377.71,189.48Z"/><path class="cls-19" d="M373.09,173.12c10.62,4.44,18.6,3,26-4.58,2.65-2.72,3.09-13.63,1.19-17-2.79-4.89-5.28-10-7.62-15.1-5.63-12.34-22-17.79-34.09-10.19,2.23.18,3.47.36,4.7.37a25.28,25.28,0,0,1,23.47,16.41c1.92,5.31,2.05,10.25-2.4,15C380.2,162.48,377,167.8,373.09,173.12Z"/><path class="cls-20" d="M387,41.59c1.74,3,3.44,6,5.22,9,5.89,9.81,10.17,19.71,4.33,31.29-.79,1.57,1.05,4.48,1.37,5.64,8.88-6.27,17.32-11.34,24.63-17.72,4.57-4,7.42-9.95,10.56-16.56-18.78,6.92-32.83.72-44.41-13.62Z"/><path class="cls-21" d="M161.39,186c1,11.56,1.47,23.19,3.15,34.65.39,2.7,4.28,5.78,7.26,7,5.14,2.14,10.82,3,18.49,4.9-.73-5-.16-9.85-2.12-13.16-7-11.78-14.87-23.06-22.41-34.53Z"/><path class="cls-22" d="M229.86,209.87c-20,7.43-34.94,1.07-48.61-13.39a70.86,70.86,0,0,0,3.17,8c4.54,8.48,11.46,15.92,10.08,26.86-.15,1.23,6.61,5.21,7.78,4.41C212.52,228.77,226.46,225.56,229.86,209.87Z"/><path class="cls-23" d="M213.89,194.55c11.43-8.75,10.54-22.79-.52-28.58-12.56-6.57-29.67-2.89-38.45,8.28-5.68,7.22-5.12,13.5,2.64,21,.94-4.64,1.68-8.73,2.6-12.78,1.67-7.33,7.38-10.49,14.5-8.29a13.27,13.27,0,0,0,5.64.78c12.63-1.91,16.69,2.21,14.22,14.63C214.28,190.81,214.2,192.05,213.89,194.55Z"/><path class="cls-24" d="M370.62,30.5c1.25,12.31,1.87,23.06,3.65,33.61.71,4.25,3,9.52,6.31,11.69s8.79,1,13.32,1.38c.26-3.94,1.39-8.07.61-11.79C392.31,54.85,381.86,39.75,370.62,30.5Z"/><path class="cls-25" d="M159.26,225.17c0-19.43-.12-38.3.08-57.18.06-5.07,2.58-8.52,8.16-9.71a118.82,118.82,0,0,0,22-6.95c-6.51-6-13.2-5.61-20.14-2.67-7.94,3.36-13.48,8.92-14.17,17.75-.83,10.5-.68,21.08-1.45,31.59a36.46,36.46,0,0,1-3.12,11.87C145.66,221,147.78,224.82,159.26,225.17Z"/><path class="cls-26" d="M403.47,148.62c7.27-18.7-8.4-26.86-15.88-37.82-5.38-7.88-15.48-4-23.63-1.15-5.82,2.06-9.59,5.74-9.68,12.49C381.3,110.21,394.49,125.17,403.47,148.62Z"/><path class="cls-27" d="M381.61,19.08c9.53-15.56,23.17-8.32,34.83-6.76,16.74,2.23,12.6,19.44,17.86,30.26,7.71-10.35,7.77-13.88-.19-25-2.7-3.77-6-9.55-9.44-9.93-11.9-1.26-23.53-9.11-36-2.1C383.67,8.35,381.08,12,381.61,19.08Z"/><path class="cls-28" d="M404.31,188.89c-9.11,2.17-18.18,4.23-27.17,6.58-1.54.41-2.88,2-4.08,3.22-9.17,9.55-20.37,8.72-28.86-1.54-3.91-4.71-9-8.43-13.57-12.6L327.85,187c1.95,2.47,3.57,5.34,5.93,7.33,5.4,4.57,11.57,8.29,16.67,13.15,3.91,3.74,7.67,5.33,13,4.58A61.7,61.7,0,0,0,404.31,188.89Z"/><path class="cls-29" d="M243.59,214.89l-36.15,23.37c8.74,5.57,18.75,8.21,27.1,4.44C246.46,237.32,243.9,224.78,243.59,214.89Z"/><path class="cls-30" d="M231.39,198.59c6.27-17.36,1.09-37.07-12.66-42.26-17-6.43-38.11-1.74-45.32,13.21,9.61-8.35,19.07-11.35,30-10.29,13.63,1.32,20.81,8,23,21.55C227.4,186.84,229.7,192.67,231.39,198.59Z"/><path class="cls-31" d="M417.25,42.11c7.45-2.6,9.87-7.82,9.77-13.91s-6.43-11.94-12.65-12.73c-5.81-.75-11.59-1.77-17.42-2.22-1.76-.14-3.85.89-5.39,2-2.52,1.74-4.62,4.08-7.06,5.94-7.57,5.74-7.71,9.22-.1,15.84,1.1-3,2.1-5.87,3.24-8.69,2.58-6.4,6.81-9.41,13.95-7a15.6,15.6,0,0,0,6,.52c10-.71,13.06,2.78,11.11,12.82C418.22,36.85,417.82,39.05,417.25,42.11Z"/><path class="cls-32" d="M296.59,134.59c-3.15,3.69-6.69,7.13-9.31,11.17a15.58,15.58,0,0,0-2,8.34c.18,9.66-1.93,21,13.69,20.82,2.24,0,4.5,1.93,8.75,3.88-2.63-4.25-3.65-7.38-5.8-9.07-7-5.48-6.41-11.78-4.07-19.31,1.54-5,1.13-10.52,1.6-15.81Z"/><path class="cls-33" d="M376.57,160c-5.53-1.94-10.9-4.59-16.55-5.54-3.34-.55-7.13,1.59-10.72,2.52,1.3,2.88,1.83,6.69,4,8.48C364,174.24,373.36,171.68,376.57,160Z"/><path class="cls-34" d="M200.59,204.73c8,6.3,21.15,5.86,30.18-1.62l-5.84-9.79Z"/><path class="cls-35" d="M334.57,143.45c1.39-19.37,16.23-28.89,29.05-39.9l-.55-2.09c-4.18,1.38-9.7,1.54-12.29,4.37C341.15,116.34,325.42,124.62,334.57,143.45Z"/><path class="cls-36" d="M181.39,278.93c-8-4.52-15.91-9.18-24-13.5a17.32,17.32,0,0,0-8.05-2.11,6.75,6.75,0,0,0-5,3.31c-.45.94,1.52,4.21,3,4.67,11.15,3.54,22.43,6.65,33.67,9.9Z"/><path class="cls-37" d="M360.17,140.69c9.84-1.44,14.94,3.72,16.9,12.52,6.78-1.1,8.7-3.77,5.59-8.8a47.79,47.79,0,0,0-10-11.5C368,129.09,362.47,132.55,360.17,140.69Z"/><path class="cls-38" d="M443.13,57.9,416.3,87.67c18.12-1.88,31.6-14.63,30.26-26.79Z"/><path class="cls-39" d="M312.44,214c11.77-5.62,21.81,7.57,32.36.61l-29-14.29Z"/><path class="cls-40" d="M431.25,66.88c17.17-8,13.82-22.79,16.2-35.19C437,40.43,438.32,54.33,431.25,66.88Z"/><path class="cls-41" d="M410.8,188.26c13.49-1.71,14-13.82,21.35-22.29C420,168.44,409.68,180,410.8,188.26Z"/><path class="cls-42" d="M246.32,179.8c-11.75,11.32-5.86,27.14-15.08,37.2C240.94,211.93,242.76,207.37,246.32,179.8Z"/><path class="cls-43" d="M192.64,177.74c-3.68-1.5-7,0-8.54,4.69-1.79,5.32,4,15,11.8,18.67C194.81,193.32,193.83,186.26,192.64,177.74Z"/><path class="cls-44" d="M342.77,156.38l13.07-9.57V134.13C345.79,138.08,340.64,146.75,342.77,156.38Z"/><path class="cls-45" d="M378.06,180.41l-30.72-12.22C350.79,179.14,367.64,187,378.06,180.41Z"/><path class="cls-46" d="M405.7,49.23c9.52,4.17,17.82,2.72,26.56-1.75-1.13-2.83-2.15-5.36-2.63-6.56Z"/><path class="cls-47" d="M398.65,22.66c-3,2.75-6.72,4.49-7.25,6.93-1.48,6.72,2.52,11.27,8.62,15.22C399.57,37.57,399.18,31.2,398.65,22.66Z"/><path class="cls-48" d="M134.25,196.05c-1.19,15.19-1.19,15.19,10.81,25.73l-8.65-26.32Z"/><path class="cls-49" d="M423.68,73.22q-9,6.23-18,12.44l1.56,2.19C416,87.39,420.69,81.48,423.68,73.22Z"/><path class="cls-50" d="M170.77,163c-9.18.44-10.18,5.78-2.93,17.81C168.9,174.36,169.79,169,170.77,163Z"/><path class="cls-51" d="M342,140.84l8.75-14.37-3.6-2.12-8.56,14.71Z"/><path class="cls-52" d="M375.51,27.34c.93-6.07,1.71-11.15,2.53-16.53C369.65,12.54,368.66,18.37,375.51,27.34Z"/><path class="cls-53" d="M360.48,148.26l10.27,6.25,1.43-2.2C370.52,147.59,368.21,143.84,360.48,148.26Z"/></g></g></svg>