<svg xmlns="http://www.w3.org/2000/svg" xmlns:xlink="http://www.w3.org/1999/xlink" viewBox="0 0 491.41 1054.53"><defs><style>.cls-1{fill:#1a1a1a;}.cls-2{fill:url(#linear-gradient);}.cls-3{fill:url(#linear-gradient-2);}.cls-4{fill:url(#linear-gradient-3);}.cls-5{fill:url(#linear-gradient-4);}.cls-6{fill:url(#linear-gradient-5);}.cls-7{fill:url(#linear-gradient-6);}.cls-8{fill:url(#linear-gradient-7);}.cls-9{fill:url(#linear-gradient-8);}.cls-10{fill:url(#linear-gradient-9);}.cls-11{fill:url(#linear-gradient-10);}.cls-12{fill:url(#linear-gradient-11);}.cls-13{fill:url(#linear-gradient-12);}</style><linearGradient id="linear-gradient" x1="223.43" y1="433.17" x2="480.08" y2="433.17" gradientUnits="userSpaceOnUse"><stop offset="0" stop-color="#ed213a"/><stop offset="1" stop-color="#93291e"/></linearGradient><linearGradient id="linear-gradient-2" x1="192.71" y1="90.74" x2="442.19" y2="90.74" xlink:href="#linear-gradient"/><linearGradient id="linear-gradient-3" x1="105.72" y1="405.38" x2="447.49" y2="405.38" xlink:href="#linear-gradient"/><linearGradient id="linear-gradient-4" x1="82.39" y1="87.52" x2="420.39" y2="87.52" xlink:href="#linear-gradient"/><linearGradient id="linear-gradient-5" x1="82.26" y1="160.54" x2="154.82" y2="160.54" xlink:href="#linear-gradient"/><linearGradient id="linear-gradient-6" x1="130.36" y1="463.03" x2="193.48" y2="463.03" xlink:href="#linear-gradient"/><linearGradient id="linear-gradient-7" x1="14.55" y1="469.21" x2="51.02" y2="469.21" xlink:href="#linear-gradient"/><linearGradient id="linear-gradient-8" x1="146.12" y1="36.52" x2="209.01" y2="36.52" xlink:href="#linear-gradient"/><linearGradient id="linear-gradient-9" x1="100.55" y1="471.46" x2="130.84" y2="471.46" xlink:href="#linear-gradient"/><linearGradient id="linear-gradient-10" x1="92.66" y1="53.92" x2="130.43" y2="53.92" xlink:href="#linear-gradient"/><linearGradient id="linear-gradient-11" x1="92.43" y1="80.85" x2="122.23" y2="80.85" xlink:href="#linear-gradient"/><linearGradient id="linear-gradient-12" x1="155.91" y1="112.31" x2="184.31" y2="112.31" xlink:href="#linear-gradient"/></defs><g id="Layer_2" data-name="Layer 2"><g id="Layer_1-2" data-name="Layer 1"><path class="cls-1" d="M85.75,216.46c-2.81,2-3.71,2.86-4.75,3.43-5.46,3-11.36,9-16.36,8.35-8.9-1.18-21-18.37-19.47-26.24.87-4.36,5.58-9.16,9.82-11.44,13.12-7.07,26.83-13,41.17-19.83-4.87-6.4-8.12-10.85-11.56-15.15-14.36-17.92-11.8-31,8.38-42.28,2.77-1.54,5.55-3.06,8.73-4.81-5.45-10.61-11.1-20.93-16.12-31.55-8-17,.57-33,19.17-36.46,4.3-.79,8.64-1.39,12.89-2.38,11.13-2.59,20.68-1.66,25.29,13.11C155.71,36,167.38,22.56,178.59,8.71c8.31-10.27,16.62-11.53,28.72-3.4C217.86,12.4,221.39,23.2,214,32.89,205.45,44.2,195,54.07,185.14,64.43c-3.44,3.62-7.32,6.82-13.7,12.71,6.88-.58,10.27-.39,13.41-1.2,36.93-9.43,73.86-18.87,110.65-28.83,3-.81,6.6-5.25,7.07-8.42,1.22-8.27,5.13-13.47,13.17-14.71a210,210,0,0,1,26-2.39c10.27-.28,16.09,5.71,18,14.33,20.39,0,40.16.34,59.9-.13,10.49-.25,15.89,3.36,20.22,13.68,9.36,22.29,20.8,43.73,31.75,65.34,4.87,9.59-.67,23.54-11.17,26.11-4.24,1-8.61,1.59-12.93,2.26-3.88.6-7.79,1.07-15.26,2.08,5.81,9.23,9.76,17.42,15.46,24.11,7.37,8.67,9.32,20.36,4,32.12a33.68,33.68,0,0,0-3.36,13.39c0,23.06.32,46.12.93,69.16a14.72,14.72,0,0,0,3.74,9.25c14.26,14.18,16.19,22.34,1.94,34.59-14,12.05-13.54,27.52-17.49,43.6,21.58,5.06,29.69,22.84,39,39.46,4.84,8.68,11.08,17.11,13.47,26.47s1.44,20,.46,29.89c-.18,1.84-7.56,4.49-11.42,4.21-42.81-3.14-85.53-8.27-128.39-9.9-46.86-1.78-91.2,11.57-134.07,29.55-3.23,1.36-6.3,5.66-7.36,9.21-9.62,32.27-18.47,64.77-28.29,97-2.05,6.73-.59,10.18,3.54,15.49,9.42,12.11,17.48,25.31,25.72,38.31,6,9.46,4.76,19.09-1.43,28-26.43,38-42.72,80.62-56.69,124.21-4.89,15.25-13.7,24.62-29.46,27.53-4.28.8-8.45,2.21-12.64,3.43-25.14,7.31-24.74,7.64-27.09,35.08-2.38,27.7-4.37,55.64-9.7,82.85-6.14,31.32-12.17,62.42-11.62,94.47,0,2.22-.38,4.45-.7,7.84-2.35-1.12-4.17-1.38-4.82-2.39-26-40.57-40.31-84.39-35.68-133.11a21.92,21.92,0,0,1,5.91-12.22c17.19-17.55,18.72-34.75,4.9-55.1-1.85-2.72-.48-7.43-1.33-11.05-1.35-5.79-1.61-13.1-5.29-16.9C2.25,800.9-5.56,775.18,4,744.13c13-42.16,26.87-83.81,48.5-122.69,14-25.23,34.85-35.41,62.35-36.07,3.45-.08,8.86-2.56,9.89-5.25,6.66-17.33,12.35-35,17.87-51.18-21.34-7.18-20.17-30.3-33.94-42.27l-26.57,6a10.52,10.52,0,0,0-1.33,2c-3.32,9.1-4.32,23.73-10.35,26.22-13.42,5.53-29.32,5.41-44.28,6.53-2.46.18-6.35-4.54-7.83-7.79-11-24.26-11.35-49.45-4-74.58,4-13.57,10-16.36,24.33-14.53,3.15.41,6.31,1.76,9.4,1.57,18-1.12,25.48,9.3,29.25,25,2.46,10.2,3,10.07,14.14,6.43,2.66-26,5.8-51.93,38-60.41-.83-5-1.12-9.31-2.33-13.36-2.44-8.16-1.42-14.58,6.36-19.6s11.15-10.41,1.71-18.57c-3.28-2.83-3.57-11.67-2.12-16.91,3.28-11.94.51-23.36-9-30.87-2.53-2-5.66-6-5.2-8.52,2.94-15.75-7.08-27.19-12.72-39.89C100.34,242.45,93,230.17,85.75,216.46Zm45.09,285.68-.48-.39,7.73,15c4.12-6,8.33-9.52,9-13.61a258.13,258.13,0,0,0,2.7-33.14c.42-14,7.23-23.93,20.52-28.49,13-4.45,15.17-8.6,12.18-23.08l11-6.15c-.48-1-1-1.94-1.46-2.9l-43,20.93L126,440.77l-25.43,12.58Zm38.78,225c10.17-16,20.68-31.92,30.33-48.28,3.05-5.16,6.13-12,5.26-17.5-6.52-40.54-59.64-74.52-101.1-64.76,8.11,1.18,15.6,1.8,22.81,3.58,2.18.53,3.58,4.24,5.34,6.49-2.74-1.49-5.49-4.26-8.23-4.24-11.36,0-22.72.94-33.68,1.5-1,5.08-1.65,8.41-2.67,13.64-.7-4.54-1.13-7.29-1.56-10l-2.63.16-4.25,25.42c-1-4.56-1.64-7.68-2.31-10.8l-3.15-.5c-2.16,9.06-4.31,18.12-6.48,27.26-.77-2.79-1.5-5.5-2.89-10.57-5.37,19.28-10,35.82-14,50.36-2.7,2-6.43,3.66-6.28,4.84,1.64,13.32-8.75,22.47-11.42,34.21a17,17,0,0,1-2,4.28c-1.35,2.42-4,4.81-4,7.16.17,7.34,1.35,14.67,2.13,22l58.12,4,.45-3L59.5,758.61l30.43-2.55L78.59,737.79l17.08,6.44,2.76-5c-3.87-2.64-7.42-6.26-11.7-7.63-3.52-1.13-9.35-1.63-8.31,5.73l-9.09-7.38L89.4,727.5c.37-1,.74-2,1.1-3.08L75.67,712l19.62-2-12.2-15.7,23,1.34-12.43-17,21.45-1.5-13.66-15.5,17.72-1.48c.18-1.1.37-2.21.56-3.32L104.31,650l24.55-2.86.36-2.67-10-5.7,16.45-2.64-11.5-16.2,13.37-2.1c-.92-3.59-1.55-6.05-2.19-8.52h11.45l-4.09,6.23c18.84-8.17,30.64,1.48,39,13.59,22,31.91,26.6,33.61,3.34,65.66-6.88,9.47-11.21,20.8-16.71,31.28q-9,20.94-18,41.87l3.42,1.35ZM37.25,805.64,25.3,775.82,10,788.07l13.85,17,1.49-1-5.18-12,17.34,13.33c10.82,1.78,23.82,8,31.85,4.06,7.56-3.7,9.9-18.08,14.91-28.55l23.92,10.46c-1.73-3.68-4.39-5.63-7.16-7.4-16.47-10.48-35.25-11-53.77-11.8-13.91-.6-15,1.46-12.33,15C36.09,793.3,36.49,799.5,37.25,805.64ZM125.9,191.17c10.46,16.93,14.07,17.57,28.92,4.46l-10.76,2.52c-4.54-25.69,3.45-51.82-5.88-76l-5.36-3.85,9.41,1-2.53-3L82.26,142c10.89,10.27,20.08,18.94,29.28,27.6Q118.73,180.4,125.9,191.17ZM63.69,934.62c.67-1.37,1.71-2.68,2-4.12,4.91-29.65,9.88-59.29,14.39-89,.58-3.84-1.31-8.06-2.06-12.1C72.4,818.12,55.29,813,46.23,819.81c-6.44,4.87-7.36,22.91-1.66,29.46,1.78,2.05,4,4.4,4.39,6.87,3,19.48,2.24,37.9-13,53.34-4.25,4.3-8.32,11.65-7.85,17.21a613.41,613.41,0,0,0,8.74,64.76c2.23,11.61,7.78,22.57,11.83,33.83l3.1-1c0-3.13,1.24-7.09-.2-9.25-11.58-17.29-1.47-38.7-11.15-56.42-2.38-4.35-1.77-10.33-2.53-15.48,17.54.89,18.69,2.6,16.47,19.61-1.68,12.86-2.25,25.87-3.31,38.81,3.88-11.61,5.75-23.33,8-35C63.1,945,63.18,945,41.82,937.91c-.41-.13-.46-1.3-1.36-4.1,6.92,1.25,12.82,2.52,18.79,3.24C60.62,937.22,62.21,935.48,63.69,934.62Zm112.23-717q7.16,25.93,14.3,51.88l4.84-1.55-18.57-50.82c-5-15-9.66-30.18-15.14-45-3.43-9.3-.54-15.75,5.68-21.19,13,36.69,25.88,73,38.81,109.5C223.2,249.2,223.21,249.2,219.1,230c-.41-1.94-1-3.85-1.37-5.79q-5.64-26.4-11.25-52.81l4.57-1L227,243.91c2.64-3,3.12-5.88,2.57-8.52-5.32-25.64-10.48-51.33-16.37-76.85-5.17-22.45-5.55-22.36-27.73-20.28-.49.05-1-.66-3.64-2.38,10.66-3.53,19.39-7,28.43-9,2.3-.52,7.55,3,8.18,5.45,6.36,25,12.12,50.12,17.86,75.26,2,8.74,3.45,17.6,5.14,26.4l5.35-1.16L223.49,125.31c27.24,2.11,34.51,7.31,43.31,32.77,4.81,13.93,8.92,28.1,13.35,42.17l3.14-1c-6.7-20.95-12.36-42.32-20.7-62.6-2.69-6.55-11.73-12.83-19-14.75-29.75-7.8-56.81.25-80.36,19.1-9.84,7.88-14.86,19.13-9,31.94C161,188,168.62,202.73,175.92,217.58ZM453.38,420.25q-4.49-5.7-8.95-11.42c-1.75-1.73-3.21-4.44-5.29-5-11.76-3.44-23.51-7.7-35.56-9.2-19.9-2.47-41.76-14.27-56.63,7.89,7.6,1.65,16.92,2.39,25,5.94,4.53,2,9.57,8.55,9.69,13.18.12,4.48-4.78,10.87-9.2,13.36-13,7.29-27.45,9.16-41.08,2.44-5.62-2.76-12.8-9.76-12.71-14.7.1-5.25,7.07-12.55,12.74-14.92,6.63-2.79,8.67-6.86,10.33-12.53.73-2.49,1.71-4.9,2.56-7.28-39.34-.18-79.13,0-116.87,11.76l5.11,6.15q-4.34,9.48-8.68,18.94c.21,24.11,1.46,25.39,26.37,27.71,7.89.73,15.75,1.67,23.62,2.51l-.19,2.59-50.22,17.71.76,3.06c82.1-33.87,166.83-31,255.89-18.61C470.23,445.22,461.8,432.74,453.38,420.25ZM433.64,182.3c-.63,2.25-1.85,4.53-1.79,6.76q1.32,44.72,3,89.41c.06,1.42,1.79,2.78,2.74,4.17l3.24-.65q-3.66-49.83-7.31-99.68l2.83-5.1c-22-8.34-43.83-6.76-65.25.76-47.94,16.82-92.92,39.91-133.46,70.35-31.08,23.34-59.87,49.76-89.58,74.92-1.52,1.28-2.16,3.57-4.33,7.34l7.87-5.1c2,5.17,3.76,9.87,6.16,16.2l35.07-18.86-.75-3.7-25.41-7.28c0-1.09.05-2.18.07-3.27h21.4c.5-8.3.88-14.58,1.25-20.87l4-.08q2.61,12.44,5.21,24.89a52.54,52.54,0,0,0,.07-18.67c-1.8-11.64-1.93-11.66,9.45-13.08,3.63,24.33,7.28,48.72,10.89,72.93,13.91-1.64,18.37-8.1,17.08-21-1.47-14.6-.15-29.46-.88-44.17-.46-9.27,2.87-12.3,12.78-9.9,2.3,20.12,4.62,40.39,6.93,60.65L258,339l-3.84-61.35h35.54l2.91,27.7,2.87-.33c-.48-9.34-1-18.68-1.43-28,8.24-2.57,11.06.19,11.05,7.64,0,23.09,0,46.19.59,69.27.08,3.35,3.14,6.63,4.83,9.94L316,362.3V277l5.39-1.15c1.1,2.9,3.12,5.8,3.16,8.72.29,19,.15,38.09.15,57.13l2.15,0V278.05c8.38-2.9,11.1.66,11.11,7.66q0,20.73,0,41.46l2.53.25,5.31-23.48,2.52.46v30.34c4.08-.95,7.09-2.13,10.16-2.29,13.43-.72,17.22-7.82,15.78-20.55-1.18-10.49-.24-21.23-.24-31.87,22.12-1.82,22.29-1.82,22,19.29-.15,9.84-1.12,19.68-1.72,29.52l2.64.21c1.43-15.48,2.86-31,4.38-47.38l32,11.95c-5.25-4.93-11.05-8.66-17.4-10.44-67.1-18.86-135.32-14.16-203.57-8.07-.34-1.1-.67-2.2-1-3.3l19.21-8.6,11.47-15c2.38,6.93,3.8,11,5.21,15.17-2.62-27.45,21.21-28.18,36.35-39.7,1.95,13.68,3.58,25.1,5.2,36.53l3.22-.47c-1.46-9.65-1.93-19.59-4.66-28.87-2.64-9,1.64-11.18,9.53-13.41L303.42,261H316c-2.26-15.43-4.55-29.87-6.34-44.38-.33-2.67,1.34-5.58,2.09-8.38l2.92.65c1.23,5.71,2.47,11.42,3.58,16.56,7-5.84-8.42-18.17,8.27-22.38,2.56,17,5.38,33.41,7.34,49.89.83,7,3,10.18,10.89,7.94l-11.58-62.41,5.42-.87c3.39,21.5,6.77,43,10.19,64.76l23.93,1.48c-1.3-27.13-2.55-53.19-3.84-80l19.05-5.73c2.07,16.72,5,31.88,5.62,47.13,1.35,35.18,1.4,38.55,9,45.19-2.92-32.29-5.66-62.49-8.74-96.52C408.23,176.91,421,179.55,433.64,182.3Zm-71.75-11.52,5.21-1c-5.73-26.71-11.45-53.41-17.22-80.33,14.12-.54,15.74-.21,19.07,10.89,6.45,21.47,12,43.2,18,65.21.54-.19,3.28-.95,3.24-1.18-4.82-25.28-9.84-50.52-14.68-74.87,23.82,5.62,29.06,12.44,51.3,68.33a131,131,0,0,0-2.21-17.35c-7-34.53-22.62-51.5-53-56a115.28,115.28,0,0,0-32.13-.3c-18.64,2.55-35,10.23-45.94,26.71-9.68,14.56,2.24,26.38,5.15,39.17,3.15,13.78,8.18,27.14,12.4,40.68,1.63-4,1-7.36,0-10.64-5-16.71-10.21-33.35-15-50.1-3.1-10.7-.39-17.81,5.71-22,6.67,25.48,13.61,52,20.55,78.46l5.39-1.31q-6.31-22.6-12.64-45.22l2.05-.79,18.58,41.67c20.72-6.17,20.74-6.17,17.52-27.21-1.59-10.36-3.24-20.72-4.86-31.08l2.23-.42Zm80.3-67.63c-7.12-13.37-13.8-24.55-19.09-36.34-3.49-7.76-8-10.12-16.4-9.83-72.4,2.48-142.59,16.59-209.27,38.4-1.84,7.08-3.38,13-4.72,18.2l47.74-2.89c.79-7.22,1.64-14.94,2.66-24.2l10.49-2.28c-2.13,10.94-3.92,20.11-5.7,29.28l1.81.64,6.57-15.71,1.25.4c-.78,5.77-1.56,11.54-2.39,17.7l18.29,8c.25-4.76.43-7.88.57-11,.16-3.58.25-7.16.42-10.73.23-5,2.24-11,.22-14.78-1.67-3.14-8.08-3.78-15.22-6.69l46.27-9c-2.44,7.54-4,12.23-5.49,16.93,4.89-2.44,7.45-6.19,10.32-9.67,2.7-3.27,5.26-7.22,8.81-9,2.12-1.08,6.05,1.38,12.26,3.11,11.82.63,27.18,1.47,42.54,2.28,5.09.27,11.19,3.8,13-5.14,2.5-12.11,11-12.77,21.38-10.24-1.11,5.3-2.31,10.3-3.15,15.36-.7,4.23-1,8.53-1.42,12.8l3.86.39,5.68-14.85,2,.67-2.9,16.89,11.54,3.9c.8-5.5,1.39-9.59,2-13.67l1.67-.3c1.25,5.61,2.49,11.21,3.95,17.78ZM158.29,201.6c-3.52,2-6.37,3.28-8.93,5-9.36,6.38-17.66,6.11-24.85-3.4-1.66-2.2-3.45-5.2-5.74-5.85-3.72-1-9.15-2-11.53-.1s-4,8.27-2.73,11.18c9.63,21.25,19.95,42.19,30.45,63,1.23,2.45,5.06,5.51,7.28,5.22,12.76-1.68,25.41-4.28,39-6.73C173.55,247.05,166.05,224.7,158.29,201.6Zm289.2,187.81q-.92-2.37-1.84-4.72c-4.62-.79-9.22-1.81-13.87-2.33q-30.21-3.35-60.46-6.43c-45.7-4.74-91.2-4.5-136.67,3.35C192.6,386.54,154.08,402.93,117,423c-5,2.71-7.56,9.85-11.26,14.94,72-40.33,147.26-60.49,228.39-57.17,34.87,1.42,70,2.09,103.85,12.61C440.48,394.19,444.29,390.84,447.49,389.41ZM82.39,129.82,84,131.44c27.22-10.55,54.22-21.74,81.73-31.47,27.3-9.66,54.77-19.21,82.8-26.3C276.91,66.48,306,61.54,335,57.11c28.31-4.31,56.91-6.74,85.38-10l-.39-3c-18.43,0-37-1.32-55.28.24-57.33,4.87-112.61,19.73-167.08,37.46-32.79,10.67-65.16,22.68-97.41,34.9C93.58,119.24,88.3,125.36,82.39,129.82ZM185.51,547.65c9.17-27.59,15.37-55.64,12.21-84.85-1.24-11.42-10.16-18.35-21.36-17.34-12,1.09-20.16,9.44-19.35,20.82,1.77,24.8.23,49.25-7.08,73.11-3.68,12-7.93,23.77-12,35.94,8.39,2.5,12.47-1.7,14.36-8.57,6.5-23.65,13.5-47.2,18.82-71.11,3.09-13.91,3.33-28.45,4.85-42.71l4,.46q-4.09,38.61-8.2,77.23l3.36.39q4.72-39.56,9.44-79.1l2.77-1.7c2.59,4.36,7.24,8.65,7.39,13.09a282,282,0,0,1-1.54,41.5C191.51,519.19,188.13,533.37,185.51,547.65Zm-168-50.29c8.08-5.22,12.62-12.27,22-12.39,2.61,0,6.59-6.07,7.42-9.9C49,465.51,49.58,455.62,51,444l-29.73-2.93C12.14,459.67,13.83,477.78,17.46,497.36ZM207.84,25.29c4.06-10.47-3.24-13-10.22-16.42-8-3.88-10.48,1.55-13.53,6.84C175.19,31.13,163,43.8,150.2,56c-2.3,2.17-2.77,6.29-4.08,9.52,3.29-.93,7.32-1,9.74-2.94C173,48.49,189.79,34,207,19.47,207.33,21.79,207.58,23.54,207.84,25.29ZM189.07,381.17l4.16-1.88V334c-10.78,4.71-20.23,8.67-29.49,13-1.81.86-3.9,3.26-4,5s2.25,4.94,3.62,5C178.22,357.64,186.26,366.11,189.07,381.17Zm169.74,46.48c.55-5.79,2.4-10.87,1.13-15-2.88-9.38-10.69-4-13,12.26l-6.25-19-19.38,13.56C334.06,432.92,347,430,358.81,427.65Zm-180.35-144-1.54-3.71-51.19,10.37,8.63,6.39c2.38-4.43,3.29-9.25,9.54-1.63,3.06,3.73,13,5,18.17,3C168.44,295.58,173.08,288.62,178.46,283.6Zm.42,87.67c-9.51-9.52-19.1-9.8-31.94-1.25s-13.24,10.31-6.83,26.29l14.76-5-6.67-18.75c12.91-2.47,7.12,13.15,15.82,14.84-1.58-6.15-3.08-12-5.25-20.36ZM294.77,199.85c7.83-.87,10.72-4.77,8.1-12.81-3.14-9.64-5.77-19.45-8.81-29.84l-10.87,3.47C287.17,174.14,291,187,294.77,199.85ZM130.43,49.44c-16.45-8-34.59-2.29-37.77,11.7C107.46,64.45,119,58.49,130.43,49.44ZM101.58,89.61l2-.06-.89-8.46,12.88,15.37L118,94.9l-5.8-22,10-7.67-29.8,4.4Zm-2,129.93-3,1.59,31,60,2.85-1.49Zm-44.49-9.23L81,197.16C60.15,191.51,50.74,197.14,55.07,210.31Zm100.84-99.89.44,1.36,14.7-2.33v14.22l3.3,1.25c3.15-8,6.29-15.93,10-25.22Zm-56.36,363c-16.08-6.72-30.85-1.34-29.88,6.91Zm18.74,221.28q1.17-2,2.32-4c-4.89-11.53-5.25-11.69-20.6-7Z"/><path class="cls-1" d="M304.1,473.64c40.69-12.07,83.36-4.29,126,0Z"/><path class="cls-2" d="M232.53,405.88l-5.11-6.15C265.16,387.94,305,387.79,344.29,388c-.85,2.38-1.83,4.79-2.56,7.28-1.66,5.67-3.7,9.74-10.33,12.53-5.67,2.37-12.64,9.67-12.74,14.92-.09,4.94,7.09,11.94,12.71,14.7,13.63,6.72,28.12,4.85,41.08-2.44,4.42-2.49,9.32-8.88,9.2-13.36-.12-4.63-5.16-11.2-9.69-13.18-8.09-3.55-17.41-4.29-25-5.94,14.87-22.16,36.73-10.36,56.63-7.89,12.05,1.5,23.8,5.76,35.56,9.2,2.08.6,3.54,3.31,5.29,5L411,448.5h19.15c1.2-5.46,1-10.16,3.15-13.18,5-7,9.11-15.83,20.1-15.07,8.42,12.49,16.85,25,26.7,39.54C391,447.44,306.29,444.53,224.19,478.4l-.76-3.06,50.22-17.71.19-2.59c-7.87-.84-15.73-1.78-23.62-2.51-24.91-2.32-26.16-3.6-26.37-27.71l5.45-1.46c-2.31,15.11,1.18,22.84,13,22.82,11.48,0,23.28-2.53,34.33-5.91,8-2.45,15.13-8.81,12.5-18.73s-12-12.29-20.13-10.47c-13.64,3-26.76,8.37-40.1,12.73l27.24-24.07-3.88-4.79ZM368.42,447.2c6.22,0,10.59.19,14.94-.06,5-.28,12.32.93,14.49-1.8,10.41-13.09,19.42-27.3,29.85-42.47l-25.55-5.66C395.7,417.68,384.57,432.78,368.42,447.2Zm-58.34,4.86,20.38-2.92c-1-2.95-1.31-5.45-2.58-7.28-1.39-2-3.67-3.33-5.61-5Z"/><path class="cls-3" d="M442.19,103.15l-10.41-3.58c-1.46-6.57-2.7-12.17-3.95-17.78l-1.67.3c-.59,4.08-1.18,8.17-2,13.67l-11.54-3.9L415.54,75l-2-.67-5.68,14.85L404,88.76c.46-4.27.72-8.57,1.42-12.8.84-5.06,2-10.06,3.15-15.36-10.36-2.53-18.88-1.87-21.38,10.24-1.85,8.94-7.95,5.41-13,5.14-15.36-.81-30.72-1.65-42.54-2.28-6.21-1.73-10.14-4.19-12.26-3.11-3.55,1.81-6.11,5.76-8.81,9-2.87,3.48-5.43,7.23-10.32,9.67,1.53-4.7,3.05-9.39,5.49-16.93l-46.27,9c7.14,2.91,13.55,3.55,15.22,6.69,2,3.82,0,9.76-.22,14.78-.17,3.57-.26,7.15-.42,10.73-.14,3.12-.32,6.24-.57,11l-18.29-8c.83-6.16,1.61-11.93,2.39-17.7l-1.25-.4-6.57,15.71-1.81-.64c1.78-9.17,3.57-18.34,5.7-29.28l-10.49,2.28c-1,9.26-1.87,17-2.66,24.2l-47.74,2.89c1.34-5.17,2.88-11.12,4.72-18.2C264.11,73.57,334.3,59.46,406.7,57c8.39-.29,12.91,2.07,16.4,9.83C428.39,78.6,435.07,89.78,442.19,103.15Z"/><path class="cls-4" d="M447.49,389.41c-3.2,1.43-7,4.78-9.53,4-33.89-10.52-69-11.19-103.85-12.61C253,377.48,177.74,397.64,105.72,438c3.7-5.09,6.28-12.23,11.26-14.94,37.1-20.1,75.62-36.49,117.67-43.75,45.47-7.85,91-8.09,136.67-3.35q30.24,3.13,60.46,6.43c4.65.52,9.25,1.54,13.87,2.33Q446.58,387,447.49,389.41Z"/><path class="cls-5" d="M82.39,129.82c5.91-4.46,11.19-10.58,17.84-13.1,32.25-12.22,64.62-24.23,97.41-34.9,54.47-17.73,109.75-32.59,167.08-37.46,18.3-1.56,36.85-.24,55.28-.24l.39,3c-28.47,3.26-57.07,5.69-85.38,10-29,4.43-58.1,9.37-86.52,16.56-28,7.09-55.5,16.64-82.8,26.3-27.51,9.73-54.51,20.92-81.73,31.47Z"/><path class="cls-6" d="M111.54,169.61c-9.2-8.66-18.39-17.33-29.28-27.6l57.44-25.68,2.53,3-9.41-1,5.36,3.85c9.33,24.2,1.34,50.33,5.88,76l10.76-2.52c-14.85,13.11-18.46,12.47-28.92-4.46.68-1.92,2.18-3.95,1.91-5.73-2.76-18.61-5.81-37.19-8.81-56l-10.31,4.4C109.71,146.65,110.62,158.13,111.54,169.61Z"/><path class="cls-7" d="M149.07,430.28l43-20.93c.49,1,1,1.93,1.46,2.9l-11,6.15c3,14.48.79,18.63-12.18,23.08C157,446,150.2,456,149.78,470a258.13,258.13,0,0,1-2.7,33.14c-.66,4.09-4.87,7.61-9,13.61l-7.73-15,6.74,3.84c0-6.83-.55-13.51.1-20.08C139.08,466.68,140.17,447.62,149.07,430.28Z"/><path class="cls-8" d="M17.46,497.36c-3.63-19.58-5.32-37.69,3.83-56.3L51,444c-1.44,11.63-2.06,21.52-4.13,31.08-.83,3.83-4.81,9.87-7.42,9.9C30.08,485.09,25.54,492.14,17.46,497.36Z"/><path class="cls-9" d="M207.84,25.29c-.26-1.75-.51-3.5-.85-5.82-17.2,14.57-34,29-51.13,43.07-2.42,2-6.45,2-9.74,2.94,1.31-3.23,1.78-7.35,4.08-9.52,12.84-12.16,25-24.83,33.89-40.25,3-5.29,5.51-10.72,13.53-6.84C204.6,12.26,211.9,14.82,207.84,25.29Z"/><path class="cls-1" d="M149.07,430.28c-8.9,17.34-10,36.4-11.87,55.23-.65,6.57-.1,13.25-.1,20.08l-6.74-3.84.48.39c-8.93-13.8-7.77-29-7.45-44.51.13-6-2.74-11.81,2.59-16.86Z"/><path class="cls-1" d="M111.54,169.61c-.92-11.48-1.83-23-2.85-35.73l10.31-4.4c3,18.77,6,37.35,8.81,56,.27,1.78-1.23,3.81-1.91,5.73Q118.73,180.39,111.54,169.61Z"/><path class="cls-10" d="M126,440.77c-5.33,5.05-2.46,10.86-2.59,16.86-.32,15.5-1.48,30.71,7.45,44.51l-30.29-48.79Z"/><path class="cls-1" d="M453.38,420.25c-11-.76-15.12,8.11-20.1,15.07-2.16,3-1.95,7.72-3.15,13.18H411l33.45-39.67Q448.9,414.54,453.38,420.25Z"/><path class="cls-11" d="M130.43,49.44c-11.39,9.05-23,15-37.77,11.7C95.84,47.15,114,41.39,130.43,49.44Z"/><path class="cls-12" d="M101.58,89.61l-9.15-20,29.8-4.4-10,7.67,5.8,22-2.47,1.56L102.69,81.09l.89,8.46Z"/><path class="cls-1" d="M232.53,405.88l19.76-10.94,3.88,4.79L228.93,423.8l.37-.44-5.45,1.46Q228.19,415.36,232.53,405.88Z"/><path class="cls-13" d="M155.91,110.42l28.4-10.72c-3.67,9.29-6.81,17.26-10,25.22l-3.3-1.25V109.45l-14.7,2.33Z"/><path class="cls-1" d="M368.42,447.2c16.15-14.42,27.28-29.52,33.73-50l25.55,5.66c-10.43,15.17-19.44,29.38-29.85,42.47-2.17,2.73-9.51,1.52-14.49,1.8C379,447.39,374.64,447.2,368.42,447.2Z"/><path class="cls-1" d="M229.3,423.36l-.37.44c13.34-4.36,26.46-9.7,40.1-12.73,8.18-1.82,17.51.64,20.13,10.47s-4.49,16.28-12.5,18.73c-11.05,3.38-22.85,5.9-34.33,5.91C230.48,446.2,227,438.47,229.3,423.36Zm32.87,9-25.62-7.92c-.9,2-4.23,5.85-3.42,8.46s5.53,5.78,8.75,6c6.15.48,12.47-.77,18.65-1.78.65-.1.79-3.38,1.18-5.16l13,1c-18.46-16.72-18.46-16.72-27-12.51Z"/><path class="cls-1" d="M310.08,452.06l12.19-15.21c1.94,1.68,4.22,3,5.61,5,1.27,1.83,1.59,4.33,2.58,7.28Z"/><path class="cls-1" d="M78.22,829.27c-5,31.25-10.16,62.49-15,93.77-.59,3.77.38,7.77.63,11.67l-22.42-4c15.78-33.53,26.82-68.57,14.24-109.08C64.41,816.11,70.75,825.14,78.22,829.27Z"/></g></g></svg>