<svg xmlns="http://www.w3.org/2000/svg" xmlns:xlink="http://www.w3.org/1999/xlink" viewBox="0 0 494 336.68"><defs><style>.cls-1{fill:#1a1a1a;}.cls-2{fill:url(#linear-gradient);}.cls-3{fill:url(#linear-gradient-2);}.cls-4{fill:url(#linear-gradient-3);}.cls-5{fill:url(#linear-gradient-4);}.cls-6{fill:url(#linear-gradient-5);}.cls-7{fill:url(#linear-gradient-6);}.cls-8{fill:url(#linear-gradient-7);}.cls-9{fill:url(#linear-gradient-8);}.cls-10{fill:url(#linear-gradient-9);}.cls-11{fill:url(#linear-gradient-10);}.cls-12{fill:url(#linear-gradient-11);}.cls-13{fill:url(#linear-gradient-12);}.cls-14{fill:url(#linear-gradient-13);}.cls-15{fill:url(#linear-gradient-14);}.cls-16{fill:url(#linear-gradient-15);}.cls-17{fill:url(#linear-gradient-16);}.cls-18{fill:url(#linear-gradient-17);}.cls-19{fill:url(#linear-gradient-18);}.cls-20{fill:url(#linear-gradient-19);}.cls-21{fill:url(#linear-gradient-20);}.cls-22{fill:url(#linear-gradient-21);}.cls-23{fill:url(#linear-gradient-22);}.cls-24{fill:url(#linear-gradient-23);}.cls-25{fill:url(#linear-gradient-24);}.cls-26{fill:url(#linear-gradient-25);}.cls-27{fill:url(#linear-gradient-26);}.cls-28{fill:url(#linear-gradient-27);}.cls-29{fill:url(#linear-gradient-28);}.cls-30{fill:url(#linear-gradient-29);}.cls-31{fill:url(#linear-gradient-30);}.cls-32{fill:url(#linear-gradient-31);}.cls-33{fill:url(#linear-gradient-32);}.cls-34{fill:url(#linear-gradient-33);}.cls-35{fill:url(#linear-gradient-34);}.cls-36{fill:url(#linear-gradient-35);}.cls-37{fill:url(#linear-gradient-36);}.cls-38{fill:url(#linear-gradient-37);}.cls-39{fill:url(#linear-gradient-38);}.cls-40{fill:url(#linear-gradient-39);}.cls-41{fill:url(#linear-gradient-40);}.cls-42{fill:url(#linear-gradient-41);}.cls-43{fill:url(#linear-gradient-42);}.cls-44{fill:url(#linear-gradient-43);}.cls-45{fill:url(#linear-gradient-44);}.cls-46{fill:url(#linear-gradient-45);}.cls-47{fill:url(#linear-gradient-46);}.cls-48{fill:url(#linear-gradient-47);}.cls-49{fill:url(#linear-gradient-48);}.cls-50{fill:url(#linear-gradient-49);}.cls-51{fill:url(#linear-gradient-50);}.cls-52{fill:url(#linear-gradient-51);}.cls-53{fill:url(#linear-gradient-52);}</style><linearGradient id="linear-gradient" x1="3304.37" y1="281.44" x2="3504.14" y2="281.44" gradientTransform="translate(-3100.27)" gradientUnits="userSpaceOnUse"><stop offset="0" stop-color="#ed213a"/><stop offset="1" stop-color="#93291e"/></linearGradient><linearGradient id="linear-gradient-2" x1="3453.48" y1="199.55" x2="3518.61" y2="199.55" xlink:href="#linear-gradient"/><linearGradient id="linear-gradient-3" x1="3316.48" y1="188.47" x2="3399.22" y2="188.47" xlink:href="#linear-gradient"/><linearGradient id="linear-gradient-4" x1="3164.41" y1="208.82" x2="3285.04" y2="208.82" xlink:href="#linear-gradient"/><linearGradient id="linear-gradient-5" x1="3282.17" y1="232.95" x2="3367.9" y2="232.95" xlink:href="#linear-gradient"/><linearGradient id="linear-gradient-6" x1="3247.15" y1="152.53" x2="3294.08" y2="152.53" xlink:href="#linear-gradient"/><linearGradient id="linear-gradient-7" x1="3302.58" y1="221.89" x2="3442.89" y2="221.89" xlink:href="#linear-gradient"/><linearGradient id="linear-gradient-8" x1="3369.72" y1="240.07" x2="3469.11" y2="240.07" xlink:href="#linear-gradient"/><linearGradient id="linear-gradient-9" x1="3312.24" y1="138.5" x2="3416.91" y2="138.5" xlink:href="#linear-gradient"/><linearGradient id="linear-gradient-10" x1="3433.43" y1="175.47" x2="3474.2" y2="175.47" xlink:href="#linear-gradient"/><linearGradient id="linear-gradient-11" x1="3157.43" y1="126.46" x2="3236.56" y2="126.46" xlink:href="#linear-gradient"/><linearGradient id="linear-gradient-12" x1="3395.57" y1="132.82" x2="3471.49" y2="132.82" xlink:href="#linear-gradient"/><linearGradient id="linear-gradient-13" x1="3221.35" y1="169.11" x2="3272.01" y2="169.11" xlink:href="#linear-gradient"/><linearGradient id="linear-gradient-14" x1="3257.68" y1="108.29" x2="3311.01" y2="108.29" xlink:href="#linear-gradient"/><linearGradient id="linear-gradient-15" x1="3193.53" y1="85.03" x2="3259.83" y2="85.03" xlink:href="#linear-gradient"/><linearGradient id="linear-gradient-16" x1="3322.91" y1="267.7" x2="3433.92" y2="267.7" xlink:href="#linear-gradient"/><linearGradient id="linear-gradient-17" x1="3166.69" y1="160.69" x2="3216.55" y2="160.69" xlink:href="#linear-gradient"/><linearGradient id="linear-gradient-18" x1="3192.82" y1="149.22" x2="3235.7" y2="149.22" xlink:href="#linear-gradient"/><linearGradient id="linear-gradient-19" x1="3161.13" y1="63.54" x2="3207.23" y2="63.54" xlink:href="#linear-gradient"/><linearGradient id="linear-gradient-20" x1="3403.98" y1="208.72" x2="3432.87" y2="208.72" xlink:href="#linear-gradient"/><linearGradient id="linear-gradient-21" x1="3364.41" y1="216.16" x2="3413.02" y2="216.16" xlink:href="#linear-gradient"/><linearGradient id="linear-gradient-22" x1="3372.19" y1="178.99" x2="3423.14" y2="178.99" xlink:href="#linear-gradient"/><linearGradient id="linear-gradient-23" x1="3199.48" y1="53.84" x2="3223.65" y2="53.84" xlink:href="#linear-gradient"/><linearGradient id="linear-gradient-24" x1="3404.77" y1="185.88" x2="3446.16" y2="185.88" xlink:href="#linear-gradient"/><linearGradient id="linear-gradient-25" x1="3188.92" y1="127.38" x2="3239.99" y2="127.38" xlink:href="#linear-gradient"/><linearGradient id="linear-gradient-26" x1="3154.19" y1="22.62" x2="3212.72" y2="22.62" xlink:href="#linear-gradient"/><linearGradient id="linear-gradient-27" x1="3189.96" y1="198.38" x2="3266.41" y2="198.38" xlink:href="#linear-gradient"/><linearGradient id="linear-gradient-28" x1="3350.23" y1="229.68" x2="3386.82" y2="229.68" xlink:href="#linear-gradient"/><linearGradient id="linear-gradient-29" x1="3360.24" y1="176.05" x2="3420.86" y2="176.05" xlink:href="#linear-gradient"/><linearGradient id="linear-gradient-30" x1="3167.24" y1="27.67" x2="3215.51" y2="27.67" xlink:href="#linear-gradient"/><linearGradient id="linear-gradient-31" x1="3286.5" y1="156.69" x2="3308.95" y2="156.69" xlink:href="#linear-gradient"/><linearGradient id="linear-gradient-32" x1="3217.69" y1="162.55" x2="3244.97" y2="162.55" xlink:href="#linear-gradient"/><linearGradient id="linear-gradient-33" x1="3363.49" y1="201.22" x2="3393.67" y2="201.22" xlink:href="#linear-gradient"/><linearGradient id="linear-gradient-34" x1="3230.64" y1="122.45" x2="3262.45" y2="122.45" xlink:href="#linear-gradient"/><linearGradient id="linear-gradient-35" x1="3412.87" y1="272.25" x2="3450.01" y2="272.25" xlink:href="#linear-gradient"/><linearGradient id="linear-gradient-36" x1="3210.16" y1="142.28" x2="3234.09" y2="142.28" xlink:href="#linear-gradient"/><linearGradient id="linear-gradient-37" x1="3147.61" y1="72.78" x2="3177.96" y2="72.78" xlink:href="#linear-gradient"/><linearGradient id="linear-gradient-38" x1="3249.47" y1="208.54" x2="3281.83" y2="208.54" xlink:href="#linear-gradient"/><linearGradient id="linear-gradient-39" x1="3146.82" y1="49.29" x2="3163.02" y2="49.29" xlink:href="#linear-gradient"/><linearGradient id="linear-gradient-40" x1="3162.11" y1="177.12" x2="3183.55" y2="177.12" xlink:href="#linear-gradient"/><linearGradient id="linear-gradient-41" x1="3347.94" y1="198.4" x2="3363.03" y2="198.4" xlink:href="#linear-gradient"/><linearGradient id="linear-gradient-42" x1="3398.37" y1="189.14" x2="3410.49" y2="189.14" xlink:href="#linear-gradient"/><linearGradient id="linear-gradient-43" x1="3238.43" y1="145.26" x2="3251.97" y2="145.26" xlink:href="#linear-gradient"/><linearGradient id="linear-gradient-44" x1="3216.2" y1="175.51" x2="3246.92" y2="175.51" xlink:href="#linear-gradient"/><linearGradient id="linear-gradient-45" x1="3162" y1="46.31" x2="3188.57" y2="46.31" xlink:href="#linear-gradient"/><linearGradient id="linear-gradient-46" x1="3194.25" y1="33.74" x2="3203.18" y2="33.74" xlink:href="#linear-gradient"/><linearGradient id="linear-gradient-47" x1="3449.21" y1="208.62" x2="3460.52" y2="208.62" xlink:href="#linear-gradient"/><linearGradient id="linear-gradient-48" x1="3170.58" y1="80.54" x2="3188.59" y2="80.54" xlink:href="#linear-gradient"/><linearGradient id="linear-gradient-49" x1="3423.5" y1="171.92" x2="3431.21" y2="171.92" xlink:href="#linear-gradient"/><linearGradient id="linear-gradient-50" x1="3243.56" y1="132.59" x2="3255.72" y2="132.59" xlink:href="#linear-gradient"/><linearGradient id="linear-gradient-51" x1="3216.22" y1="19.07" x2="3223.28" y2="19.07" xlink:href="#linear-gradient"/><linearGradient id="linear-gradient-52" x1="3222.08" y1="150.4" x2="3233.78" y2="150.4" xlink:href="#linear-gradient"/></defs><g id="Layer_2" data-name="Layer 2"><g id="Layer_1-2" data-name="Layer 1"><path class="cls-1" d="M409.56,170.51c10.27-3.87,17.67-7.61,25.52-9.37s8.93.37,6.39,8.68c3.91,1.05,7.78,2.23,11.72,3.14,5.64,1.29,10.84,2.48,7.75,10.51-.44,1.17,2.14,4.05,3.88,5.41,9,7,18.27,13.86,29.18,22.07l-34.42,19.41,3.25,9.84H450.34c.79,21.09-.66,41.84.9,63.33l-8.7-1v34.2l-23-13.94-4.82,8.18c-8.55-4.25-16.88-14.06-26.36-.1l-13-27.54c-10.75,2.91-20.89,7.13-28.24,15.91-7,8.34-15.2,9.63-25.57,8.33-16.56-2.08-33.32-2.51-50-3.75-14.61-1.08-29.24-1.92-43.78-3.59-8.43-1-13.48-6.23-15.63-14.88-1.12-4.5-4.46-8.46-6.88-12.62-1.78-3-3.68-6-5.75-9.39l-16.69,16.3c-1.78-5.74-2.89-9.31-4.32-13.9l-15.37,17.94-4.44-7.52-28.76,34.52-2.62-.78a227.64,227.64,0,0,1,.36-42.54l-9.46,1.36c1.45-5.95,2.63-10.74,3.8-15.53-13-1.95-13.1-2.35-5.3-17.91-6.44-4.18-6.44-4.18-1.23-17.6-9.72-1.93-19.24-3.77-28.73-5.71a117.89,117.89,0,0,1-11.94-2.87c-6.55-2.07-10.23-5.72-9-13.65.64-4-2-8.42-2.46-12.73-1-8.58-1.29-17.26-2.58-25.79C60,171.15,58,165.59,56.28,160c-.43-1.41-2.52-2.64-2.43-3.83,1-12.53-5.39-25.36.44-36.14L19,108.49c2.16-3.85,3.21-5.71,4.42-7.88-1.71-1.38-3.9-2.53-5.15-4.34s-1.48-4.38-2.44-6.49a15.81,15.81,0,0,0-2.94-4.51C8.66,81,4.3,76.91,0,72.75l.88-2.57L22.19,66C22,60.73,23.41,56.84,30,60.56c.71.39,2.22-.26,3.18-.77,2.77-1.46,5.44-3.09,8.16-4.66l2.19,1.24C42.89,46,42.21,35.63,41.49,24.64l6.65,2.2c4.64-6.75,9.06-13.22,13.54-19.65a6.89,6.89,0,0,1,1.78-1.46C73.65-1.53,100.56-2,111.3,4.9a11.53,11.53,0,0,0,4,2.06c8.92,1.4,11.68,4.45,11.65,13.26,0,5.15,0,10.3,0,15.92,4.84-.63,9.55-15.55,13.93-2.23l12.75-1.46.14,1.84c5.15-2.92,10.19-6.08,15.51-8.65,2-1,4.74-.65,7.14-.92a40.79,40.79,0,0,1-.34,6.56c-.51,2.5-2,4.85-2.25,7.35-.25,2.24.6,4.58.9,6.88a57.71,57.71,0,0,1,.74,7.05c0,.87-1.35,1.72-1.41,2.62-.7,10.82-.66,10.82-9.27,19.25L209.2,98c3.14-7,5.52-12.34,7.88-17.65,2.44-5.48,5.26-9.77,11.55-2.51,2.31-2.66,3.83-5.23,6.05-6.81,6.49-4.61,13.37-8.68,19.88-13.26,3.71-2.61,7-5.82,12.33-10.34,1,8.36,1.75,14.74,2.56,21.62h7.35c-.39,4.48-.74,8.4-1.13,12.82,8.08,1.43,8.42,6.13,5.68,12.79-1.51,3.66-1.56,7.92-2.55,13.5,10.42-6.18,18.53-2.73,27.53,1.84,6.74,3.42,15.36,4.51,23.09,4.33,13.86-.34,26,2.5,36.24,12.25a8.18,8.18,0,0,0,6,1.7c21-2.89,32,6.2,33.91,27.61C406,161.16,408.34,166.22,409.56,170.51Zm-205,98.22c-1.06,10-.74,17.84,6.13,24.24,2,1.85,3.92,4.61,4.25,7.17,1.63,12.26,9.17,17,20.6,17.66,4.1.24,8.15,1.39,12.25,1.58,24.93,1.12,49.93,1.42,74.78,3.45,10,.81,16.47-1.95,23.06-8.89a43.64,43.64,0,0,1,16.95-11.21c11.95-4,21.87-9.82,28.53-20.74a46,46,0,0,1,6.26-7.75c7.15-7.39,8.79-25.45,3-34.34-6.69,1.76-13.47,3.25-20.05,5.38-6,1.95-12.19,5.07-12.8,12s-4.69,10-9.66,12.74-10.21,4.86-15.37,7.19c-18.06,8.14-37.76,6.55-56.69,9.59-7.29,1.17-14.39,3.7-21.7,4.55-19,2.2-36.35-2.09-50.9-15.27C210.71,273.89,208.15,271.8,204.56,268.73Zm148.66-2.65,3.18,1.59c2.34-3,6.17-5.74,6.73-9,1.69-9.91,7.92-14.6,16.62-17.21,3.7-1.11,7.66-1.47,11.24-2.84,12.29-4.73,22.85-12.36,26-25.47,3.63-15.2,0-29.57-10.42-42-2.31-2.74-3.58-6.63-4.5-10.2-1.08-4.21-.87-8.74-1.91-13-3.18-12.92-14.75-19.18-27.24-15.55,1.21,8.47,1.21,17.25,3.91,25.11,3.37,9.83-.18,16.77-5.41,24.24s-8.6,16-7.13,25.67l11-3.49c-2.71,10.22-5.63,18.78-7.15,27.57-1.77,10.24-5.26,19.23-12.44,26.89C354,260.2,354,263.49,353.22,266.08Zm-98-85.57c2.86-25.6,20.28-31.51,43.68-31.31-8.48-6.13-15-10.88-21.63-15.59a2.46,2.46,0,0,0-1.51-.25c-7.62.68-15.86-.24-22.73,2.4-19,7.31-33.87,19.93-36.27,41.36-2.71,24.16,3.67,46,22.93,62.48,2.81,2.39,7.13,3,9.65,4-1.21-9.5-2.57-18.18-3.38-26.91-1-11.26-1.68-22.55-2.36-33.84-.12-1.9-.06-5.15.81-5.49,1.79-.69,4.23-.05,6.29.48C252.09,178.18,253.24,179.27,255.27,180.51ZM64.15,184.85c.71,3.84,1.46,8.77,2.55,13.62,1,4.51,2.87,8.87,3.53,13.41,1.69,11.66,3.71,13.58,15.35,15.41,9.14,1.43,18.11,3.94,27.26,5.33,3.09.47,7.27,0,9.58-1.81,6.37-5,12.52-5.93,20.14-3.14,13.73,5,27.53,8.23,38.7-5.62.86-1.06,2.33-1.63,3.51-2.42-.19-.88-.39-1.76-.58-2.64-6.61.76-13.34,1-19.8,2.42-7,1.53-13.56,3.79-19.28-2.78a5,5,0,0,0-4-1.18c-19.63,3.46-35-5-49.07-17.26-2.11-1.83-4.1-4.07-6.57-5.14C78.64,190.1,71.61,187.68,64.15,184.85ZM267,287.15l.62-3.23c-9.2-2.47-18.44-4.82-27.61-7.42-12.92-3.67-19.73-12.75-20-25.57-.05-2.21-1.65-4.66-3.13-6.52-6.72-8.47-13.66-16.56-16.22-27.68-3.08-13.44-2.72-26.37,2.87-39.18-15.25,0-23.82,9.09-21.16,22.74,1,5.18,3.87,10,5.74,15,2.12,5.74,5.41,11.45,5.87,17.35,1.83,23.37,15.68,38.32,34.4,49.1C240.09,288.48,253.61,289.63,267,287.15ZM148.67,207c13.16.17,21-5,26.4-15.31,4.61-8.85,9.18-17.8,14.82-26,2.59-3.77,4.23-6.52,2.63-11-2.82-7.91-3.64-15.64-.18-24s.68-14.89-6.59-20.26c-4.13-3-8.71-5.52-12.71-8.74-6.62-5.32-18.13-5.16-26.15,1.68,3.86,3.68,7.84,7.1,11.35,11a68.45,68.45,0,0,1,7.48,10.15c1.73,2.78,2.19,6.57,4.35,8.81,6.67,7,7,15,5.67,23.73a26.37,26.37,0,0,0-.24,7.57c1.77,12.34-5,21.81-10.53,31.65-1,1.73-3.81,2.36-5.72,3.61C156.16,201.92,153.13,204,148.67,207ZM266.58,270c.63-10.16,7.28-14.74,15.27-17.93,4.06-1.62,8.18-3.13,12.38-4.34,11.14-3.19,22.44-5.89,33.47-9.42,5.21-1.67,10-4.79,14.93-7.25-.31-.68-.61-1.37-.92-2.05-2.53.19-5.18,0-7.58.64-15.6,4.36-31.45,8.06-46.61,13.62-18.36,6.74-36.43,5.21-54.69,1.19-7.19-1.58-11.38-6.52-12.37-14.1-.71-5.41-2-10.74-2.93-16.13-1.73-10.33-3.43-20.67-5-31-.38-2.55-.06-5.19-.06-9.35-7.93,7.83-9.69,16.22-10.13,25C200.75,231.82,232.21,259.24,266.58,270Zm2.87-4.52c3.64,1.66,4.34,2.27,5,2.23,9.35-.56,18.83-.43,28-2,12.8-2.25,25.24-7.13,38.08-8.41,11.18-1.11,16.58-2.64,20.13-13.72,3.25-10.18,5.5-20.68,8.19-31a56.33,56.33,0,0,0-15.35,12.8c-8.47,10.07-19.06,16-31.77,19.11-13,3.2-25.79,7-38.38,11.43C278.76,257.41,275,261.47,269.45,265.44ZM212,167.55l2,.75c1.12-2.24,2.12-4.55,3.37-6.71,11.88-20.37,28.94-32.57,53.14-32.76,5.71-.05,11.66.06,15.17,6.81,1.6,3.07,5.82,5.17,9.88,1.57,7.07-6.29,14.26-12.45,21.15-18.43-5.2-2.22-10.94-3.83-15.72-6.94-6.43-4.17-12.28-3.81-19-1.11-8,3.24-16.23,6.48-24.66,8.3-13.93,3-24.91,10.45-35.35,19.59C212.71,146.69,212.67,157.09,212,167.55Zm121.2-18.94c10.23,8.93,10.44,20.31,10.25,32.2-.15,9.23,1.38,18.5,2.17,27.75l2.31.05c3.18-5.77,5.92-11.85,9.67-17.21s9.23-9.83,12.78-15.41c2.31-3.64,4.15-8.89,3.42-12.91C370.12,143.07,351.38,136.07,333.17,148.61ZM136.26,97.85l0-2.22c-4.8.38-9.64.49-14.4,1.19-7.36,1.08-14.67,3.72-22,3.65C83.31,100.3,70,105,61.16,120c-3.84,6.52-5.78,29.62-1.79,36.29.28.48,1.05.66,1.53.95,4.11-7.49,7.58-15,12.18-21.77,2.59-3.77,7.11-6.2,10.67-9.33,5-4.43,10-9,15-13.39,3.74-3.27,7.12-7.82,11.5-9.3C118.61,100.67,127.56,99.63,136.26,97.85Zm235,49.25c-3.28-15.89-18.4-28.78-31.33-28.56-18.28.31-31.17,10-44.58,24.57,4.78.65,7.82,1.32,10.87,1.42,6.53.2,13.08.2,19.61.09,2.59-.05,5.59.12,7.67-1.08C348.07,135.14,358.15,135.84,371.22,147.1ZM169.06,136.64l-2,.35c-1.9,4.43-3.71,8.91-5.73,13.29-2.17,4.74-4.64,9.34-6.78,14.09-4.16,9.24-10,16.72-20,20.25q-6.75,2.38-13.52,4.74c5.33,12.91,15.7,16.26,23.23,6.78,5.47-6.9,11.59-12.06,19.63-15.49,5-2.15,8-6.15,7.68-12.19-.27-5.82.4-11.69,0-17.5C171.26,146.15,169.94,141.41,169.06,136.64Zm37.78,4.53,3-1c.26-2.45,1.3-5.13.66-7.32a39.86,39.86,0,0,1,0-24.14c.71-2.26-2.42-7.27-5.06-8.78-8.63-4.93-17.9-8.72-26.81-13.18-7.18-3.59-14.19-7.53-21.27-11.32,1.8,5.91,3.52,11.44,7.2,14.82,6,5.49,13,10,20,14.14,8.44,4.93,12.58,12.18,15.08,21.28C201.21,131.07,204.41,136,206.84,141.17ZM159.56,92.78c-8.75-17.66-16.47-22.15-31.72-18.1-4.66,1.24-8.88,5.21-13.45,5.48-10.51.62-13.46,9.3-21.13,16.6,6-.72,9.75-1.22,13.47-1.59,10.18-1,21.1-4.69,30.3-2.16C145.15,95.24,151.66,95.25,159.56,92.78Zm174.09,169.8-.77-2.18c-7,2.23-14.09,4.38-21.09,6.7-12.27,4.07-24.43,8.21-37.74,4.67-1.75-.46-4.27,2-8.34,4.05l-43.06-23.18c1.83,4.22,2.67,7.71,4.64,10.36,5.56,7.53,13.64,10.47,22.69,11.6,3.74.47,7.35,1.94,11,2.9,7.05,1.84,14.05,4.9,21.17,5.21C302.16,283.58,317.17,271,333.65,262.58Zm-217.36-73.1c-2.09-2.41-3.77-5.42-6.33-7.1-5.57-3.66-11.69-6.48-17.37-10A8.45,8.45,0,0,1,89,167.44c-2.13-11.71-3.91-23.48-5.87-35.61-.5.27-2,.57-2.56,1.46-4.88,8.1-9.73,16.23-14.11,24.6-.49.92,1.71,3.73,3.19,5.11,4.29,4,9.17,7.4,13.25,11.6C91.8,183.75,101.79,190.28,116.29,189.48Zm4.62-16.36c-3.91-5.32-7.11-10.64-11.25-15.06-4.45-4.74-4.32-9.68-2.4-15a25.28,25.28,0,0,1,23.47-16.41c1.23,0,2.47-.19,4.7-.37-12.13-7.6-28.46-2.15-34.09,10.19-2.34,5.13-4.83,10.21-7.62,15.1-1.9,3.33-1.46,14.24,1.19,17C102.31,176.16,110.29,177.56,120.91,173.12ZM107,41.59l-1.7-2C93.69,53.93,79.64,60.13,60.86,53.21c3.14,6.61,6,12.57,10.56,16.56,7.31,6.38,15.75,11.45,24.63,17.72.32-1.16,2.16-4.07,1.37-5.64-5.84-11.58-1.56-21.48,4.33-31.29C103.53,47.59,105.23,44.58,107,41.59ZM332.61,186l-4.37-1.13c-7.54,11.47-15.4,22.75-22.41,34.53-2,3.31-1.39,8.12-2.12,13.16,7.67-1.94,13.35-2.76,18.49-4.9,3-1.23,6.87-4.31,7.26-7C331.14,209.2,331.66,197.57,332.61,186Zm-68.47,23.86c3.4,15.69,17.34,18.9,27.58,25.86,1.17.8,7.93-3.18,7.78-4.41-1.38-10.94,5.54-18.38,10.08-26.86a70.86,70.86,0,0,0,3.17-8C299.08,210.94,284.15,217.3,264.14,209.87Zm16-15.32c-.31-2.5-.39-3.74-.63-5C277,177.18,281.07,173.06,293.7,175a13.27,13.27,0,0,0,5.64-.78c7.12-2.2,12.83,1,14.5,8.29.92,4.05,1.66,8.14,2.6,12.78,7.76-7.51,8.32-13.79,2.64-21-8.78-11.17-25.89-14.85-38.45-8.28C269.57,171.76,268.68,185.8,280.11,194.55ZM123.38,30.5c-11.24,9.25-21.69,24.35-23.89,34.89-.78,3.72.35,7.85.61,11.79,4.53-.33,10,.79,13.32-1.38s5.6-7.44,6.31-11.69C121.51,53.56,122.13,42.81,123.38,30.5Zm62.4,258.94c10.75-7.87,10.75-7.87,5.66-19.72-.91-2.12-1.72-4.3-2.75-6.36-4.86-9.76-9.77-19.48-14.83-29.55-4.89,2.75-10.24,3.44-7.57,9.79C172.74,258.91,179.28,274.17,185.78,289.44Zm149-64.27c11.48-.35,13.6-4.15,8.65-15.3A36.46,36.46,0,0,1,340.27,198c-.77-10.51-.62-21.09-1.45-31.59-.69-8.83-6.23-14.39-14.17-17.75-6.94-2.94-13.63-3.31-20.14,2.67a118.82,118.82,0,0,0,22,6.95c5.58,1.19,8.1,4.64,8.16,9.71C334.86,186.87,334.74,205.74,334.74,225.17ZM90.53,148.62c9-23.45,22.17-38.41,49.19-26.48-.09-6.75-3.86-10.43-9.68-12.49-8.15-2.89-18.25-6.73-23.63,1.15C98.93,121.76,83.26,129.92,90.53,148.62ZM112.39,19.08c.53-7.09-2.06-10.73-7-13.54-12.48-7-24.11.84-36,2.1-3.48.38-6.74,6.16-9.44,9.93-8,11.13-7.9,14.66-.19,25,5.26-10.82,1.12-28,17.86-30.26C89.22,10.76,102.86,3.52,112.39,19.08ZM89.69,188.89A61.7,61.7,0,0,0,130.52,212c5.36.75,9.12-.84,13-4.58,5.1-4.86,11.27-8.58,16.67-13.15,2.36-2,4-4.86,5.93-7.33l-2.78-2.41c-4.56,4.17-9.66,7.89-13.57,12.6-8.49,10.26-19.69,11.09-28.86,1.54-1.2-1.25-2.54-2.81-4.08-3.22C107.87,193.12,98.8,191.06,89.69,188.89Zm160.72,26c-.31,9.89-2.87,22.43,9,27.81,8.35,3.77,18.36,1.13,27.1-4.44Zm12.2-16.3c1.69-5.92,4-11.75,5-17.79,2.19-13.53,9.37-20.23,23-21.55,10.94-1.06,20.4,1.94,30,10.29-7.21-14.95-28.3-19.64-45.32-13.21C261.52,161.52,256.34,181.23,262.61,198.59ZM447.2,246.44c-.73-5-.34-8.79-1.87-11.54a252.81,252.81,0,0,0-15.13-24.05c-1.16-1.62-4.91-1.41-7.46-2-1,4.64-3.68,9.67-2.73,13.87C423,235.63,432.73,242.18,447.2,246.44ZM163.62,293.85l2.33.78c3.43-5.68,10.5-12.07,9.55-16.88-2.07-10.54-8.21-20.29-13.08-31.24C150.29,264.13,162.54,278.61,163.62,293.85Zm244.86-26.5L446.83,265c-.54-12.52-3.73-16.42-15.77-18.19a44.68,44.68,0,0,1-8.83,5.83c-1.51.84-3.36,1.43-4.4,2.68C414.27,259.58,411,264.07,408.48,267.35ZM76.75,42.11c-.57-3.06-1-5.26-1.4-7.46-1.95-10,1.13-13.53,11.11-12.82a15.6,15.6,0,0,0,6-.52c7.14-2.42,11.37.59,14,7,1.14,2.82,2.14,5.7,3.24,8.69,7.61-6.62,7.47-10.1-.1-15.84-2.44-1.86-4.54-4.2-7.06-5.94-1.54-1.07-3.63-2.1-5.39-2-5.83.45-11.61,1.47-17.42,2.22C73.41,16.26,67.08,22,67,28.2S69.3,39.51,76.75,42.11Zm120.66,92.48-2.9,0c.47,5.29.06,10.85,1.6,15.81,2.34,7.53,2.89,13.83-4.07,19.31-2.15,1.69-3.17,4.82-5.8,9.07,4.25-2,6.51-3.91,8.75-3.88,15.62.19,13.51-11.16,13.69-20.82a15.58,15.58,0,0,0-2-8.34C204.1,141.72,200.56,138.28,197.41,134.59ZM161.73,237c-6.48-1.47-12.22-2.5-17.81-4.08-11.87-3.35-23.86,3.48-27.46,16.46,14.15-2.54,28-4.94,41.87-7.66C159.51,241.51,160.26,239.14,161.73,237Zm-6.63,11.15c-22.08-2-36.74,5.63-37.28,19.15C131.34,268.38,152.31,257.91,155.1,248.17ZM277.45,88.32C266.42,85,247.2,93.88,243,104.6c6.85-.66,13.49-1.28,20.12-1.95C275.92,101.36,275.91,101.35,277.45,88.32Zm138,137.21c-3.32,3.75-9.52,7.55-9.92,11.9-.68,7.37,2.29,15.08,3.75,22.76,5.18-4.06,6.09-13,15-12.26.1,0,1.64-5.35.69-7.33C422.62,235.66,419.19,231.23,415.49,225.53Zm-142-117.14c-31.44-1.52-45.34,5.57-53,26.58,13-13.84,28.36-18.16,44.2-21.72C267.85,112.55,270.59,110.06,273.51,108.39ZM152,268.4c-6,16.68-11.33,31.29-16.63,45.91l2.22,1.13c4.6-6.11,8.59-12.83,13.93-18.21C160.45,288.28,156.1,279.71,152,268.4Zm46,4,2.48-.2c-.49-4-.47-8.25-1.58-12.12-2.6-9-5.77-17.91-8.64-26.87-.9-2.81-1.55-5.71-2.68-9.92L178,231.1C184.84,245.25,191.43,258.83,198,272.41Zm192.75,47,3.78,2.06c2.44-3.44,5.54-6.59,7.17-10.37,2.73-6.36,4.05-13.34,6.86-19.66,2.62-5.88,1.69-9.71-5.53-13.12C398.89,292.22,394.82,305.82,390.76,319.41Zm26.72-34.64c6.53,13.63,20,7.37,29,12.9-.4-5.11-1.06-9.68-2.77-13.82-.69-1.66-3.85-3.54-5.61-3.3C431.38,281.47,424.76,283.2,417.48,284.77ZM117.43,160c3.21,11.65,12.55,14.21,23.25,5.46,2.19-1.79,2.72-5.6,4-8.48-3.59-.93-7.38-3.07-10.72-2.52C128.33,155.44,123,158.09,117.43,160Zm331.36,18.14c-.31-1-.62-2-.92-3.07-4.58.25-11.82-1.21-13.27,1.06-5.11,7.94-8.23,17.16-12.1,25.89l3.05,2.12ZM413.57,324.45c1.28-11.47,8.45-22.1,1.16-33.69-3.52,6.76-5.68,13.83-8.61,20.57C402.93,318.67,405.91,322.12,413.57,324.45ZM82.38,98l-.78-2.61c-6.84,1-14.33.66-20.36,3.46-6.34,2.94-11.29,8.9-17.38,14C61.28,117.27,68.66,100.18,82.38,98Zm211,106.69-24.34-11.41-5.84,9.79C272.26,210.59,285.44,211,293.41,204.73ZM243.35,69.93c-13.4,10.48-14,9.7-3.79,28.44C248.16,88.24,249.07,81.45,243.35,69.93Zm-83.92,73.52c9.15-18.83-6.58-27.11-16.21-37.62-2.59-2.83-8.11-3-12.29-4.37l-.55,2.09C143.2,114.56,158,124.08,159.43,143.45ZM223,80c-5.6,8.46-3,18.37,8,30.33C237.09,103.33,232.5,85.85,223,80ZM446.9,274.2c-13.17-7.22-25.79-4.15-40.89.32,4.8,2.7,7.75,5.84,10.24,5.51C426.54,278.65,436.7,276.23,446.9,274.2Zm-134.29,4.73.44,2.27c11.24-3.25,22.52-6.36,33.67-9.9,1.44-.46,3.41-3.73,3-4.67a6.75,6.75,0,0,0-5-3.31,17.32,17.32,0,0,0-8.05,2.11C328.52,269.75,320.6,274.41,312.61,278.93ZM227.23,115.6,216.62,95.34l-1.53.57-1.68,33.54,2.43.46ZM27.38,104.35l0,2.69c3.84.88,8.64,3.65,11.34,2.28,6.9-3.51,12.86-8.86,20-14C43.79,88.24,37.7,102.27,27.38,104.35Zm106.45,36.34c-2.3-8.14-7.86-11.6-12.49-7.78a47.79,47.79,0,0,0-10,11.5c-3.11,5-1.19,7.7,5.59,8.8C118.89,144.41,124,139.25,133.83,140.69Zm321.75,37c-7.89,8.82-15.16,17-23,25.71C446.17,205.55,457.24,193,455.58,177.68ZM50.87,57.9l-3.43,3C46.1,73,59.58,85.79,77.7,87.67ZM181.56,214l-3.37-13.68-29,14.29C159.75,221.6,169.79,208.41,181.56,214Zm239.87-23.35c4.59-8.42,9.12-16.74,13.46-24.69-17,.81-21.21,7.17-14.48,22.88A16.62,16.62,0,0,0,421.43,190.68ZM62.75,66.88C55.68,54.33,57,40.43,46.55,31.69,48.93,44.09,45.58,58.87,62.75,66.88ZM83.2,188.26C84.32,180,74,168.44,61.85,166,69.24,174.44,69.71,186.55,83.2,188.26Zm312.67,95.29c-3.6,4.05-6.32,7.46-9.4,10.5-7.87,7.79-7.68,14,.94,21.21C390.15,305,392.88,294.76,395.87,283.55ZM247.68,179.8c3.56,27.57,5.38,32.13,15.08,37.2C253.54,206.94,259.43,191.12,247.68,179.8Zm53.68-2.06c-1.19,8.52-2.17,15.58-3.26,23.36,7.79-3.68,13.59-13.35,11.8-18.67C308.33,177.76,305,176.24,301.36,177.74ZM151.23,156.38c2.13-9.63-3-18.3-13.07-22.25v12.68Zm-35.29,24c10.42,6.62,27.27-1.27,30.72-12.22Zm8.9,102.2c8.94-6.72,20.73-7.58,24-19.34C140.21,268.18,127,267.23,124.84,282.61Zm-85-223.13c-5.56,8.79,2.31,26.13,11.81,27.46C47.73,77.86,44.12,69.45,39.83,59.48Zm-1.1,24.07C35.28,76,32.91,70.83,31.21,67.14L14.81,73.3c4.35,1.84,7.89,3.32,11.41,4.83S33.12,81.12,38.73,83.55ZM143.15,278.43c-10.52,2.88-14.58,14.86-10.78,30.71C136,298.84,139.51,288.8,143.15,278.43Zm305.36-74.07c9.68,4,15.31-.22,20.71-6.94l-9-5.94Zm6.89,30.49c-7-8-8.33-20.71-19.35-25.5C440.43,219.49,443.88,230.33,455.4,234.85ZM139.92,60l.27,2.39c10.33,1.37,20.7,5.2,30.93.41l0-2.8ZM88.3,49.23,64.37,40.92c-.48,1.2-1.5,3.73-2.63,6.56C70.48,52,78.78,53.4,88.3,49.23ZM426.21,298.37c4.16,8.26,7.85,15.56,12.38,24.54C440.21,302.58,438.52,299.24,426.21,298.37ZM251.63,87.21c15.68-1.14,19.44-3.59,19.25-12.74C263.19,76.8,254.58,77.2,251.63,87.21Zm171.69,217C418,317.94,419.06,319.75,436,326Zm24-93.57c5,14.23,7.52,16,15.55,11.27C459.91,215.38,457.6,208.12,447.31,210.61Zm-352-188c-.53,8.54-.92,14.91-1.37,22.15,6.1-4,10.1-8.5,8.62-15.22C102.07,27.15,98.36,25.41,95.35,22.66Zm264.4,173.39-2.16-.59-8.65,26.32C360.94,211.24,360.94,211.24,359.75,196.05ZM41.5,90.41c-8.11-4-9.23-3.86-19.47,2.62C30,99.83,30.36,99.79,41.5,90.41Zm94.22-33.29c5.47-4.18,5.05-11.65-.67-22.1C128,43.14,135.38,49.6,135.72,57.12Zm-65.4,16.1c3,8.26,7.69,14.17,16.45,14.63l1.56-2.19Q79.32,79.45,70.32,73.22Zm53.28-6.93c9.88-5.93,10.06-7.29,2.84-21.19C125.44,52.56,124.58,59,123.6,66.29ZM323.23,163c1,6,1.87,11.34,2.93,17.81C333.41,168.8,332.41,163.46,323.23,163ZM478.9,214.39l-.48-1.86-15.61-1,5,9.48ZM152.05,140.84l3.41-1.78-8.56-14.71-3.6,2.12Zm6.83-69.63c-10.67-4.6-24.61-5.37-28.61-2.13ZM118.49,27.34c6.85-9,5.86-14.8-2.53-16.53C116.78,16.19,117.56,21.27,118.49,27.34Zm40.24,19.2c8.72.38,9.17-.08,10.31-10.77Zm-9.15,6.37.31,2.38c6.9-1.66,14.83,2.38,22-5.62ZM251.52,76.35c2.6-5.57,4.79-10.28,7-15C254.72,65.44,245.44,66.91,251.52,76.35Zm-118,71.91c-7.73-4.42-10-.67-11.7,4.05l1.43,2.2ZM143,48.72l2.9.83c5.64-2.84,4.81-6.87-.23-11.78ZM29.27,84.22,13.2,77.75C17.6,81,20.08,89.1,29.27,84.22Z"/><path class="cls-2" d="M204.56,268.73c3.59,3.07,6.15,5.16,8.6,7.38,14.55,13.18,31.86,17.47,50.9,15.27,7.31-.85,14.41-3.38,21.7-4.55,18.93-3,38.63-1.45,56.69-9.59,5.16-2.33,10.42-4.48,15.37-7.19s9.06-5.9,9.66-12.74,6.77-10.08,12.8-12c6.58-2.13,13.36-3.62,20.05-5.38,5.83,8.89,4.19,27-3,34.34a46,46,0,0,0-6.26,7.75c-6.66,10.92-16.58,16.75-28.53,20.74a43.64,43.64,0,0,0-16.95,11.21c-6.59,6.94-13.08,9.7-23.06,8.89-24.85-2-49.85-2.33-74.78-3.45-4.1-.19-8.15-1.34-12.25-1.58-11.43-.67-19-5.4-20.6-17.66-.33-2.56-2.28-5.32-4.25-7.17C203.82,286.57,203.5,278.69,204.56,268.73Z"/><path class="cls-3" d="M353.22,266.08c.76-2.59.77-5.88,2.42-7.64,7.18-7.66,10.67-16.65,12.44-26.89,1.52-8.79,4.44-17.35,7.15-27.57l-11,3.49c-1.47-9.7,1.82-18.09,7.13-25.67s8.78-14.41,5.41-24.24c-2.7-7.86-2.7-16.64-3.91-25.11,12.49-3.63,24.06,2.63,27.24,15.55,1,4.22.83,8.75,1.91,13,.92,3.57,2.19,7.46,4.5,10.2,10.4,12.38,14.05,26.75,10.42,42-3.14,13.11-13.7,20.74-26,25.47-3.58,1.37-7.54,1.73-11.24,2.84-8.7,2.61-14.93,7.3-16.62,17.21-.56,3.3-4.39,6-6.73,9Z"/><path class="cls-4" d="M255.27,180.51c-2-1.24-3.18-2.33-4.52-2.67-2.06-.53-4.5-1.17-6.29-.48-.87.34-.93,3.59-.81,5.49.68,11.29,1.32,22.58,2.36,33.84.81,8.73,2.17,17.41,3.38,26.91-2.52-1-6.84-1.61-9.65-4-19.26-16.45-25.64-38.32-22.93-62.48,2.4-21.43,17.3-34.05,36.27-41.36,6.87-2.64,15.11-1.72,22.73-2.4a2.46,2.46,0,0,1,1.51.25c6.59,4.71,13.15,9.46,21.63,15.59C275.55,149,258.13,154.91,255.27,180.51Z"/><path class="cls-5" d="M64.15,184.85c7.46,2.83,14.49,5.25,21.29,8.2,2.47,1.07,4.46,3.31,6.57,5.14,14.08,12.23,29.44,20.72,49.07,17.26a5,5,0,0,1,4,1.18c5.72,6.57,12.32,4.31,19.28,2.78,6.46-1.42,13.19-1.66,19.8-2.42.19.88.39,1.76.58,2.64-1.18.79-2.65,1.36-3.51,2.42-11.17,13.85-25,10.66-38.7,5.62-7.62-2.79-13.77-1.83-20.14,3.14-2.31,1.81-6.49,2.28-9.58,1.81-9.15-1.39-18.12-3.9-27.26-5.33-11.64-1.83-13.66-3.75-15.35-15.41-.66-4.54-2.51-8.9-3.53-13.41C65.61,193.62,64.86,188.69,64.15,184.85Z"/><path class="cls-6" d="M267,287.15c-13.4,2.48-26.92,1.33-38.61-5.4C209.68,271,195.83,256,194,232.65c-.46-5.9-3.75-11.61-5.87-17.35-1.87-5-4.74-9.83-5.74-15-2.66-13.65,5.91-22.76,21.16-22.74-5.59,12.81-6,25.74-2.87,39.18,2.56,11.12,9.5,19.21,16.22,27.68,1.48,1.86,3.08,4.31,3.13,6.52.26,12.82,7.07,21.9,20,25.57,9.17,2.6,18.41,4.95,27.61,7.42Z"/><path class="cls-7" d="M148.67,207c4.46-3,7.49-5.12,10.58-7.13,1.91-1.25,4.75-1.88,5.72-3.61,5.49-9.84,12.3-19.31,10.53-31.65a26.37,26.37,0,0,1,.24-7.57c1.31-8.7,1-16.78-5.67-23.73-2.16-2.24-2.62-6-4.35-8.81a68.45,68.45,0,0,0-7.48-10.15c-3.51-3.85-7.49-7.27-11.35-11,8-6.84,19.53-7,26.15-1.68,4,3.22,8.58,5.69,12.71,8.74,7.27,5.37,10,12,6.59,20.26s-2.64,16.09.18,24c1.6,4.48,0,7.23-2.63,11-5.64,8.17-10.21,17.12-14.82,26C169.71,202,161.83,207.21,148.67,207Z"/><path class="cls-8" d="M266.58,270c-34.37-10.72-65.83-38.14-64.2-71.13.44-8.8,2.2-17.19,10.13-25,0,4.16-.32,6.8.06,9.35,1.53,10.36,3.23,20.7,5,31,.9,5.39,2.22,10.72,2.93,16.13,1,7.58,5.18,12.52,12.37,14.1,18.26,4,36.33,5.55,54.69-1.19,15.16-5.56,31-9.26,46.61-13.62,2.4-.67,5.05-.45,7.58-.64.31.68.61,1.37.92,2.05-5,2.46-9.72,5.58-14.93,7.25-11,3.53-22.33,6.23-33.47,9.42-4.2,1.21-8.32,2.72-12.38,4.34C273.86,255.22,267.21,259.8,266.58,270Z"/><path class="cls-9" d="M269.45,265.44c5.57-4,9.31-8,13.9-9.64,12.59-4.4,25.43-8.23,38.38-11.43,12.71-3.14,23.3-9,31.77-19.11a56.33,56.33,0,0,1,15.35-12.8c-2.69,10.36-4.94,20.86-8.19,31-3.55,11.08-9,12.61-20.13,13.72-12.84,1.28-25.28,6.16-38.08,8.41-9.17,1.61-18.65,1.48-28,2C273.79,267.71,273.09,267.1,269.45,265.44Z"/><path class="cls-10" d="M212,167.55c.7-10.46.74-20.86,10-28.93,10.44-9.14,21.42-16.6,35.35-19.59,8.43-1.82,16.62-5.06,24.66-8.3,6.71-2.7,12.56-3.06,19,1.11,4.78,3.11,10.52,4.72,15.72,6.94-6.89,6-14.08,12.14-21.15,18.43-4.06,3.6-8.28,1.5-9.88-1.57-3.51-6.75-9.46-6.86-15.17-6.81-24.2.19-41.26,12.39-53.14,32.76-1.25,2.16-2.25,4.47-3.37,6.71Z"/><path class="cls-11" d="M333.17,148.61c18.21-12.54,36.95-5.54,40.6,14.47.73,4-1.11,9.27-3.42,12.91-3.55,5.58-9,9.95-12.78,15.41s-6.49,11.44-9.67,17.21l-2.31-.05c-.79-9.25-2.32-18.52-2.17-27.75C343.61,168.92,343.4,157.54,333.17,148.61Z"/><path class="cls-12" d="M136.26,97.85c-8.7,1.78-17.65,2.82-26,5.64-4.38,1.48-7.76,6-11.5,9.3-5.05,4.41-10,9-15,13.39-3.56,3.13-8.08,5.56-10.67,9.33-4.6,6.75-8.07,14.28-12.18,21.77-.48-.29-1.25-.47-1.53-.95-4-6.67-2-29.77,1.79-36.29C70,105,83.31,100.3,99.9,100.47c7.32.07,14.63-2.57,22-3.65,4.76-.7,9.6-.81,14.4-1.19Z"/><path class="cls-13" d="M371.22,147.1c-13.07-11.26-23.15-12-37.76-3.56-2.08,1.2-5.08,1-7.67,1.08-6.53.11-13.08.11-19.61-.09-3.05-.1-6.09-.77-10.87-1.42,13.41-14.54,26.3-24.26,44.58-24.57C352.82,118.32,367.94,131.21,371.22,147.1Z"/><path class="cls-14" d="M169.06,136.64c.88,4.77,2.2,9.51,2.54,14.32.42,5.81-.25,11.68,0,17.5.29,6-2.65,10-7.68,12.19-8,3.43-14.16,8.59-19.63,15.49-7.53,9.48-17.9,6.13-23.23-6.78q6.77-2.37,13.52-4.74c9.92-3.53,15.81-11,20-20.25,2.14-4.75,4.61-9.35,6.78-14.09,2-4.38,3.83-8.86,5.73-13.29Z"/><path class="cls-15" d="M206.84,141.17c-2.43-5.15-5.63-10.1-7.12-15.52-2.5-9.1-6.64-16.35-15.08-21.28-7-4.12-14-8.65-20-14.14-3.68-3.38-5.4-8.91-7.2-14.82,7.08,3.79,14.09,7.73,21.27,11.32,8.91,4.46,18.18,8.25,26.81,13.18,2.64,1.51,5.77,6.52,5.06,8.78a39.86,39.86,0,0,0,0,24.14c.64,2.19-.4,4.87-.66,7.32Z"/><path class="cls-16" d="M159.56,92.78c-7.9,2.47-14.41,2.46-22.53.23-9.2-2.53-20.12,1.14-30.3,2.16-3.72.37-7.44.87-13.47,1.59,7.67-7.3,10.62-16,21.13-16.6,4.57-.27,8.79-4.24,13.45-5.48C143.09,70.63,150.81,75.12,159.56,92.78Z"/><path class="cls-17" d="M333.65,262.58c-16.48,8.45-31.49,21-51.46,20.13-7.12-.31-14.12-3.37-21.17-5.21-3.69-1-7.3-2.43-11-2.9-9-1.13-17.13-4.07-22.69-11.6-2-2.65-2.81-6.14-4.64-10.36l43.06,23.18c4.07-2.07,6.59-4.51,8.34-4.05,13.31,3.54,25.47-.6,37.74-4.67,7-2.32,14.06-4.47,21.09-6.7Z"/><path class="cls-18" d="M116.29,189.48c-14.5.8-24.49-5.73-33.35-14.88-4.08-4.2-9-7.6-13.25-11.6-1.48-1.38-3.68-4.19-3.19-5.11,4.38-8.37,9.23-16.5,14.11-24.6.53-.89,2.06-1.19,2.56-1.46,2,12.13,3.74,23.9,5.87,35.61a8.45,8.45,0,0,0,3.55,4.94c5.68,3.52,11.8,6.34,17.37,10C112.52,184.06,114.2,187.07,116.29,189.48Z"/><path class="cls-19" d="M120.91,173.12c-10.62,4.44-18.6,3-26-4.58-2.65-2.72-3.09-13.63-1.19-17,2.79-4.89,5.28-10,7.62-15.1,5.63-12.34,22-17.79,34.09-10.19-2.23.18-3.47.36-4.7.37a25.28,25.28,0,0,0-23.47,16.41c-1.92,5.31-2.05,10.25,2.4,15C113.8,162.48,117,167.8,120.91,173.12Z"/><path class="cls-20" d="M107,41.59c-1.74,3-3.44,6-5.22,9-5.89,9.81-10.17,19.71-4.33,31.29.79,1.57-1,4.48-1.37,5.64-8.88-6.27-17.32-11.34-24.63-17.72-4.57-4-7.42-9.95-10.56-16.56,18.78,6.92,32.83.72,44.41-13.62Z"/><path class="cls-21" d="M332.61,186c-.95,11.56-1.47,23.19-3.15,34.65-.39,2.7-4.28,5.78-7.26,7-5.14,2.14-10.82,3-18.49,4.9.73-5,.16-9.85,2.12-13.16,7-11.78,14.87-23.06,22.41-34.53Z"/><path class="cls-22" d="M264.14,209.87c20,7.43,34.94,1.07,48.61-13.39a70.86,70.86,0,0,1-3.17,8c-4.54,8.48-11.46,15.92-10.08,26.86.15,1.23-6.61,5.21-7.78,4.41C281.48,228.77,267.54,225.56,264.14,209.87Z"/><path class="cls-23" d="M280.11,194.55c-11.43-8.75-10.54-22.79.52-28.58,12.56-6.57,29.67-2.89,38.45,8.28,5.68,7.22,5.12,13.5-2.64,21-.94-4.64-1.68-8.73-2.6-12.78-1.67-7.33-7.38-10.49-14.5-8.29a13.27,13.27,0,0,1-5.64.78c-12.63-1.91-16.69,2.21-14.22,14.63C279.72,190.81,279.8,192.05,280.11,194.55Z"/><path class="cls-24" d="M123.38,30.5c-1.25,12.31-1.87,23.06-3.65,33.61-.71,4.25-3,9.52-6.31,11.69s-8.79,1-13.32,1.38c-.26-3.94-1.39-8.07-.61-11.79C101.69,54.85,112.14,39.75,123.38,30.5Z"/><path class="cls-25" d="M334.74,225.17c0-19.43.12-38.3-.08-57.18-.06-5.07-2.58-8.52-8.16-9.71a118.82,118.82,0,0,1-22-6.95c6.51-6,13.2-5.61,20.14-2.67,7.94,3.36,13.48,8.92,14.17,17.75.83,10.5.68,21.08,1.45,31.59a36.46,36.46,0,0,0,3.12,11.87C348.34,221,346.22,224.82,334.74,225.17Z"/><path class="cls-26" d="M90.53,148.62c-7.27-18.7,8.4-26.86,15.88-37.82,5.38-7.88,15.48-4,23.63-1.15,5.82,2.06,9.59,5.74,9.68,12.49C112.7,110.21,99.51,125.17,90.53,148.62Z"/><path class="cls-27" d="M112.39,19.08c-9.53-15.56-23.17-8.32-34.83-6.76C60.82,14.55,65,31.76,59.7,42.58c-7.71-10.35-7.77-13.88.19-25,2.7-3.77,6-9.55,9.44-9.93,11.9-1.26,23.53-9.11,36-2.1C110.33,8.35,112.92,12,112.39,19.08Z"/><path class="cls-28" d="M89.69,188.89c9.11,2.17,18.18,4.23,27.17,6.58,1.54.41,2.88,2,4.08,3.22,9.17,9.55,20.37,8.72,28.86-1.54,3.91-4.71,9-8.43,13.57-12.6l2.78,2.41c-2,2.47-3.57,5.34-5.93,7.33-5.4,4.57-11.57,8.29-16.67,13.15-3.91,3.74-7.67,5.33-13,4.58A61.7,61.7,0,0,1,89.69,188.89Z"/><path class="cls-29" d="M250.41,214.89l36.15,23.37c-8.74,5.57-18.75,8.21-27.1,4.44C247.54,237.32,250.1,224.78,250.41,214.89Z"/><path class="cls-30" d="M262.61,198.59c-6.27-17.36-1.09-37.07,12.66-42.26,17-6.43,38.11-1.74,45.32,13.21-9.61-8.35-19.07-11.35-30-10.29-13.63,1.32-20.81,8-23,21.55C266.6,186.84,264.3,192.67,262.61,198.59Z"/><path class="cls-31" d="M76.75,42.11C69.3,39.51,66.88,34.29,67,28.2s6.43-11.94,12.65-12.73c5.81-.75,11.59-1.77,17.42-2.22,1.76-.14,3.85.89,5.39,2,2.52,1.74,4.62,4.08,7.06,5.94,7.57,5.74,7.71,9.22.1,15.84-1.1-3-2.1-5.87-3.24-8.69-2.58-6.4-6.81-9.41-14-7a15.6,15.6,0,0,1-6,.52c-10-.71-13.06,2.78-11.11,12.82C75.78,36.85,76.18,39.05,76.75,42.11Z"/><path class="cls-32" d="M197.41,134.59c3.15,3.69,6.69,7.13,9.31,11.17a15.58,15.58,0,0,1,2,8.34c-.18,9.66,1.93,21-13.69,20.82-2.24,0-4.5,1.93-8.75,3.88,2.63-4.25,3.65-7.38,5.8-9.07,7-5.48,6.41-11.78,4.07-19.31-1.54-5-1.13-10.52-1.6-15.81Z"/><path class="cls-33" d="M117.43,160c5.53-1.94,10.9-4.59,16.55-5.54,3.34-.55,7.13,1.59,10.72,2.52-1.3,2.88-1.83,6.69-4,8.48C130,174.24,120.64,171.68,117.43,160Z"/><path class="cls-34" d="M293.41,204.73c-8,6.3-21.15,5.86-30.18-1.62l5.84-9.79Z"/><path class="cls-35" d="M159.43,143.45c-1.39-19.37-16.23-28.89-29.05-39.9l.55-2.09c4.18,1.38,9.7,1.54,12.29,4.37C152.85,116.34,168.58,124.62,159.43,143.45Z"/><path class="cls-36" d="M312.61,278.93c8-4.52,15.91-9.18,24-13.5a17.32,17.32,0,0,1,8.05-2.11,6.75,6.75,0,0,1,5,3.31c.45.94-1.52,4.21-3,4.67-11.15,3.54-22.43,6.65-33.67,9.9Z"/><path class="cls-37" d="M133.83,140.69c-9.84-1.44-14.94,3.72-16.9,12.52-6.78-1.1-8.7-3.77-5.59-8.8a47.79,47.79,0,0,1,10-11.5C126,129.09,131.53,132.55,133.83,140.69Z"/><path class="cls-38" d="M50.87,57.9,77.7,87.67C59.58,85.79,46.1,73,47.44,60.88Z"/><path class="cls-39" d="M181.56,214c-11.77-5.62-21.81,7.57-32.36.61l29-14.29Z"/><path class="cls-40" d="M62.75,66.88c-17.17-8-13.82-22.79-16.2-35.19C57,40.43,55.68,54.33,62.75,66.88Z"/><path class="cls-41" d="M83.2,188.26c-13.49-1.71-14-13.82-21.35-22.29C74,168.44,84.32,180,83.2,188.26Z"/><path class="cls-42" d="M247.68,179.8c11.75,11.32,5.86,27.14,15.08,37.2C253.06,211.93,251.24,207.37,247.68,179.8Z"/><path class="cls-43" d="M301.36,177.74c3.68-1.5,7,0,8.54,4.69,1.79,5.32-4,15-11.8,18.67C299.19,193.32,300.17,186.26,301.36,177.74Z"/><path class="cls-44" d="M151.23,156.38l-13.07-9.57V134.13C148.21,138.08,153.36,146.75,151.23,156.38Z"/><path class="cls-45" d="M115.94,180.41l30.72-12.22C143.21,179.14,126.36,187,115.94,180.41Z"/><path class="cls-46" d="M88.3,49.23C78.78,53.4,70.48,52,61.74,47.48c1.13-2.83,2.15-5.36,2.63-6.56Z"/><path class="cls-47" d="M95.35,22.66c3,2.75,6.72,4.49,7.25,6.93,1.48,6.72-2.52,11.27-8.62,15.22C94.43,37.57,94.82,31.2,95.35,22.66Z"/><path class="cls-48" d="M359.75,196.05c1.19,15.19,1.19,15.19-10.81,25.73l8.65-26.32Z"/><path class="cls-49" d="M70.32,73.22q9,6.23,18,12.44l-1.56,2.19C78,87.39,73.31,81.48,70.32,73.22Z"/><path class="cls-50" d="M323.23,163c9.18.44,10.18,5.78,2.93,17.81C325.1,174.36,324.21,169,323.23,163Z"/><path class="cls-51" d="M152.05,140.84l-8.75-14.37,3.6-2.12,8.56,14.71Z"/><path class="cls-52" d="M118.49,27.34c-.93-6.07-1.71-11.15-2.53-16.53C124.35,12.54,125.34,18.37,118.49,27.34Z"/><path class="cls-53" d="M133.52,148.26l-10.27,6.25-1.43-2.2C123.48,147.59,125.79,143.84,133.52,148.26Z"/></g></g></svg>